<svg width="20" height="20" viewBox="0 0 20 20" fill="none" xmlns="http://www.w3.org/2000/svg">
<path fill-rule="evenodd" clip-rule="evenodd" d="M11.53 4.44648C11.8033 4.17311 12.2466 4.17311 12.5199 4.44648L17.5782 9.50481C17.8516 9.77818 17.8516 10.2214 17.5782 10.4948L12.5199 15.5531C12.2466 15.8265 11.8033 15.8265 11.53 15.5531C11.2566 15.2798 11.2566 14.8365 11.53 14.5632L16.0933 9.99979L11.53 5.43643C11.2566 5.16306 11.2566 4.71985 11.53 4.44648Z" fill="white"/>
<path fill-rule="evenodd" clip-rule="evenodd" d="M2.2168 10C2.2168 9.61345 2.5302 9.30005 2.9168 9.30005H16.9417C17.3283 9.30005 17.6417 9.61345 17.6417 10C17.6417 10.3866 17.3283 10.7 16.9417 10.7H2.9168C2.5302 10.7 2.2168 10.3866 2.2168 10Z" fill="white"/>
</svg>
