<svg width="20" height="20" viewBox="0 0 20 20" fill="none" xmlns="http://www.w3.org/2000/svg">
<path fill-rule="evenodd" clip-rule="evenodd" d="M11.5654 4.48205C11.8192 4.22821 12.2308 4.22821 12.4846 4.48205L17.543 9.54038C17.6649 9.66228 17.7333 9.82761 17.7333 10C17.7333 10.1724 17.6649 10.3377 17.543 10.4596L12.4846 15.518C12.2308 15.7718 11.8192 15.7718 11.5654 15.518C11.3115 15.2641 11.3115 14.8526 11.5654 14.5987L16.1641 10L11.5654 5.40129C11.3115 5.14744 11.3115 4.73589 11.5654 4.48205Z" fill="white"/>
<path fill-rule="evenodd" clip-rule="evenodd" d="M2.26667 10C2.26667 9.64102 2.55769 9.35 2.91667 9.35H16.9417C17.3007 9.35 17.5917 9.64102 17.5917 10C17.5917 10.359 17.3007 10.65 16.9417 10.65H2.91667C2.55769 10.65 2.26667 10.359 2.26667 10Z" fill="white"/>
</svg>
