<svg width="8" height="8" viewBox="0 0 8 8" fill="none" xmlns="http://www.w3.org/2000/svg">
<g clip-path="url(#clip0_8_370)">
<path fill-rule="evenodd" clip-rule="evenodd" d="M0.421053 7.57901C0.188512 7.34647 0.188512 6.96945 0.421053 6.73691L6.73684 0.421116C6.96938 0.188575 7.34641 0.188575 7.57895 0.421116C7.81149 0.653657 7.81149 1.03068 7.57895 1.26322L1.26316 7.57901C1.03062 7.81155 0.653594 7.81155 0.421053 7.57901Z" fill="#8D82CB"/>
<path fill-rule="evenodd" clip-rule="evenodd" d="M0.421053 0.420988C0.653594 0.188447 1.03062 0.188447 1.26316 0.420988L7.57895 6.73678C7.81149 6.96932 7.81149 7.34634 7.57895 7.57888C7.34641 7.81142 6.96938 7.81142 6.73684 7.57888L0.421053 1.26309C0.188512 1.03055 0.188512 0.653529 0.421053 0.420988Z" fill="#8D82CB"/>
</g>
<defs>
<clipPath id="clip0_8_370">
<rect width="8" height="8" fill="white"/>
</clipPath>
</defs>
</svg>
