<svg width="22" height="22" viewBox="0 0 22 22" fill="none" xmlns="http://www.w3.org/2000/svg">
<path fill-rule="evenodd" clip-rule="evenodd" d="M2.59127 11.564C3.26621 10.587 4.5125 10.1666 6.41667 10.1666C6.92382 10.1666 7.3203 10.2191 7.67883 10.3587C8.01424 10.4893 8.27022 10.6815 8.48896 10.8458C8.49826 10.8528 8.5075 10.8597 8.51667 10.8666C8.55177 10.8929 8.58449 10.9223 8.61445 10.9543L9.53894 11.9429C10.3352 12.7846 11.6672 12.7808 12.4509 11.944L12.4531 11.9417L13.3881 10.9517C13.4174 10.9207 13.4492 10.8922 13.4833 10.8666C13.4925 10.8597 13.5017 10.8528 13.511 10.8458C13.7298 10.6815 13.9858 10.4893 14.3212 10.3587C14.6797 10.2191 15.0762 10.1666 15.5833 10.1666C17.4875 10.1666 18.7338 10.587 19.4087 11.564C19.731 12.0304 19.8707 12.5556 19.9364 13.0586C20 13.546 20 14.0697 20 14.5567V15.5C20 16.8316 19.7634 18.1901 18.9108 19.2189C18.0344 20.2764 16.6387 20.8333 14.6667 20.8333H7.33333C4.97056 20.8333 3.49521 20.3097 2.70578 19.1666C2.32631 18.6171 2.15795 17.9932 2.07793 17.3806C1.99997 16.7837 1.99998 16.1399 2 15.5275L2 14.5567C1.99998 14.0697 1.99996 13.546 2.06361 13.0586C2.1293 12.5556 2.26902 12.0304 2.59127 11.564ZM3.55098 13.2528C3.50121 13.634 3.5 14.0649 3.5 14.5833V15.5C3.5 16.1444 3.50121 16.6956 3.5653 17.1863C3.62851 17.6703 3.74661 18.0341 3.94005 18.3142C4.29646 18.8303 5.11277 19.3333 7.33333 19.3333H14.6667C16.3613 19.3333 17.2572 18.8635 17.7559 18.2618C18.2783 17.6314 18.5 16.6983 18.5 15.5V14.5833C18.5 14.0649 18.4988 13.634 18.449 13.2528C18.4001 12.8785 18.3107 12.6136 18.1746 12.4166C17.9329 12.0667 17.3458 11.6666 15.5833 11.6666C15.1738 11.6666 14.9836 11.7104 14.8655 11.7564C14.7474 11.8024 14.6498 11.8678 14.4343 12.0285L13.5458 12.9693C13.5454 12.9697 13.545 12.9701 13.5446 12.9705C12.1652 14.4421 9.8324 14.4382 8.44724 12.9716L8.44471 12.9689L7.56424 12.0274C7.34974 11.8675 7.25231 11.8023 7.13451 11.7564C7.01637 11.7104 6.82619 11.6666 6.41667 11.6666C4.65417 11.6666 4.06712 12.0667 3.8254 12.4166C3.68932 12.6136 3.59987 12.8785 3.55098 13.2528Z" fill="#9BA0B6"/>
<path fill-rule="evenodd" clip-rule="evenodd" d="M4.59127 2.39735C5.26621 1.42037 6.5125 1 8.41667 1H13.9167C15.8208 1 17.0671 1.42037 17.7421 2.39735C18.0643 2.8638 18.204 3.38894 18.2697 3.89198C18.3334 4.37939 18.3334 4.90304 18.3333 5.39006V10.9167C18.3333 11.3309 17.9975 11.6667 17.5833 11.6667C17.1691 11.6667 16.8333 11.3309 16.8333 10.9167V5.41667C16.8333 4.89827 16.8321 4.46734 16.7824 4.08622C16.7335 3.71184 16.644 3.44693 16.5079 3.24994C16.2662 2.90005 15.6792 2.5 13.9167 2.5H8.41667C6.65417 2.5 6.06712 2.90005 5.8254 3.24994C5.68932 3.44693 5.59987 3.71184 5.55098 4.08622C5.50121 4.46734 5.5 4.89827 5.5 5.41667V10.9167C5.5 11.3309 5.16422 11.6667 4.75 11.6667C4.33579 11.6667 4 11.3309 4 10.9167L4 5.39006C3.99998 4.90304 3.99996 4.37939 4.06361 3.89198C4.1293 3.38894 4.26902 2.8638 4.59127 2.39735Z" fill="#9BA0B6"/>
<path fill-rule="evenodd" clip-rule="evenodd" d="M9 8.37744C9 7.96323 9.33579 7.62744 9.75 7.62744H12.8025C13.2167 7.62744 13.5525 7.96323 13.5525 8.37744C13.5525 8.79165 13.2167 9.12744 12.8025 9.12744H9.75C9.33579 9.12744 9 8.79165 9 8.37744Z" fill="#9BA0B6"/>
<path fill-rule="evenodd" clip-rule="evenodd" d="M8 5.62744C8 5.21323 8.33579 4.87744 8.75 4.87744H13.3333C13.7475 4.87744 14.0833 5.21323 14.0833 5.62744C14.0833 6.04165 13.7475 6.37744 13.3333 6.37744H8.75C8.33579 6.37744 8 6.04165 8 5.62744Z" fill="#9BA0B6"/>
</svg>
