<svg width="22" height="22" viewBox="0 0 22 22" fill="none" xmlns="http://www.w3.org/2000/svg">
<path fill-rule="evenodd" clip-rule="evenodd" d="M4.06163 2.15725C4.94495 1.21307 6.32813 1 8.05459 1H14.9545C16.6806 1 18.0644 1.21294 18.9467 2.15773C19.8125 3.08482 20.0044 4.52052 19.9999 6.34773C19.9999 6.34799 19.9999 6.34748 19.9999 6.34773V16.6326C19.9999 17.2991 19.9102 17.8936 19.7129 18.3797C19.5147 18.8681 19.1842 19.2974 18.6843 19.5132C18.179 19.7313 17.6408 19.6709 17.1555 19.4616C16.6775 19.2555 16.2088 18.8905 15.7603 18.4117L15.7589 18.4103C15.5251 18.1593 15.2633 18.0733 15.0384 18.0855C14.8132 18.0978 14.5617 18.2121 14.3562 18.4861L13.435 19.7175L13.4324 19.7209C12.943 20.3674 12.2508 20.7494 11.5 20.7494C10.7491 20.7494 10.0569 20.3674 9.5675 19.7209L9.56496 19.7175L8.64369 18.4861C8.43818 18.2121 8.18675 18.0978 7.96151 18.0855C7.7366 18.0733 7.47483 18.1593 7.24102 18.4103L7.23974 18.4116C6.79317 18.8885 6.32541 19.2524 5.84762 19.4579C5.36267 19.6665 4.8247 19.7264 4.31954 19.5088C3.81953 19.2935 3.48788 18.8647 3.28858 18.3753C3.09034 17.8885 3 17.2925 3 16.6234V6.34665C3 4.51899 3.19488 3.08372 4.06163 2.15725ZM5.15225 3.17756C4.72755 3.63152 4.49348 4.4962 4.49348 6.34665V16.6234C4.49348 17.1728 4.5697 17.5614 4.67179 17.8121C4.77282 18.0602 4.87527 18.1221 4.91032 18.1372C4.94021 18.15 5.03826 18.1803 5.2575 18.086C5.4839 17.9886 5.7885 17.7764 6.14965 17.3908L6.6946 17.9011L6.14838 17.3921C6.66296 16.8399 7.34582 16.5563 8.04272 16.5943C8.73928 16.6322 9.38684 16.9879 9.83847 17.59L10.7583 18.8195C10.7586 18.82 10.759 18.8205 10.7594 18.821C11.0089 19.1499 11.2837 19.2559 11.5 19.2559C11.7162 19.2559 11.9909 19.1499 12.2405 18.8211C12.2409 18.8205 12.2413 18.82 12.2417 18.8195L13.1609 17.5908C13.6126 16.9886 14.2606 16.6322 14.9572 16.5943C15.6537 16.5563 16.3362 16.8395 16.8506 17.3911C17.2142 17.7791 17.52 17.9924 17.7469 18.0902C17.9667 18.185 18.0639 18.1543 18.0925 18.142C18.1265 18.1273 18.2284 18.066 18.3291 17.818C18.4307 17.5676 18.5064 17.1799 18.5064 16.6326V6.34665L18.5064 6.3448C18.511 4.49427 18.2785 3.63029 17.8552 3.17708C17.4484 2.74145 16.6783 2.49348 14.9545 2.49348H8.05459C6.33112 2.49348 5.56037 2.74131 5.15225 3.17756Z" fill="#9BA0B6"/>
<path fill-rule="evenodd" clip-rule="evenodd" d="M6.9458 9.96086C6.9458 9.41098 7.39157 8.96521 7.94145 8.96521H7.94965C8.49953 8.96521 8.9453 9.41098 8.9453 9.96086C8.9453 10.5107 8.49953 10.9565 7.94965 10.9565H7.94145C7.39157 10.9565 6.9458 10.5107 6.9458 9.96086Z" fill="#9BA0B6"/>
<path fill-rule="evenodd" clip-rule="evenodd" d="M9.75244 9.96085C9.75244 9.54844 10.0868 9.21411 10.4992 9.21411H15.5189C15.9313 9.21411 16.2657 9.54844 16.2657 9.96085C16.2657 10.3733 15.9313 10.7076 15.5189 10.7076H10.4992C10.0868 10.7076 9.75244 10.3733 9.75244 9.96085Z" fill="#9BA0B6"/>
<path fill-rule="evenodd" clip-rule="evenodd" d="M6.9458 6.3101C6.9458 5.76022 7.39157 5.31445 7.94145 5.31445H7.94965C8.49953 5.31445 8.9453 5.76022 8.9453 6.3101C8.9453 6.85999 8.49953 7.30576 7.94965 7.30576H7.94145C7.39157 7.30576 6.9458 6.85999 6.9458 6.3101Z" fill="#9BA0B6"/>
<path fill-rule="evenodd" clip-rule="evenodd" d="M9.75244 6.31009C9.75244 5.89768 10.0868 5.56335 10.4992 5.56335H15.5189C15.9313 5.56335 16.2657 5.89768 16.2657 6.31009C16.2657 6.72251 15.9313 7.05683 15.5189 7.05683H10.4992C10.0868 7.05683 9.75244 6.72251 9.75244 6.31009Z" fill="#9BA0B6"/>
</svg>
