<svg width="22" height="22" viewBox="0 0 22 22" fill="none" xmlns="http://www.w3.org/2000/svg">
<path fill-rule="evenodd" clip-rule="evenodd" d="M17.0959 3.04169C16.502 3.04169 15.9756 3.32185 15.6452 3.74944C15.6263 3.77394 15.606 3.79709 15.5844 3.81881C15.3614 4.13222 15.2334 4.49887 15.2334 4.90419C15.2334 5.93831 16.0618 6.76669 17.0959 6.76669C17.535 6.76669 17.9313 6.61677 18.2437 6.36949L18.2451 6.3684C18.6789 6.02658 18.9584 5.49692 18.9584 4.90419C18.9584 3.87007 18.13 3.04169 17.0959 3.04169ZM14.5277 2.74546C15.1349 2.01248 16.0618 1.54169 17.0959 1.54169C18.9584 1.54169 20.4584 3.04164 20.4584 4.90419C20.4584 5.97979 19.9495 6.93512 19.1734 7.54664C18.6059 7.99538 17.8845 8.26669 17.0959 8.26669C15.2334 8.26669 13.7334 6.76673 13.7334 4.90419C13.7334 4.111 14.0076 3.40159 14.4499 2.83124C14.4738 2.80045 14.4998 2.7718 14.5277 2.74546Z" fill="#9BA0B6"/>
<path fill-rule="evenodd" clip-rule="evenodd" d="M4.90425 3.04169C3.87013 3.04169 3.04175 3.87007 3.04175 4.90419C3.04175 5.49589 3.32026 6.02475 3.75282 6.36662C4.08032 6.61989 4.47011 6.76669 4.90425 6.76669C5.93837 6.76669 6.76675 5.93831 6.76675 4.90419C6.76675 4.47005 6.61995 4.08026 6.36669 3.75276C6.02481 3.3202 5.49595 3.04169 4.90425 3.04169ZM1.54175 4.90419C1.54175 3.04164 3.0417 1.54169 4.90425 1.54169C5.97985 1.54169 6.93518 2.05054 7.5467 2.8267L7.55026 2.83122L7.55025 2.83124C7.99257 3.40159 8.26675 4.111 8.26675 4.90419C8.26675 6.76673 6.7668 8.26669 4.90425 8.26669C4.11106 8.26669 3.40166 7.9925 2.8313 7.55019L2.82675 7.54666L2.82676 7.54664C2.05061 6.93512 1.54175 5.97979 1.54175 4.90419Z" fill="#9BA0B6"/>
<path fill-rule="evenodd" clip-rule="evenodd" d="M17.0959 15.2333C16.0618 15.2333 15.2334 16.0617 15.2334 17.0958C15.2334 17.5043 15.3631 17.8758 15.5803 18.1771C15.6034 18.2 15.6251 18.2245 15.6452 18.2506C15.9756 18.6782 16.502 18.9583 17.0959 18.9583C18.13 18.9583 18.9584 18.13 18.9584 17.0958C18.9584 16.5019 18.6782 15.9755 18.2506 15.6451C18.2261 15.6262 18.203 15.6059 18.1813 15.5844C17.8679 15.3613 17.5012 15.2333 17.0959 15.2333ZM13.7334 17.0958C13.7334 15.2333 15.2334 13.7333 17.0959 13.7333C17.8891 13.7333 18.5985 14.0075 19.1688 14.4498C19.1996 14.4737 19.2283 14.4998 19.2546 14.5277C19.9876 15.1348 20.4584 16.0617 20.4584 17.0958C20.4584 18.9584 18.9584 20.4583 17.0959 20.4583C16.0618 20.4583 15.1349 19.9875 14.5277 19.2546C14.5016 19.2299 14.4771 19.2032 14.4545 19.1747C14.0051 18.6071 13.7334 17.8851 13.7334 17.0958Z" fill="#9BA0B6"/>
<path fill-rule="evenodd" clip-rule="evenodd" d="M3.82302 15.5802C3.8001 15.6033 3.77557 15.625 3.7495 15.6451C3.32191 15.9755 3.04175 16.5019 3.04175 17.0958C3.04175 18.13 3.87013 18.9583 4.90425 18.9583C5.50182 18.9583 6.02736 18.6843 6.36492 18.2496C6.61926 17.9216 6.76675 17.531 6.76675 17.0958C6.76675 16.0617 5.93837 15.2333 4.90425 15.2333C4.49579 15.2333 4.1243 15.3631 3.82302 15.5802ZM2.82539 14.4545C3.39303 14.0051 4.115 13.7333 4.90425 13.7333C6.76679 13.7333 8.26675 15.2333 8.26675 17.0958C8.26675 17.889 7.99257 18.5984 7.55025 19.1688L7.55007 19.169C6.93429 19.9624 5.97491 20.4583 4.90425 20.4583C3.0417 20.4583 1.54175 18.9584 1.54175 17.0958C1.54175 16.0617 2.01254 15.1348 2.74552 14.5277C2.77017 14.5016 2.79683 14.4771 2.82539 14.4545Z" fill="#9BA0B6"/>
<path fill-rule="evenodd" clip-rule="evenodd" d="M8.01267 3.62403C8.17524 4.01569 8.26675 4.44596 8.26675 4.90419C8.26675 6.76673 6.76679 8.26669 4.90425 8.26669C4.44602 8.26669 4.01575 8.17518 3.62409 8.01261C3.24724 8.93473 3.04175 9.94258 3.04175 11C3.04175 12.0642 3.24702 13.0675 3.62377 13.9876C4.01551 13.8249 4.44589 13.7334 4.90425 13.7334C6.76679 13.7334 8.26675 15.2333 8.26675 17.0959C8.26675 17.5506 8.17651 17.9831 8.01405 18.3766C8.93579 18.7531 9.94317 18.9584 11.0001 18.9584C12.0642 18.9584 13.0676 18.7531 13.9876 18.3763C13.825 17.9846 13.7334 17.5542 13.7334 17.0959C13.7334 15.2333 15.2334 13.7334 17.0959 13.7334C17.5508 13.7334 17.9834 13.8236 18.377 13.9862C18.7533 13.0665 18.9584 12.0636 18.9584 11C18.9584 9.94258 18.7529 8.93473 18.3761 8.01261C17.9844 8.17518 17.5541 8.26669 17.0959 8.26669C15.2334 8.26669 13.7334 6.76673 13.7334 4.90419C13.7334 4.44926 13.8237 4.01669 13.9863 3.62314C13.0666 3.24676 12.0637 3.04169 11.0001 3.04169C9.94264 3.04169 8.93479 3.24718 8.01267 3.62403ZM6.6062 2.62826C7.92299 1.92996 9.41845 1.54169 11.0001 1.54169C12.5913 1.54169 14.0775 1.93015 15.394 2.62826C15.5907 2.73258 15.7309 2.91893 15.7766 3.13687C15.8223 3.35481 15.7688 3.58179 15.6306 3.75638C15.3833 4.06874 15.2334 4.4651 15.2334 4.90419C15.2334 5.93831 16.0618 6.76669 17.0959 6.76669C17.5311 6.76669 17.9217 6.6192 18.2496 6.36486C18.4246 6.2292 18.6505 6.17774 18.8669 6.22428C19.0833 6.27081 19.2681 6.41057 19.3718 6.60614C20.0701 7.92293 20.4584 9.41839 20.4584 11C20.4584 12.5912 20.0699 14.0775 19.3718 15.3939C19.2675 15.5906 19.0812 15.7308 18.8632 15.7765C18.6453 15.8223 18.4183 15.7688 18.2437 15.6306C17.9314 15.3833 17.535 15.2334 17.0959 15.2334C16.0618 15.2334 15.2334 16.0617 15.2334 17.0959C15.2334 17.531 15.3809 17.9216 15.6352 18.2496C15.7709 18.4245 15.8224 18.6504 15.7758 18.8668C15.7293 19.0833 15.5895 19.2681 15.394 19.3718C14.0775 20.0699 12.5913 20.4584 11.0001 20.4584C9.41845 20.4584 7.92299 20.0701 6.6062 19.3718C6.40948 19.2675 6.26928 19.0811 6.22356 18.8632C6.17784 18.6452 6.23133 18.4183 6.36955 18.2437C6.61683 17.9313 6.76675 17.5349 6.76675 17.0959C6.76675 16.0617 5.93837 15.2334 4.90425 15.2334C4.4691 15.2334 4.07851 15.3808 3.75053 15.6352C3.5756 15.7708 3.34968 15.8223 3.13326 15.7758C2.91684 15.7292 2.73203 15.5895 2.62832 15.3939C1.93022 14.0775 1.54175 12.5912 1.54175 11C1.54175 9.41839 1.93002 7.92293 2.62832 6.60614C2.73203 6.41057 2.91684 6.27081 3.13326 6.22428C3.34968 6.17774 3.5756 6.2292 3.75053 6.36486C4.07851 6.6192 4.4691 6.76669 4.90425 6.76669C5.93837 6.76669 6.76675 5.93831 6.76675 4.90419C6.76675 4.46904 6.61926 4.07845 6.36492 3.75047C6.22926 3.57554 6.17781 3.34962 6.22434 3.1332C6.27087 2.91678 6.41063 2.73197 6.6062 2.62826Z" fill="#9BA0B6"/>
</svg>
