<svg width="20" height="20" viewBox="0 0 20 20" fill="none" xmlns="http://www.w3.org/2000/svg">
<path fill-rule="evenodd" clip-rule="evenodd" d="M2.54194 3.40821C1.9298 3.97662 1.51261 4.90466 1.51261 6.37815V12.8487C1.51261 14.3222 1.9298 15.2503 2.54194 15.8187C3.16422 16.3965 4.10753 16.7143 5.37815 16.7143H14.6218C15.8925 16.7143 16.8358 16.3965 17.4581 15.8187C18.0702 15.2503 18.4874 14.3222 18.4874 12.8487V6.37815C18.4874 4.90466 18.0702 3.97662 17.4581 3.40821C16.8358 2.83037 15.8925 2.51261 14.6218 2.51261H5.37815C4.10753 2.51261 3.16422 2.83037 2.54194 3.40821ZM1.51268 2.29978C2.50805 1.37551 3.87566 1 5.37815 1H14.6218C16.1243 1 17.492 1.37551 18.4873 2.29978C19.4928 3.23347 20 4.61635 20 6.37815V12.8487C20 14.6105 19.4928 15.9934 18.4873 16.9271C17.492 17.8514 16.1243 18.2269 14.6218 18.2269H5.37815C3.87566 18.2269 2.50805 17.8514 1.51268 16.9271C0.507175 15.9934 0 14.6105 0 12.8487V6.37815C0 4.61635 0.507175 3.23347 1.51268 2.29978Z" fill="#9BA0B6"/>
<path fill-rule="evenodd" clip-rule="evenodd" d="M15.2127 6.36807C15.4734 6.69444 15.4202 7.17034 15.0938 7.43101L12.1996 9.74269C10.9718 10.7202 9.01886 10.7202 7.79107 9.74269L7.7892 9.7412L4.90517 7.43027C4.57921 7.16909 4.52671 6.69311 4.78789 6.36715C5.04908 6.04119 5.52505 5.98868 5.85102 6.24987L8.73402 8.55998C9.41042 9.09769 10.5808 9.09758 11.257 8.55965C11.2572 8.55954 11.2569 8.55977 11.257 8.55965L14.1498 6.24913C14.4762 5.98845 14.9521 6.04171 15.2127 6.36807Z" fill="#9BA0B6"/>
</svg>
