<svg width="20" height="20" viewBox="0 0 20 20" fill="none" xmlns="http://www.w3.org/2000/svg">
<path fill-rule="evenodd" clip-rule="evenodd" d="M9.75417 8.11669C8.43554 8.11669 7.37084 9.18139 7.37084 10.5C7.37084 11.8187 8.43554 12.8834 9.75417 12.8834C11.0728 12.8834 12.1375 11.8187 12.1375 10.5C12.1375 9.18139 11.0728 8.11669 9.75417 8.11669ZM6.17084 10.5C6.17084 8.51865 7.7728 6.91669 9.75417 6.91669C11.7355 6.91669 13.3375 8.51865 13.3375 10.5C13.3375 12.4814 11.7355 14.0834 9.75417 14.0834C7.7728 14.0834 6.17084 12.4814 6.17084 10.5Z" fill="white"/>
<path fill-rule="evenodd" clip-rule="evenodd" d="M1.6565 8.01091C3.64556 4.88421 6.55812 3 9.75417 3C12.9504 3 15.863 4.88437 17.8521 8.0113C18.3031 8.71827 18.5083 9.62526 18.5083 10.4958C18.5083 11.3666 18.303 12.2737 17.8518 12.9808C15.8628 16.1075 12.9502 17.9917 9.75417 17.9917C6.55798 17.9917 3.64532 16.1073 1.65625 12.9804C1.20526 12.2734 1 11.3664 1 10.4958C1 9.6251 1.20534 8.71794 1.6565 8.01091ZM9.75417 4.2C7.06702 4.2 4.49635 5.78229 2.66875 8.65537L2.66825 8.65615C2.36959 9.12407 2.2 9.79173 2.2 10.4958C2.2 11.1999 2.36959 11.8676 2.66825 12.3355L2.66876 12.3363C4.49635 15.2094 7.06702 16.7917 9.75417 16.7917C12.4413 16.7917 15.012 15.2094 16.8396 12.3363L16.8401 12.3355C17.1388 11.8676 17.3083 11.1999 17.3083 10.4958C17.3083 9.79173 17.1388 9.12407 16.8401 8.65615L16.8396 8.65537C15.012 5.78229 12.4413 4.2 9.75417 4.2Z" fill="white"/>
</svg>
