<svg width="20" height="20" viewBox="0 0 20 20" fill="none" xmlns="http://www.w3.org/2000/svg">
<path fill-rule="evenodd" clip-rule="evenodd" d="M2 4.78909C2 2.70691 3.69645 1 5.78909 1H13.2032C15.2966 1 16.9902 2.70681 17 4.78522L17 4.78909L17 15.6257C17 16.5008 16.6814 17.3264 15.948 17.7583C15.2143 18.1904 14.3382 18.0681 13.5737 17.6425C13.5735 17.6424 13.5739 17.6426 13.5737 17.6425L9.81357 15.5544C9.77216 15.5308 9.66192 15.4943 9.50288 15.4943C9.34465 15.4943 9.2292 15.5305 9.18046 15.5577L5.42597 17.6427L5.42339 17.6441C4.65799 18.0656 3.78337 18.1833 3.05202 17.7525C2.32004 17.3214 2 16.4992 2 15.6257V4.78909ZM5.78909 2.64074C4.60537 2.64074 3.64074 3.6103 3.64074 4.78909V15.6257C3.64074 16.1366 3.81677 16.2988 3.88465 16.3388C3.95311 16.3791 4.18177 16.4544 4.6307 16.2075C4.63113 16.2073 4.63156 16.2071 4.63198 16.2068L8.38131 14.1247C8.38146 14.1246 8.38116 14.1248 8.38131 14.1247C8.73241 13.9291 9.1402 13.8536 9.50288 13.8536C9.86347 13.8536 10.2705 13.928 10.6204 14.1257L14.3706 16.2083C14.8212 16.4592 15.0493 16.3834 15.1153 16.3445C15.1818 16.3054 15.3592 16.1427 15.3592 15.6257V4.79124C15.3527 3.60945 14.3856 2.64074 13.2032 2.64074H5.78909Z" fill="#EEEFF0"/>
<path fill-rule="evenodd" clip-rule="evenodd" d="M2.05127 4.78909C2.05127 2.73514 3.72485 1.05127 5.78909 1.05127H13.2032C15.2681 1.05127 16.939 2.73505 16.9487 4.78546L16.9487 4.78909L16.9487 15.6257C16.9487 16.4896 16.6345 17.2945 15.9219 17.7141C15.2091 18.134 14.3531 18.0178 13.5984 17.5976C13.5983 17.5975 13.5985 17.5976 13.5984 17.5976L9.83891 15.5098C9.78783 15.4808 9.66826 15.443 9.50288 15.443C9.33825 15.443 9.21367 15.4805 9.15549 15.5129L9.15427 15.5136L5.40107 17.5978L5.39865 17.5992C4.64311 18.0152 3.78867 18.1269 3.07804 17.7083C2.36681 17.2895 2.05127 16.4878 2.05127 15.6257V4.78909ZM5.78909 2.58947C4.57697 2.58947 3.58947 3.58207 3.58947 4.78909V15.6257C3.58947 16.1479 3.76999 16.3307 3.85863 16.3829C3.94778 16.4354 4.19665 16.5047 4.65554 16.2524C4.65593 16.2522 4.65632 16.252 4.65671 16.2518L8.40628 14.1695C8.40664 14.1693 8.407 14.1691 8.40737 14.1689C8.40741 14.1689 8.40732 14.1689 8.40737 14.1689C8.74884 13.9788 9.14685 13.9048 9.50288 13.9048C9.85719 13.9048 10.255 13.9781 10.5953 14.1704L14.3457 16.2531C14.8061 16.5095 15.0545 16.4399 15.1414 16.3887C15.2286 16.3373 15.4105 16.1539 15.4105 15.6257V4.79099C15.4039 3.58121 14.4141 2.58947 13.2032 2.58947H5.78909Z" fill="#EEEFF0"/>
</svg>
