<svg width="26" height="26" viewBox="0 0 26 26" fill="none" xmlns="http://www.w3.org/2000/svg">
<path d="M25 6H8C7.73478 6 7.48043 5.89464 7.29289 5.70711C7.10536 5.51957 7 5.26522 7 5C7 4.73478 7.10536 4.48043 7.29289 4.29289C7.48043 4.10536 7.73478 4 8 4H25C25.2652 4 25.5196 4.10536 25.7071 4.29289C25.8946 4.48043 26 4.73478 26 5C26 5.26522 25.8946 5.51957 25.7071 5.70711C25.5196 5.89464 25.2652 6 25 6Z" fill="black"/>
<path d="M4 6H1C0.734784 6 0.48043 5.89464 0.292893 5.70711C0.105357 5.51957 0 5.26522 0 5C0 4.73478 0.105357 4.48043 0.292893 4.29289C0.48043 4.10536 0.734784 4 1 4H4C4.26522 4 4.51957 4.10536 4.70711 4.29289C4.89464 4.48043 5 4.73478 5 5C5 5.26522 4.89464 5.51957 4.70711 5.70711C4.51957 5.89464 4.26522 6 4 6Z" fill="black"/>
<path d="M18 14H1C0.734784 14 0.48043 13.8946 0.292893 13.7071C0.105357 13.5196 0 13.2652 0 13C0 12.7348 0.105357 12.4804 0.292893 12.2929C0.48043 12.1054 0.734784 12 1 12H18C18.2652 12 18.5196 12.1054 18.7071 12.2929C18.8946 12.4804 19 12.7348 19 13C19 13.2652 18.8946 13.5196 18.7071 13.7071C18.5196 13.8946 18.2652 14 18 14Z" fill="black"/>
<path d="M8 22H1C0.734784 22 0.48043 21.8946 0.292893 21.7071C0.105357 21.5196 0 21.2652 0 21C0 20.7348 0.105357 20.4804 0.292893 20.2929C0.48043 20.1054 0.734784 20 1 20H8C8.26522 20 8.51957 20.1054 8.70711 20.2929C8.89464 20.4804 9 20.7348 9 21C9 21.2652 8.89464 21.5196 8.70711 21.7071C8.51957 21.8946 8.26522 22 8 22Z" fill="black"/>
<path d="M6 8C5.40666 8 4.82664 7.82405 4.33329 7.49441C3.83994 7.16477 3.45543 6.69623 3.22836 6.14805C3.0013 5.59987 2.94189 4.99667 3.05765 4.41473C3.1734 3.83279 3.45912 3.29824 3.87868 2.87868C4.29824 2.45912 4.83279 2.1734 5.41473 2.05765C5.99667 1.94189 6.59987 2.0013 7.14805 2.22836C7.69623 2.45543 8.16477 2.83994 8.49441 3.33329C8.82405 3.82664 9 4.40666 9 5C9 5.79565 8.68393 6.55871 8.12132 7.12132C7.55871 7.68393 6.79565 8 6 8ZM6 4C5.80222 4 5.60888 4.05865 5.44443 4.16853C5.27998 4.27841 5.15181 4.43459 5.07612 4.61732C5.00043 4.80004 4.98063 5.00111 5.01922 5.19509C5.0578 5.38907 5.15304 5.56726 5.29289 5.70711C5.43275 5.84696 5.61093 5.9422 5.80491 5.98079C5.99889 6.01937 6.19996 5.99957 6.38268 5.92388C6.56541 5.84819 6.72159 5.72002 6.83147 5.55557C6.94135 5.39112 7 5.19778 7 5C7 4.73478 6.89464 4.48043 6.70711 4.29289C6.51957 4.10536 6.26522 4 6 4Z" fill="black"/>
<path d="M20 16C19.4067 16 18.8266 15.8241 18.3333 15.4944C17.8399 15.1648 17.4554 14.6962 17.2284 14.1481C17.0013 13.5999 16.9419 12.9967 17.0576 12.4147C17.1734 11.8328 17.4591 11.2982 17.8787 10.8787C18.2982 10.4591 18.8328 10.1734 19.4147 10.0576C19.9967 9.94189 20.5999 10.0013 21.1481 10.2284C21.6962 10.4554 22.1648 10.8399 22.4944 11.3333C22.8241 11.8266 23 12.4067 23 13C23 13.7957 22.6839 14.5587 22.1213 15.1213C21.5587 15.6839 20.7957 16 20 16ZM20 12C19.8022 12 19.6089 12.0587 19.4444 12.1685C19.28 12.2784 19.1518 12.4346 19.0761 12.6173C19.0004 12.8 18.9806 13.0011 19.0192 13.1951C19.0578 13.3891 19.153 13.5673 19.2929 13.7071C19.4327 13.847 19.6109 13.9422 19.8049 13.9808C19.9989 14.0194 20.2 13.9996 20.3827 13.9239C20.5654 13.8482 20.7216 13.72 20.8315 13.5556C20.9414 13.3911 21 13.1978 21 13C21 12.7348 20.8946 12.4804 20.7071 12.2929C20.5196 12.1054 20.2652 12 20 12Z" fill="black"/>
<path d="M10 24C9.40666 24 8.82664 23.8241 8.33329 23.4944C7.83994 23.1648 7.45543 22.6962 7.22836 22.1481C7.0013 21.5999 6.94189 20.9967 7.05765 20.4147C7.1734 19.8328 7.45912 19.2982 7.87868 18.8787C8.29824 18.4591 8.83279 18.1734 9.41473 18.0576C9.99667 17.9419 10.5999 18.0013 11.1481 18.2284C11.6962 18.4554 12.1648 18.8399 12.4944 19.3333C12.8241 19.8266 13 20.4067 13 21C13 21.7957 12.6839 22.5587 12.1213 23.1213C11.5587 23.6839 10.7957 24 10 24ZM10 20C9.80222 20 9.60888 20.0586 9.44443 20.1685C9.27998 20.2784 9.15181 20.4346 9.07612 20.6173C9.00043 20.8 8.98063 21.0011 9.01922 21.1951C9.0578 21.3891 9.15304 21.5673 9.2929 21.7071C9.43275 21.847 9.61093 21.9422 9.80491 21.9808C9.99889 22.0194 10.2 21.9996 10.3827 21.9239C10.5654 21.8482 10.7216 21.72 10.8315 21.5556C10.9414 21.3911 11 21.1978 11 21C11 20.7348 10.8946 20.4804 10.7071 20.2929C10.5196 20.1054 10.2652 20 10 20Z" fill="black"/>
<path d="M25 14H22C21.7348 14 21.4804 13.8946 21.2929 13.7071C21.1054 13.5196 21 13.2652 21 13C21 12.7348 21.1054 12.4804 21.2929 12.2929C21.4804 12.1054 21.7348 12 22 12H25C25.2652 12 25.5196 12.1054 25.7071 12.2929C25.8946 12.4804 26 12.7348 26 13C26 13.2652 25.8946 13.5196 25.7071 13.7071C25.5196 13.8946 25.2652 14 25 14Z" fill="black"/>
<path d="M25 22H12C11.7348 22 11.4804 21.8946 11.2929 21.7071C11.1054 21.5196 11 21.2652 11 21C11 20.7348 11.1054 20.4804 11.2929 20.2929C11.4804 20.1054 11.7348 20 12 20H25C25.2652 20 25.5196 20.1054 25.7071 20.2929C25.8946 20.4804 26 20.7348 26 21C26 21.2652 25.8946 21.5196 25.7071 21.7071C25.5196 21.8946 25.2652 22 25 22Z" fill="black"/>
</svg>
