<svg width="20" height="20" viewBox="0 0 20 20" fill="none" xmlns="http://www.w3.org/2000/svg">
<path d="M10.35 17.2583C10.0667 17.3583 9.6 17.3583 9.31667 17.2583C6.9 16.4333 1.5 12.9917 1.5 7.15833C1.5 4.58333 3.575 2.5 6.13333 2.5C7.65 2.5 8.99167 3.23333 9.83333 4.36667C10.675 3.23333 12.025 2.5 13.5333 2.5C16.0917 2.5 18.1667 4.58333 18.1667 7.15833C18.1667 12.9917 12.7667 16.4333 10.35 17.2583Z" fill="white"/>
<path fill-rule="evenodd" clip-rule="evenodd" d="M6.13333 3C3.85348 3 2 4.85714 2 7.15833C2 9.90868 3.27045 12.1087 4.8599 13.7372C6.45538 15.3719 8.34163 16.3971 9.4782 16.7851L9.48309 16.7868C9.55459 16.8121 9.68158 16.8333 9.83333 16.8333C9.98509 16.8333 10.1121 16.8121 10.1836 16.7868L10.1885 16.7851C11.325 16.3971 13.2113 15.3719 14.8068 13.7372C16.3962 12.1087 17.6667 9.90868 17.6667 7.15833C17.6667 4.85714 15.8132 3 13.5333 3C12.1902 3 10.9863 3.65274 10.2347 4.66477C10.1404 4.79179 9.99154 4.86667 9.83333 4.86667C9.67512 4.86667 9.52625 4.79179 9.43192 4.66477C8.68003 3.65233 7.48431 3 6.13333 3ZM1 7.15833C1 4.30953 3.29652 2 6.13333 2C7.59146 2 8.90329 2.61173 9.83352 3.59139C10.7655 2.61147 12.0828 2 13.5333 2C16.3701 2 18.6667 4.30953 18.6667 7.15833C18.6667 10.2413 17.2371 12.6788 15.5224 14.4357C13.8147 16.1854 11.794 17.2932 10.5138 17.7308C10.3025 17.8048 10.0557 17.8333 9.83333 17.8333C9.61102 17.8333 9.36415 17.8048 9.15291 17.7308C7.8727 17.2932 5.85196 16.1854 4.14426 14.4357C2.42955 12.6788 1 10.2413 1 7.15833Z" fill="white"/>
</svg>
