<svg width="20" height="20" viewBox="0 0 20 20" fill="none" xmlns="http://www.w3.org/2000/svg">
<path fill-rule="evenodd" clip-rule="evenodd" d="M7.29583 2.5C5.66114 2.5 4.34583 3.82145 4.34583 5.45C4.34583 7.03339 5.5805 8.31759 7.14017 8.39052C7.23982 8.38391 7.34471 8.38356 7.44485 8.39044C9.00269 8.31669 10.2384 7.0335 10.2458 5.44847C10.245 3.82172 8.92277 2.5 7.29583 2.5ZM2.84583 5.45C2.84583 2.99522 4.83051 1 7.29583 1C9.75171 1 11.7458 2.99412 11.7458 5.45L11.7458 5.45312C11.7358 7.85352 9.84345 9.81094 7.45435 9.89124C7.42104 9.89236 7.38769 9.89126 7.35453 9.88794C7.32297 9.88479 7.27092 9.88414 7.22206 9.88859C7.19111 9.8914 7.16002 9.89229 7.12896 9.89124C4.74042 9.81096 2.84583 7.85337 2.84583 5.45Z" fill="#E1E1E1"/>
<path fill-rule="evenodd" clip-rule="evenodd" d="M12.7208 3.41669C12.7208 3.00247 13.0566 2.66669 13.4708 2.66669C15.5031 2.66669 17.1375 4.3122 17.1375 6.33335C17.1375 8.31381 15.5664 9.92616 13.6072 9.9995C13.5668 10.001 13.5263 9.99925 13.4861 9.99423C13.4866 9.99428 13.4824 9.99377 13.474 9.99377C13.4657 9.99377 13.4559 9.99426 13.4453 9.99543C13.0336 10.0412 12.6628 9.74452 12.6171 9.33284C12.5713 8.92116 12.868 8.55035 13.2797 8.50461C13.3821 8.49322 13.4899 8.49027 13.5972 8.49833C14.7331 8.43178 15.6375 7.48734 15.6375 6.33335C15.6375 5.13784 14.6719 4.16669 13.4708 4.16669C13.0566 4.16669 12.7208 3.8309 12.7208 3.41669Z" fill="#E1E1E1"/>
<path fill-rule="evenodd" clip-rule="evenodd" d="M7.43958 10.3229C9.06528 10.3229 10.7295 10.7306 12.0207 11.593C13.1849 12.368 13.8667 13.4653 13.8667 14.6594C13.8667 15.8534 13.1851 16.9526 12.0214 17.7316L12.0212 17.7317C10.7262 18.5982 9.05992 19.0084 7.43333 19.0084C5.80706 19.0084 4.14112 18.5984 2.84618 17.7322C1.68181 16.9572 1 15.8598 1 14.6656C1 13.4716 1.68161 12.3724 2.84529 11.5934L2.84804 11.5916L2.84804 11.5916C4.14648 10.7307 5.81365 10.3229 7.43958 10.3229ZM3.67835 12.8408C2.82638 13.4117 2.5 14.0871 2.5 14.6656C2.5 15.2441 2.82617 15.9173 3.67793 16.4839L3.67957 16.485C4.67619 17.1518 6.03492 17.5084 7.43333 17.5084C8.83175 17.5084 10.1905 17.1518 11.1871 16.485C12.04 15.914 12.3667 15.2383 12.3667 14.6594C12.3667 14.081 12.0405 13.4078 11.1887 12.8411L11.1876 12.8404C10.1955 12.1778 8.83888 11.8229 7.43958 11.8229C6.04117 11.8229 4.67979 12.1774 3.67835 12.8408Z" fill="#E1E1E1"/>
<path fill-rule="evenodd" clip-rule="evenodd" d="M14.3725 11.5851C14.4636 11.181 14.865 10.9273 15.269 11.0183C15.9401 11.1696 16.6032 11.4402 17.1651 11.8686C17.9762 12.478 18.4375 13.334 18.4375 14.2458C18.4375 15.1573 17.9765 16.013 17.1659 16.6224C16.5978 17.0577 15.9245 17.34 15.2321 17.4842C14.8266 17.5687 14.4294 17.3085 14.3449 16.9029C14.2604 16.4974 14.5207 16.1002 14.9262 16.0157C15.4325 15.9103 15.8912 15.71 16.2557 15.4301L16.2625 15.4249L16.2625 15.425C16.7498 15.0595 16.9375 14.6247 16.9375 14.2458C16.9375 13.8669 16.7498 13.4321 16.2625 13.0666L16.2573 13.0627L16.2573 13.0627C15.9031 12.7922 15.4505 12.5968 14.9393 12.4816C14.5352 12.3906 14.2814 11.9892 14.3725 11.5851Z" fill="#E1E1E1"/>
</svg>
