<svg width="20" height="20" viewBox="0 0 20 20" fill="none" xmlns="http://www.w3.org/2000/svg">
<g clip-path="url(#clip0_23_100)">
<path fill-rule="evenodd" clip-rule="evenodd" d="M0.916656 10C0.916656 5.00247 5.00244 0.916687 9.99999 0.916687C14.9975 0.916687 19.0833 5.00247 19.0833 10C19.0833 14.9976 14.9975 19.0834 9.99999 19.0834C5.00244 19.0834 0.916656 14.9976 0.916656 10ZM9.99999 2.41669C5.83087 2.41669 2.41666 5.8309 2.41666 10C2.41666 14.1691 5.83087 17.5834 9.99999 17.5834C14.1691 17.5834 17.5833 14.1691 17.5833 10C17.5833 5.8309 14.1691 2.41669 9.99999 2.41669Z" fill="#9BA0B6"/>
<path fill-rule="evenodd" clip-rule="evenodd" d="M10 5.91669C10.4142 5.91669 10.75 6.25247 10.75 6.66669V10.8334C10.75 11.2476 10.4142 11.5834 10 11.5834C9.58579 11.5834 9.25 11.2476 9.25 10.8334V6.66669C9.25 6.25247 9.58579 5.91669 10 5.91669Z" fill="#9BA0B6"/>
<path fill-rule="evenodd" clip-rule="evenodd" d="M8.99542 13.3333C8.99542 12.781 9.44314 12.3333 9.99542 12.3333H10.0029C10.5552 12.3333 11.0029 12.781 11.0029 13.3333C11.0029 13.8856 10.5552 14.3333 10.0029 14.3333H9.99542C9.44314 14.3333 8.99542 13.8856 8.99542 13.3333Z" fill="#9BA0B6"/>
</g>
<defs>
<clipPath id="clip0_23_100">
<rect width="20" height="20" fill="white"/>
</clipPath>
</defs>
</svg>
