<svg width="20" height="20" viewBox="0 0 20 20" fill="none" xmlns="http://www.w3.org/2000/svg">
<path fill-rule="evenodd" clip-rule="evenodd" d="M1 1.75C1 1.33579 1.33579 1 1.75 1H3.2C4.21508 1 5.06505 1.66067 5.36907 2.55833H15.6917C17.5164 2.55833 18.913 4.05056 18.7814 5.87075L18.3314 12.1205L18.3311 12.1242C18.2097 13.7028 16.8373 14.9917 15.2417 14.9917H6.36666C4.56336 14.9917 3.14044 13.4519 3.29433 11.6535C3.29436 11.6531 3.2943 11.6538 3.29433 11.6535L3.98593 3.35438C4.02422 2.89912 3.65993 2.5 3.2 2.5H1.75C1.33579 2.5 1 2.16421 1 1.75ZM5.43246 4.05833L4.78908 11.7789L4.78892 11.7808C4.71008 12.6987 5.43697 13.4917 6.36666 13.4917H15.2417C16.0454 13.4917 16.7727 12.8148 16.8354 12.0108C16.8355 12.0102 16.8355 12.0097 16.8355 12.0091L17.2853 5.76281C17.3537 4.81633 16.6503 4.05833 15.6917 4.05833H5.43246Z" fill="#E1E1E1"/>
<path fill-rule="evenodd" clip-rule="evenodd" d="M13.625 17.0833C13.4639 17.0833 13.3333 17.2139 13.3333 17.375C13.3333 17.5361 13.4639 17.6666 13.625 17.6666C13.7861 17.6666 13.9167 17.5361 13.9167 17.375C13.9167 17.2139 13.7861 17.0833 13.625 17.0833ZM11.8333 17.375C11.8333 16.3855 12.6355 15.5833 13.625 15.5833C14.6145 15.5833 15.4167 16.3855 15.4167 17.375C15.4167 18.3645 14.6145 19.1666 13.625 19.1666C12.6355 19.1666 11.8333 18.3645 11.8333 17.375Z" fill="#E1E1E1"/>
<path fill-rule="evenodd" clip-rule="evenodd" d="M6.95834 17.0833C6.79726 17.0833 6.66667 17.2139 6.66667 17.375C6.66667 17.5361 6.79726 17.6666 6.95834 17.6666C7.11942 17.6666 7.25 17.5361 7.25 17.375C7.25 17.2139 7.11942 17.0833 6.95834 17.0833ZM5.16667 17.375C5.16667 16.3855 5.96883 15.5833 6.95834 15.5833C7.94785 15.5833 8.75 16.3855 8.75 17.375C8.75 18.3645 7.94785 19.1666 6.95834 19.1666C5.96883 19.1666 5.16667 18.3645 5.16667 17.375Z" fill="#E1E1E1"/>
<path fill-rule="evenodd" clip-rule="evenodd" d="M6.83333 6.75C6.83333 6.33579 7.16911 6 7.58333 6H17.5833C17.9975 6 18.3333 6.33579 18.3333 6.75C18.3333 7.16421 17.9975 7.5 17.5833 7.5H7.58333C7.16911 7.5 6.83333 7.16421 6.83333 6.75Z" fill="#E1E1E1"/>
</svg>
