<svg width="20" height="20" viewBox="0 0 20 20" fill="none" xmlns="http://www.w3.org/2000/svg">
<path fill-rule="evenodd" clip-rule="evenodd" d="M1.83692 1.83692C2.43828 1.23556 3.27995 1 4.22018 1H5.87156C6.8118 1 7.65346 1.23556 8.25482 1.83692C8.85618 2.43828 9.09174 3.27995 9.09174 4.22018V5.87156C9.09174 6.8118 8.85618 7.65346 8.25482 8.25482C7.65346 8.85618 6.8118 9.09174 5.87156 9.09174H4.22018C3.27995 9.09174 2.43828 8.85618 1.83692 8.25482C1.23556 7.65346 1 6.8118 1 5.87156V4.22018C1 3.27995 1.23556 2.43828 1.83692 1.83692ZM2.88785 2.88785C2.66352 3.11218 2.48624 3.50904 2.48624 4.22018V5.87156C2.48624 6.5827 2.66352 6.97956 2.88785 7.20389C3.11218 7.42822 3.50904 7.6055 4.22018 7.6055H5.87156C6.5827 7.6055 6.97956 7.42822 7.20389 7.20389C7.42822 6.97956 7.6055 6.5827 7.6055 5.87156V4.22018C7.6055 3.50904 7.42822 3.11218 7.20389 2.88785C6.97956 2.66352 6.5827 2.48624 5.87156 2.48624H4.22018C3.50904 2.48624 3.11218 2.66352 2.88785 2.88785Z" fill="#9BA0B6"/>
<path fill-rule="evenodd" clip-rule="evenodd" d="M11.7452 1.83692C12.3465 1.23556 13.1882 1 14.1284 1H15.7798C16.7201 1 17.5617 1.23556 18.1631 1.83692C18.7644 2.43828 19 3.27995 19 4.22018V5.87156C19 6.8118 18.7644 7.65346 18.1631 8.25482C17.5617 8.85618 16.7201 9.09174 15.7798 9.09174H14.1284C13.1882 9.09174 12.3465 8.85618 11.7452 8.25482C11.1438 7.65346 10.9083 6.8118 10.9083 5.87156V4.22018C10.9083 3.27995 11.1438 2.43828 11.7452 1.83692ZM12.7961 2.88785C12.5718 3.11218 12.3945 3.50904 12.3945 4.22018V5.87156C12.3945 6.5827 12.5718 6.97956 12.7961 7.20389C13.0204 7.42822 13.4173 7.6055 14.1284 7.6055H15.7798C16.491 7.6055 16.8878 7.42822 17.1122 7.20389C17.3365 6.97956 17.5138 6.5827 17.5138 5.87156V4.22018C17.5138 3.50904 17.3365 3.11218 17.1122 2.88785C16.8878 2.66352 16.491 2.48624 15.7798 2.48624H14.1284C13.4173 2.48624 13.0204 2.66352 12.7961 2.88785Z" fill="#9BA0B6"/>
<path fill-rule="evenodd" clip-rule="evenodd" d="M11.7452 11.7452C12.3465 11.1438 13.1882 10.9083 14.1284 10.9083H15.7798C16.7201 10.9083 17.5617 11.1438 18.1631 11.7452C18.7644 12.3465 19 13.1882 19 14.1284V15.7798C19 16.7201 18.7644 17.5617 18.1631 18.1631C17.5617 18.7644 16.7201 19 15.7798 19H14.1284C13.1882 19 12.3465 18.7644 11.7452 18.1631C11.1438 17.5617 10.9083 16.7201 10.9083 15.7798V14.1284C10.9083 13.1882 11.1438 12.3465 11.7452 11.7452ZM12.7961 12.7961C12.5718 13.0204 12.3945 13.4173 12.3945 14.1284V15.7798C12.3945 16.491 12.5718 16.8878 12.7961 17.1122C13.0204 17.3365 13.4173 17.5138 14.1284 17.5138H15.7798C16.491 17.5138 16.8878 17.3365 17.1122 17.1122C17.3365 16.8878 17.5138 16.491 17.5138 15.7798V14.1284C17.5138 13.4173 17.3365 13.0204 17.1122 12.7961C16.8878 12.5718 16.491 12.3945 15.7798 12.3945H14.1284C13.4173 12.3945 13.0204 12.5718 12.7961 12.7961Z" fill="#9BA0B6"/>
<path fill-rule="evenodd" clip-rule="evenodd" d="M1.83692 11.7452C2.43828 11.1438 3.27995 10.9083 4.22018 10.9083H5.87156C6.8118 10.9083 7.65346 11.1438 8.25482 11.7452C8.85618 12.3465 9.09174 13.1882 9.09174 14.1284V15.7798C9.09174 16.7201 8.85618 17.5617 8.25482 18.1631C7.65346 18.7644 6.8118 19 5.87156 19H4.22018C3.27995 19 2.43828 18.7644 1.83692 18.1631C1.23556 17.5617 1 16.7201 1 15.7798V14.1284C1 13.1882 1.23556 12.3465 1.83692 11.7452ZM2.88785 12.7961C2.66352 13.0204 2.48624 13.4173 2.48624 14.1284V15.7798C2.48624 16.491 2.66352 16.8878 2.88785 17.1122C3.11218 17.3365 3.50904 17.5138 4.22018 17.5138H5.87156C6.5827 17.5138 6.97956 17.3365 7.20389 17.1122C7.42822 16.8878 7.6055 16.491 7.6055 15.7798V14.1284C7.6055 13.4173 7.42822 13.0204 7.20389 12.7961C6.97956 12.5718 6.5827 12.3945 5.87156 12.3945H4.22018C3.50904 12.3945 3.11218 12.5718 2.88785 12.7961Z" fill="#9BA0B6"/>
</svg>
