<svg width="20" height="20" viewBox="0 0 20 20" fill="none" xmlns="http://www.w3.org/2000/svg">
<g clip-path="url(#clip0_23_109)">
<path fill-rule="evenodd" clip-rule="evenodd" d="M12.9019 1.8097C13.0377 2.13833 13.0917 2.525 13.0917 2.93336V8.18336H14.9167C15.5933 8.18336 16.3749 8.39004 16.694 9.09654C17.0131 9.80325 16.6507 10.5249 16.204 11.0296C16.2037 11.03 16.2034 11.0303 16.2031 11.0306L9.89632 18.1956C9.62654 18.5018 9.33049 18.7564 9.01184 18.9135C8.69001 19.0723 8.28673 19.1565 7.8812 19.0043C7.47525 18.8519 7.22709 18.5226 7.0898 18.1903C6.95401 17.8617 6.90001 17.475 6.90001 17.0667V11.8167H5.07501C4.40318 11.8167 3.6239 11.6125 3.3044 10.9076C2.98566 10.2043 3.34285 9.4829 3.7836 8.97508L3.78703 8.97113L10.0954 1.80448C10.3652 1.49825 10.6612 1.24366 10.9799 1.0865C11.3017 0.927769 11.705 0.843544 12.1105 0.995791C12.5164 1.14819 12.7646 1.47744 12.9019 1.8097ZM11.2211 2.7958C11.221 2.79587 11.2212 2.79572 11.2211 2.7958L4.91481 9.96015C4.79621 10.0971 4.73576 10.2025 4.70703 10.2709C4.77702 10.2937 4.89525 10.3167 5.07501 10.3167H7.65001C8.06423 10.3167 8.40001 10.6525 8.40001 11.0667V17.0667C8.40001 17.2673 8.41932 17.4121 8.44286 17.5108C8.52622 17.4521 8.63707 17.3558 8.77038 17.2045L15.0787 10.0378L15.0802 10.0361C15.1993 9.90169 15.2603 9.79786 15.2896 9.73025C15.2189 9.70695 15.099 9.68336 14.9167 9.68336H12.3417C11.9275 9.68336 11.5917 9.34757 11.5917 8.93336V2.93336C11.5917 2.73274 11.5724 2.58791 11.5488 2.48924C11.4655 2.54792 11.3544 2.64451 11.2211 2.7958ZM8.49613 17.6579C8.49612 17.6579 8.49586 17.6576 8.49538 17.6569Z" fill="#E1E1E1"/>
</g>
<defs>
<clipPath id="clip0_23_109">
<rect width="20" height="20" fill="white"/>
</clipPath>
</defs>
</svg>
