<svg width="20" height="20" viewBox="0 0 20 20" fill="none" xmlns="http://www.w3.org/2000/svg">
<g clip-path="url(#clip0_23_116)">
<path fill-rule="evenodd" clip-rule="evenodd" d="M3.03032 5.53035C2.64383 5.91684 2.41666 6.66133 2.41666 8.33335V11.6667C2.41666 13.3387 2.64383 14.0832 3.03032 14.4697C3.41681 14.8562 4.1613 15.0834 5.83332 15.0834H10.8333C12.5054 15.0834 13.2498 14.8562 13.6363 14.4697C14.0228 14.0832 14.25 13.3387 14.25 11.6667V8.33335C14.25 6.66133 14.0228 5.91684 13.6363 5.53035C13.2498 5.14386 12.5054 4.91669 10.8333 4.91669H5.83332C4.1613 4.91669 3.41681 5.14386 3.03032 5.53035ZM1.96966 4.46969C2.83317 3.60618 4.17202 3.41669 5.83332 3.41669H10.8333C12.4946 3.41669 13.8335 3.60618 14.697 4.46969C15.5605 5.3332 15.75 6.67205 15.75 8.33335V11.6667C15.75 13.328 15.5605 14.6668 14.697 15.5304C13.8335 16.3939 12.4946 16.5834 10.8333 16.5834H5.83332C4.17202 16.5834 2.83317 16.3939 1.96966 15.5304C1.10615 14.6668 0.916656 13.328 0.916656 11.6667V8.33335C0.916656 6.67205 1.10615 5.3332 1.96966 4.46969Z" fill="#E1E1E1"/>
<path fill-rule="evenodd" clip-rule="evenodd" d="M16.3333 7.91669C16.3333 7.50247 16.6691 7.16669 17.0833 7.16669C17.7147 7.16669 18.3826 7.25326 18.7771 7.77919C18.9658 8.03079 19.0306 8.30758 19.058 8.52679C19.0835 8.73025 19.0834 8.95341 19.0833 9.14231C19.0833 9.1505 19.0833 9.15863 19.0833 9.16669V10.8334C19.0833 10.8414 19.0833 10.8495 19.0833 10.8577C19.0834 11.0466 19.0835 11.2698 19.058 11.4733C19.0306 11.6925 18.9658 11.9693 18.7771 12.2209C18.3826 12.7468 17.7147 12.8334 17.0833 12.8334C16.6691 12.8334 16.3333 12.4976 16.3333 12.0834C16.3333 11.6691 16.6691 11.3334 17.0833 11.3334C17.3373 11.3334 17.4863 11.3132 17.5689 11.2926C17.5691 11.2909 17.5694 11.2891 17.5696 11.2872C17.5821 11.187 17.5833 11.0561 17.5833 10.8334V9.16669C17.5833 8.94391 17.5821 8.81305 17.5696 8.71284C17.5694 8.71098 17.5691 8.70916 17.5689 8.70739C17.4863 8.68681 17.3373 8.66669 17.0833 8.66669C16.6691 8.66669 16.3333 8.3309 16.3333 7.91669Z" fill="#E1E1E1"/>
</g>
<defs>
<clipPath id="clip0_23_116">
<rect width="20" height="20" fill="white"/>
</clipPath>
</defs>
</svg>
