<svg width="20" height="20" viewBox="0 0 20 20" fill="none" xmlns="http://www.w3.org/2000/svg">
<g clip-path="url(#clip0_23_114)">
<path fill-rule="evenodd" clip-rule="evenodd" d="M7.82034 3.11908C6.60258 3.04295 5.39891 3.41403 4.43541 4.16264C3.47191 4.91124 2.81486 5.98585 2.58766 7.18465C2.36046 8.38345 2.57875 9.62396 3.20153 10.6732C3.28924 10.821 3.31224 10.9983 3.26511 11.1636L2.78793 12.8371L4.46144 12.3599C4.62669 12.3128 4.80406 12.3358 4.95183 12.4235C6.00106 13.0463 7.24157 13.2646 8.44037 13.0374C9.63917 12.8102 10.7138 12.1531 11.4624 11.1896C12.211 10.2261 12.5821 9.02245 12.5059 7.80468C12.4298 6.58692 11.9117 5.43885 11.0489 4.57608C10.1862 3.71331 9.0381 3.19521 7.82034 3.11908ZM3.66849 3.17555C4.87249 2.24009 6.3766 1.77638 7.89833 1.87151C9.42006 1.96664 10.8547 2.61407 11.9328 3.69219C13.011 4.77032 13.6584 6.20496 13.7535 7.72669C13.8486 9.24842 13.3849 10.7525 12.4495 11.9565C11.514 13.1605 10.1712 13.9816 8.67313 14.2655C7.26534 14.5323 5.81152 14.3075 4.5533 13.6335L2.85889 14.1167L2.85667 14.1173C2.66965 14.1699 2.472 14.1717 2.28405 14.1226C2.09609 14.0735 1.92461 13.9752 1.78724 13.8378C1.64987 13.7004 1.55157 13.5289 1.50244 13.341C1.45331 13.153 1.45513 12.9554 1.50771 12.7684L1.50834 12.7661L1.99149 11.0717C1.31754 9.8135 1.09272 8.35968 1.35952 6.95189C1.64343 5.45386 2.46448 4.11101 3.66849 3.17555Z" fill="#E1E1E1"/>
<path fill-rule="evenodd" clip-rule="evenodd" d="M12.1805 6.22506C12.1986 5.88036 12.4927 5.61559 12.8374 5.63369C13.9112 5.69006 14.9522 6.02283 15.8595 6.59975C16.7669 7.17668 17.5098 7.97819 18.0163 8.92663C18.5229 9.87507 18.7758 10.9383 18.7507 12.0132C18.7277 12.9962 18.4729 13.9584 18.0087 14.8222L18.4923 16.5184C18.5449 16.7054 18.5467 16.903 18.4976 17.091C18.4484 17.2789 18.3501 17.4504 18.2128 17.5878C18.0754 17.7251 17.9039 17.8235 17.716 17.8726C17.528 17.9217 17.3303 17.9199 17.1433 17.8673L17.1411 17.8667L15.447 17.3836C14.7149 17.7764 13.9109 18.0195 13.082 18.0977C12.1616 18.1845 11.2334 18.0658 10.3645 17.7501C9.49555 17.4344 8.70759 16.9297 8.05752 16.2723C7.40745 15.615 6.91151 14.8214 6.60552 13.9491C6.49128 13.6233 6.66272 13.2667 6.98844 13.1524C7.31416 13.0382 7.67083 13.2096 7.78507 13.5353C8.02978 14.233 8.42641 14.8677 8.94631 15.3934C9.4662 15.9191 10.0964 16.3227 10.7913 16.5752C11.4862 16.8277 12.2285 16.9226 12.9646 16.8532C13.7007 16.7838 14.4122 16.5517 15.0477 16.1738L15.3672 16.711L15.5386 16.1099L17.2121 16.5871L16.7349 14.9136C16.6877 14.748 16.7109 14.5703 16.799 14.4223C17.2391 13.6836 17.4809 12.8437 17.501 11.984C17.5211 11.1243 17.3188 10.274 16.9137 9.5155C16.5086 8.75699 15.9145 8.11597 15.1888 7.65458C14.4632 7.19318 13.6306 6.92705 12.7719 6.88197C12.4272 6.86387 12.1624 6.56977 12.1805 6.22506Z" fill="#E1E1E1"/>
</g>
<defs>
<clipPath id="clip0_23_114">
<rect width="20" height="20" fill="white"/>
</clipPath>
</defs>
</svg>
