<svg width="20" height="20" viewBox="0 0 20 20" fill="none" xmlns="http://www.w3.org/2000/svg">
<g clip-path="url(#clip0_23_108)">
<path fill-rule="evenodd" clip-rule="evenodd" d="M8.12499 1.875C8.47016 1.875 8.74999 2.15482 8.74999 2.5V7.33229C8.74852 7.55168 8.69074 7.76701 8.58219 7.95767L8.57498 7.97L3.60698 16.25H16.393L11.425 7.97L11.4178 7.95767C11.3092 7.76701 11.2515 7.55168 11.25 7.33229L11.25 7.32812L11.25 2.5C11.25 2.15482 11.5298 1.875 11.875 1.875C12.2202 1.875 12.5 2.15482 12.5 2.5V7.32469C12.5001 7.32893 12.5011 7.3331 12.5029 7.33694L17.4663 15.6093C17.5791 15.7983 17.64 16.0137 17.6429 16.2337C17.6458 16.4537 17.5905 16.6706 17.4827 16.8624C17.3749 17.0542 17.2184 17.2142 17.0289 17.3262C16.8395 17.4381 16.6239 17.4981 16.4038 17.5L16.3984 17.5L3.59613 17.5C3.3761 17.4981 3.16047 17.4381 2.97103 17.3262C2.78159 17.2142 2.62506 17.0542 2.51725 16.8624C2.40945 16.6706 2.35419 16.4537 2.35707 16.2337C2.35995 16.0137 2.42085 15.7983 2.53363 15.6094L2.53437 15.6081L7.49708 7.33693C7.49887 7.3331 7.49986 7.32894 7.49999 7.3247V2.5C7.49999 2.15482 7.77981 1.875 8.12499 1.875Z" fill="#E1E1E1"/>
<path fill-rule="evenodd" clip-rule="evenodd" d="M6.25 2.5C6.25 2.15482 6.52982 1.875 6.875 1.875H13.125C13.4702 1.875 13.75 2.15482 13.75 2.5C13.75 2.84518 13.4702 3.125 13.125 3.125H6.875C6.52982 3.125 6.25 2.84518 6.25 2.5Z" fill="#E1E1E1"/>
<path fill-rule="evenodd" clip-rule="evenodd" d="M9.72056 13.6841C7.27027 12.4628 5.94667 12.8886 5.26153 13.3937C4.9837 13.5985 4.59242 13.5394 4.38758 13.2615C4.18274 12.9837 4.24191 12.5924 4.51974 12.3876C5.6783 11.5334 7.5264 11.1936 10.2788 12.5657L10.2801 12.5663C11.6036 13.2299 12.5953 13.4022 13.3221 13.353C14.0408 13.3044 14.5453 13.0365 14.8997 12.735C15.1626 12.5113 15.557 12.543 15.7807 12.8059C16.0044 13.0688 15.9726 13.4633 15.7097 13.687C15.1735 14.1432 14.4201 14.5316 13.4064 14.6002C12.401 14.6682 11.1859 14.4187 9.72056 13.6841Z" fill="#E1E1E1"/>
</g>
<defs>
<clipPath id="clip0_23_108">
<rect width="20" height="20" fill="white"/>
</clipPath>
</defs>
</svg>
