<svg width="20" height="20" viewBox="0 0 20 20" fill="none" xmlns="http://www.w3.org/2000/svg">
<path fill-rule="evenodd" clip-rule="evenodd" d="M4.28918 3.40617C3.78387 3.95035 3.5 4.78164 3.5 5.91667V14.25C3.5 15.385 3.78387 16.2163 4.28918 16.7605C4.78515 17.2946 5.60128 17.6667 6.91667 17.6667H13.5833C14.8987 17.6667 15.7149 17.2946 16.2108 16.7605C16.7161 16.2163 17 15.385 17 14.25V5.91667C17 4.78164 16.7161 3.95035 16.2108 3.40617C15.7149 2.87205 14.8987 2.5 13.5833 2.5H6.91667C5.60128 2.5 4.78515 2.87205 4.28918 3.40617ZM3.18999 2.38549C4.04819 1.46128 5.31538 1 6.91667 1H13.5833C15.1846 1 16.4518 1.46128 17.31 2.38549C18.1589 3.29965 18.5 4.5517 18.5 5.91667V14.25C18.5 15.615 18.1589 16.867 17.31 17.7812C16.4518 18.7054 15.1846 19.1667 13.5833 19.1667H6.91667C5.31538 19.1667 4.04819 18.7054 3.18999 17.7812C2.34113 16.867 2 15.615 2 14.25V5.91667C2 4.5517 2.34113 3.29965 3.18999 2.38549Z" fill="#E1E1E1"/>
<path fill-rule="evenodd" clip-rule="evenodd" d="M12.3333 3.08331C12.7476 3.08331 13.0833 3.4191 13.0833 3.83331V5.49998C13.0833 6.00243 13.4976 6.41665 14 6.41665H15.6667C16.0809 6.41665 16.4167 6.75243 16.4167 7.16665C16.4167 7.58086 16.0809 7.91665 15.6667 7.91665H14C12.6691 7.91665 11.5833 6.83086 11.5833 5.49998V3.83331C11.5833 3.4191 11.9191 3.08331 12.3333 3.08331Z" fill="#E1E1E1"/>
<path fill-rule="evenodd" clip-rule="evenodd" d="M6.16666 10.9167C6.16666 10.5025 6.50244 10.1667 6.91666 10.1667H10.25C10.6642 10.1667 11 10.5025 11 10.9167C11 11.3309 10.6642 11.6667 10.25 11.6667H6.91666C6.50244 11.6667 6.16666 11.3309 6.16666 10.9167Z" fill="#E1E1E1"/>
<path fill-rule="evenodd" clip-rule="evenodd" d="M6.16666 14.2501C6.16666 13.8358 6.50244 13.5001 6.91666 13.5001H13.5833C13.9975 13.5001 14.3333 13.8358 14.3333 14.2501C14.3333 14.6643 13.9975 15.0001 13.5833 15.0001H6.91666C6.50244 15.0001 6.16666 14.6643 6.16666 14.2501Z" fill="#E1E1E1"/>
</svg>
