<svg width="20" height="20" viewBox="0 0 20 20" fill="none" xmlns="http://www.w3.org/2000/svg">
<path fill-rule="evenodd" clip-rule="evenodd" d="M2.32349 8.68335C2.7377 8.68335 3.07349 9.01914 3.07349 9.43335V13.175C3.07349 14.9715 3.43811 16.0352 4.07152 16.6686C4.70494 17.3021 5.7687 17.6667 7.56515 17.6667H12.0568C13.8533 17.6667 14.917 17.3021 15.5504 16.6686C16.1839 16.0352 16.5485 14.9715 16.5485 13.175V9.43335C16.5485 9.01914 16.8843 8.68335 17.2985 8.68335C17.7127 8.68335 18.0485 9.01914 18.0485 9.43335V13.175C18.0485 15.1202 17.6631 16.6773 16.6111 17.7293C15.5591 18.7813 14.002 19.1667 12.0568 19.1667H7.56515C5.61994 19.1667 4.06287 18.7813 3.01086 17.7293C1.95886 16.6773 1.57349 15.1202 1.57349 13.175V9.43335C1.57349 9.01914 1.90927 8.68335 2.32349 8.68335Z" fill="#E1E1E1"/>
<path fill-rule="evenodd" clip-rule="evenodd" d="M7.12718 1.67515C7.16563 1.29185 7.48821 1 7.87344 1H11.7651C12.1508 1 12.4736 1.29247 12.5115 1.67626L13.0615 7.24292C13.2547 9.20732 11.7851 10.8333 9.81511 10.8333C7.84516 10.8333 6.37549 9.20764 6.56871 7.24325L7.12718 1.67515ZM8.55198 2.5L8.06151 7.39008C8.06148 7.3903 8.06153 7.38986 8.06151 7.39008C7.9551 8.47538 8.73527 9.33333 9.81511 9.33333C10.8951 9.33333 11.6753 8.47586 11.5687 7.39041C11.5687 7.3903 11.5688 7.39052 11.5687 7.39041L11.0856 2.5H8.55198Z" fill="#E1E1E1"/>
<path fill-rule="evenodd" clip-rule="evenodd" d="M11.1758 1.24671C11.3179 1.08962 11.5199 1 11.7318 1H14.2735C15.442 1 16.425 1.21971 17.147 1.88657C17.859 2.5443 18.1754 3.50875 18.3331 4.64714C18.3343 4.65608 18.3354 4.66505 18.3363 4.67403L18.5698 6.96741C18.7802 9.08229 17.2019 10.8333 15.0735 10.8333C13.3142 10.8333 11.7502 9.42609 11.5691 7.66853L11.5689 7.66619L10.9855 1.82452C10.9645 1.61369 11.0336 1.40379 11.1758 1.24671ZM12.5604 2.5L13.0612 7.5148C13.0612 7.51516 13.0613 7.51551 13.0613 7.51587C13.1641 8.50783 14.0832 9.33333 15.0735 9.33333C16.3115 9.33333 17.1997 8.35148 17.0773 7.11675C17.0772 7.11648 17.0773 7.11703 17.0773 7.11675L16.8454 4.83972C16.7027 3.82002 16.4532 3.28775 16.1292 2.98843C15.8136 2.69696 15.2883 2.5 14.2735 2.5H12.5604Z" fill="#E1E1E1"/>
<path fill-rule="evenodd" clip-rule="evenodd" d="M2.43333 1.88657C3.15528 1.21971 4.13831 1 5.30681 1H7.84848C8.06037 1 8.26238 1.08963 8.40457 1.24675C8.54675 1.40386 8.61584 1.61378 8.59475 1.82463L8.01164 7.66405C8.01161 7.66437 8.01167 7.66373 8.01164 7.66405C7.84029 9.42575 6.27321 10.8333 4.51514 10.8333C2.38691 10.8333 0.808656 9.08259 1.01877 6.96794C1.01879 6.96776 1.01876 6.96812 1.01877 6.96794L1.24373 4.67672C1.2447 4.66683 1.24587 4.65697 1.24723 4.64714C1.40485 3.50875 1.72126 2.5443 2.43333 1.88657ZM2.73507 4.8384L2.51155 7.11495C2.38866 8.35007 3.27689 9.33333 4.51514 9.33333C5.50675 9.33333 6.42285 8.50714 6.51864 7.51928L6.51883 7.51737L7.01974 2.5H5.30681C4.29197 2.5 3.76667 2.69696 3.45112 2.98843C3.12722 3.28762 2.87779 3.81956 2.73507 4.8384Z" fill="#E1E1E1"/>
<path fill-rule="evenodd" clip-rule="evenodd" d="M7.72127 14.2395C8.25898 13.7018 9.00484 13.5 9.81514 13.5C10.6254 13.5 11.3713 13.7018 11.909 14.2395C12.4467 14.7772 12.6485 15.523 12.6485 16.3333V18.4167C12.6485 18.8309 12.3127 19.1667 11.8985 19.1667H7.73181C7.3176 19.1667 6.98181 18.8309 6.98181 18.4167V16.3333C6.98181 15.523 7.18357 14.7772 7.72127 14.2395ZM8.78193 15.3001C8.62589 15.4562 8.48181 15.752 8.48181 16.3333V17.6667H11.1485V16.3333C11.1485 15.752 11.0044 15.4562 10.8484 15.3001C10.6923 15.1441 10.3965 15 9.81514 15C9.23378 15 8.93798 15.1441 8.78193 15.3001Z" fill="#E1E1E1"/>
</svg>
