<svg width="20" height="20" viewBox="0 0 20 20" fill="none" xmlns="http://www.w3.org/2000/svg">
<path fill-rule="evenodd" clip-rule="evenodd" d="M5.04265 8.06479C5.54031 7.90336 6.07236 7.81752 6.62501 7.81752C9.27068 7.81752 11.5 9.83134 11.5 12.4225C11.5 13.0365 11.3709 13.6224 11.1381 14.1567C11.1805 14.1724 11.2215 14.192 11.2607 14.2152L14.4002 16.081L14.1082 13.7144C14.0742 13.4391 14.1949 13.1676 14.422 13.0084C15.847 12.0095 16.75 10.4367 16.75 8.67999C16.75 5.72949 14.1727 3.25 10.8775 3.25C7.81416 3.25 5.37129 5.3928 5.04265 8.06479ZM3.505 8.67999C3.505 4.80549 6.85275 1.75 10.8775 1.75C14.9023 1.75 18.25 4.80549 18.25 8.67999C18.25 10.8122 17.2283 12.7014 15.6501 13.9619L15.8896 15.9028C16.0379 17.1331 14.7116 18.0198 13.6346 17.3709L10.6672 15.6074C10.3618 15.5999 10.0605 15.5761 9.76368 15.5356C9.49211 15.4986 9.26237 15.3164 9.16448 15.0604C9.06659 14.8044 9.11614 14.5154 9.29372 14.3066C9.74105 13.7807 10 13.1254 10 12.4225C10 10.7536 8.53933 9.31752 6.62501 9.31752C5.8993 9.31752 5.23925 9.52334 4.6945 9.87835C4.47734 10.0199 4.20251 10.0392 3.96766 9.92955C3.73281 9.81987 3.57124 9.59671 3.54035 9.33936C3.51318 9.1129 3.505 8.89373 3.505 8.67999Z" fill="#4D3BBD"/>
<path fill-rule="evenodd" clip-rule="evenodd" d="M6.625 9.3175C5.89929 9.3175 5.23925 9.52332 4.69449 9.87833L4.68881 9.88203L4.6888 9.88201C3.80467 10.4469 3.25 11.3811 3.25 12.4225C3.25 13.4158 3.75681 14.3117 4.57762 14.8814C4.80727 15.0407 4.92922 15.3146 4.89403 15.5919L4.7796 16.4936L6.24204 15.6251C6.35793 15.5563 6.49022 15.52 6.625 15.52C7.72678 15.52 8.69001 15.0382 9.28648 14.3152L9.29365 14.3065L9.29371 14.3066C9.74104 13.7807 10 13.1254 10 12.4225C10 10.7536 8.53933 9.3175 6.625 9.3175ZM3.87835 8.61979C4.66802 8.10596 5.61192 7.8175 6.625 7.8175C9.27067 7.8175 11.5 9.83133 11.5 12.4225C11.5 13.5026 11.1004 14.4957 10.4399 15.2741C9.59255 16.2987 8.28927 16.9567 6.83819 17.0157L5.05421 18.0751C4.17205 18.6106 3.10236 17.8672 3.21763 16.8873L3.21843 16.8805L3.21847 16.8806L3.35194 15.8288C2.37323 14.997 1.75 13.7843 1.75 12.4225C1.75 10.8251 2.60406 9.43518 3.87835 8.61979Z" fill="#4D3BBD"/>
</svg>
