<svg width="20" height="20" viewBox="0 0 20 20" fill="none" xmlns="http://www.w3.org/2000/svg">
<g clip-path="url(#clip0_8_370)">
<path fill-rule="evenodd" clip-rule="evenodd" d="M8.97932 4.25529C9.56529 4.90482 9.3795 5.64067 8.8614 6.33888C8.73856 6.50441 8.59697 6.66752 8.42596 6.84725C8.34388 6.93351 8.27988 6.99839 8.146 7.1324C7.84196 7.43674 7.58637 7.69247 7.37923 7.89959C7.27878 8.00004 7.9646 9.37051 9.2956 10.7028C10.6259 12.0344 11.9963 12.7207 12.0972 12.6197L12.8634 11.853C13.2854 11.4307 13.5089 11.2269 13.8159 11.0254C14.4543 10.6066 15.1506 10.4928 15.7378 11.0179C17.6552 12.3894 18.7402 13.2311 19.2718 13.7834C20.3086 14.8607 20.1727 16.5189 19.2777 17.465C18.9673 17.793 18.5738 18.1867 18.109 18.6348C15.2975 21.4479 9.36378 19.736 4.81627 15.184C0.267729 10.631 -1.4433 4.69674 1.36235 1.88959C1.86604 1.37797 2.03212 1.21199 2.52267 0.728624C3.436 -0.171309 5.17077 -0.312219 6.22533 0.729514C6.78003 1.27747 7.66437 2.41531 8.97932 4.25529ZM14.277 13.2671L13.5106 14.0339C12.2079 15.3373 9.98936 14.2263 7.88186 12.1167C5.7729 10.0057 4.66309 7.78797 5.96624 6.48493C6.17311 6.27808 6.42845 6.0226 6.73226 5.71849C6.85484 5.59579 6.91091 5.53895 6.97821 5.46822C7.06991 5.37185 7.14526 5.28721 7.20559 5.21231C6.04022 3.58897 5.24803 2.57461 4.82096 2.15274C4.6004 1.93487 4.10654 1.97498 3.92524 2.15363C3.44168 2.63009 3.28274 2.78895 2.78108 3.29846C0.976766 5.10377 2.35803 9.89429 6.23001 13.7701C10.1008 17.6447 14.8906 19.0266 16.7086 17.2078C17.1662 16.7664 17.5391 16.3934 17.8261 16.09C18.0334 15.8708 18.0705 15.4185 17.8319 15.1707C17.4346 14.7578 16.4618 13.9994 14.7822 12.7932C14.6598 12.8917 14.5092 13.0346 14.277 13.2671Z" fill="black"/>
</g>
<defs>
<clipPath id="clip0_8_370">
<rect width="20" height="20" fill="white"/>
</clipPath>
</defs>
</svg>
