<svg width="19" height="19" viewBox="0 0 19 19" fill="none" xmlns="http://www.w3.org/2000/svg">
<path fill-rule="evenodd" clip-rule="evenodd" d="M1.09992 8.42172C5.39488 6.31657 8.25885 4.92873 9.69185 4.25819C13.7834 2.34367 14.6335 2.0111 15.1877 2.00012C15.3095 1.9977 15.5821 2.03168 15.7586 2.19282C15.9076 2.32888 15.9486 2.51268 15.9683 2.64168C15.9879 2.77068 16.0123 3.06455 15.9929 3.29416C15.7712 5.91499 14.8118 12.2751 14.3237 15.2104C14.1172 16.4525 13.7105 16.869 13.3169 16.9097C12.4613 16.9983 11.8116 16.2736 10.9829 15.6625C9.68624 14.7063 8.9537 14.111 7.69503 13.1779C6.24043 12.0995 7.18338 11.5068 8.01236 10.5382C8.22931 10.2847 11.999 6.42728 12.0719 6.07735C12.0811 6.03359 12.0895 5.87046 12.0034 5.78432C11.9172 5.69818 11.7901 5.72763 11.6983 5.75106C11.5683 5.78427 9.4968 7.32459 5.48389 10.372C4.89591 10.8262 4.36333 11.0476 3.88616 11.036C3.36012 11.0232 2.34822 10.7013 1.59598 10.4263C0.673328 10.0888 -0.0599784 9.91046 0.00387615 9.33743C0.0371355 9.03897 0.402482 8.73373 1.09992 8.42172Z" fill="white"/>
</svg>
