<svg width="20" height="20" viewBox="0 0 20 20" fill="none" xmlns="http://www.w3.org/2000/svg">
<path fill-rule="evenodd" clip-rule="evenodd" d="M9.71606 1.78808C7.69529 1.78808 6.05712 3.42624 6.05712 5.44702C6.05712 7.4678 7.69529 9.10596 9.71606 9.10596C11.7368 9.10596 13.375 7.4678 13.375 5.44702C13.375 3.42624 11.7368 1.78808 9.71606 1.78808ZM4.26904 5.44702C4.26904 2.43871 6.70776 0 9.71606 0C12.7244 0 15.1631 2.43871 15.1631 5.44702C15.1631 8.45533 12.7244 10.894 9.71606 10.894C6.70776 10.894 4.26904 8.45533 4.26904 5.44702Z" fill="#9BA0B6"/>
<path fill-rule="evenodd" clip-rule="evenodd" d="M1 19.106C1 14.9253 5.08647 11.8378 9.71606 11.8378C14.3456 11.8378 18.4321 14.9253 18.4321 19.106C18.4321 19.5997 18.0318 20 17.5381 20C17.0443 20 16.644 19.5997 16.644 19.106C16.644 16.2386 13.7189 13.6258 9.71606 13.6258C5.71319 13.6258 2.78808 16.2386 2.78808 19.106C2.78808 19.5997 2.3878 20 1.89404 20C1.40028 20 1 19.5997 1 19.106Z" fill="#9BA0B6"/>
</svg>
