<svg width="20" height="20" viewBox="0 0 20 20" fill="none" xmlns="http://www.w3.org/2000/svg">
<path fill-rule="evenodd" clip-rule="evenodd" d="M9.7583 2.2C7.78849 2.2 6.19164 3.79685 6.19164 5.76667C6.19164 7.73648 7.78849 9.33333 9.7583 9.33333C11.7281 9.33333 13.325 7.73648 13.325 5.76667C13.325 3.79685 11.7281 2.2 9.7583 2.2ZM4.99164 5.76667C4.99164 3.13411 7.12575 1 9.7583 1C12.3909 1 14.525 3.13411 14.525 5.76667C14.525 8.39922 12.3909 10.5333 9.7583 10.5333C7.12575 10.5333 4.99164 8.39922 4.99164 5.76667Z" fill="#EEEFF0"/>
<path fill-rule="evenodd" clip-rule="evenodd" d="M2 18.2667C2 14.601 5.59803 11.8334 9.75833 11.8334C13.9186 11.8334 17.5167 14.601 17.5167 18.2667C17.5167 18.5981 17.248 18.8667 16.9167 18.8667C16.5853 18.8667 16.3167 18.5981 16.3167 18.2667C16.3167 15.4824 13.498 13.0334 9.75833 13.0334C6.01863 13.0334 3.2 15.4824 3.2 18.2667C3.2 18.5981 2.93137 18.8667 2.6 18.8667C2.26863 18.8667 2 18.5981 2 18.2667Z" fill="#EEEFF0"/>
</svg>
