<svg width="22" height="22" viewBox="0 0 22 22" fill="none" xmlns="http://www.w3.org/2000/svg">
<path fill-rule="evenodd" clip-rule="evenodd" d="M1.06066 20.1526C0.474874 19.5668 0.474874 18.617 1.06066 18.0313L18.0312 1.06069C18.617 0.474906 19.5668 0.474906 20.1525 1.06069C20.7383 1.64648 20.7383 2.59623 20.1525 3.18201L3.18198 20.1526C2.59619 20.7384 1.64645 20.7384 1.06066 20.1526Z" fill="#9BA0B6"/>
<path fill-rule="evenodd" clip-rule="evenodd" d="M1.06066 1.06068C1.64645 0.474891 2.59619 0.474891 3.18198 1.06068L20.1525 18.0312C20.7383 18.617 20.7383 19.5668 20.1525 20.1526C19.5668 20.7384 18.617 20.7384 18.0312 20.1526L1.06066 3.182C0.474874 2.59621 0.474874 1.64646 1.06066 1.06068Z" fill="#9BA0B6"/>
</svg>
