<svg width="170" height="170" viewBox="0 0 170 170" fill="none" xmlns="http://www.w3.org/2000/svg">
<path d="M84.6364 168.273C130.827 168.273 168.273 130.827 168.273 84.6364C168.273 38.4453 130.827 1 84.6364 1C38.4453 1 1 38.4453 1 84.6364C1 130.827 38.4453 168.273 84.6364 168.273Z" fill="#F4F5F9"/>
<path fill-rule="evenodd" clip-rule="evenodd" d="M84.6364 2C38.9976 2 2 38.9976 2 84.6364C2 130.275 38.9976 167.273 84.6364 167.273C130.275 167.273 167.273 130.275 167.273 84.6364C167.273 38.9976 130.275 2 84.6364 2ZM0 84.6364C0 37.893 37.893 0 84.6364 0C131.38 0 169.273 37.893 169.273 84.6364C169.273 131.38 131.38 169.273 84.6364 169.273C37.893 169.273 0 131.38 0 84.6364Z" fill="#E1E3ED"/>
<path fill-rule="evenodd" clip-rule="evenodd" d="M84.3336 37.2501C69.7212 37.2501 58.0002 49.0504 58.0002 63.5834C58.0002 77.7673 69.1978 89.3108 83.2916 89.8313C83.9803 89.7521 84.7432 89.7496 85.3828 89.831C99.467 89.307 110.585 77.7701 110.667 63.5804C110.665 49.0508 98.8637 37.2501 84.3336 37.2501ZM56.0002 63.5834C56.0002 47.9498 68.6126 35.2501 84.3336 35.2501C99.9692 35.2501 112.667 47.9478 112.667 63.5834L112.667 63.589C112.581 78.8702 100.576 91.3143 85.3677 91.8328C85.309 91.8348 85.2503 91.8316 85.1922 91.8233C84.7081 91.7542 84.0482 91.7518 83.4576 91.8257C83.4052 91.8322 83.3523 91.8346 83.2995 91.8328C68.0957 91.3145 56.0002 78.874 56.0002 63.5834Z" fill="#E1E3ED"/>
<path fill-rule="evenodd" clip-rule="evenodd" d="M43.4728 125.164C34.9293 130.914 30.1705 138.143 29.2203 145.44C43.8319 158.656 63.1103 166.666 84.3335 166.666C105.557 166.666 124.835 158.656 139.447 145.44C138.496 138.142 133.737 130.913 125.193 125.163C114.059 117.714 99.2651 113.958 84.396 113.958C69.5278 113.958 54.691 117.714 43.4728 125.164ZM84.396 111.958C99.568 111.958 114.773 115.785 126.306 123.502L126.308 123.503C135.402 129.622 140.622 137.527 141.495 145.727C141.528 146.043 141.41 146.356 141.176 146.571C126.165 160.316 106.26 168.666 84.3335 168.666C62.407 168.666 42.5019 160.316 27.4915 146.571C27.2573 146.356 27.1389 146.043 27.1725 145.727C28.0449 137.527 33.265 129.622 42.3586 123.503L42.3636 123.5L42.3636 123.5C53.9783 115.785 69.2237 111.958 84.396 111.958Z" fill="#E1E3ED"/>
</svg>
