<svg width="200" height="47" viewBox="0 0 200 47" fill="none" xmlns="http://www.w3.org/2000/svg">
<path d="M175.005 42V37.96H175.997V39.544H176.605L177.79 37.96H178.861L177.374 39.976L177.158 39.664C177.307 39.68 177.437 39.72 177.549 39.784C177.667 39.848 177.776 39.9387 177.878 40.056C177.984 40.168 178.088 40.312 178.189 40.488L179.038 42H177.973L177.286 40.784C177.216 40.6614 177.147 40.5654 177.077 40.496C177.008 40.4267 176.931 40.3787 176.846 40.352C176.76 40.3254 176.656 40.312 176.533 40.312H175.997V42H175.005Z" fill="#8D82CB"/>
<path d="M170.084 42V37.96H170.988V41.016H170.748L173.044 37.96H173.868V42H172.964V38.936H173.212L170.908 42H170.084Z" fill="#8D82CB"/>
<path d="M165.138 42V37.96H166.13V39.544H167.954V37.96H168.946V42H167.954V40.312H166.13V42H165.138Z" fill="#8D82CB"/>
<path d="M163.034 42V40.528C162.885 40.5974 162.73 40.6507 162.57 40.688C162.41 40.7254 162.242 40.744 162.066 40.744C161.474 40.744 161.032 40.6027 160.738 40.32C160.45 40.0374 160.306 39.616 160.306 39.056V37.96H161.298V38.968C161.298 39.3094 161.373 39.5574 161.522 39.712C161.672 39.8614 161.912 39.936 162.242 39.936C162.397 39.936 162.536 39.92 162.658 39.888C162.781 39.856 162.898 39.8054 163.01 39.736V37.96H164.002V42H163.034Z" fill="#8D82CB"/>
<path d="M157.471 42.08C157.055 42.08 156.695 41.9947 156.391 41.824C156.087 41.6533 155.85 41.4107 155.679 41.096C155.514 40.7813 155.431 40.408 155.431 39.976C155.431 39.544 155.514 39.1733 155.679 38.864C155.85 38.5493 156.087 38.3067 156.391 38.136C156.695 37.9653 157.055 37.88 157.471 37.88C157.887 37.88 158.247 37.9653 158.551 38.136C158.86 38.3067 159.098 38.5493 159.263 38.864C159.434 39.1733 159.519 39.544 159.519 39.976C159.519 40.408 159.434 40.7813 159.263 41.096C159.098 41.4107 158.86 41.6533 158.551 41.824C158.247 41.9947 157.887 42.08 157.471 42.08ZM157.471 41.312C157.786 41.312 158.036 41.2027 158.223 40.984C158.41 40.76 158.503 40.424 158.503 39.976C158.503 39.528 158.41 39.1947 158.223 38.976C158.036 38.7573 157.786 38.648 157.471 38.648C157.156 38.648 156.906 38.7573 156.719 38.976C156.532 39.1947 156.439 39.528 156.439 39.976C156.439 40.424 156.532 40.76 156.719 40.984C156.906 41.2027 157.156 41.312 157.471 41.312Z" fill="#8D82CB"/>
<path d="M150.982 42V37.96H153.134C153.641 37.96 154.011 38.0534 154.246 38.24C154.481 38.4214 154.598 38.68 154.598 39.016C154.598 39.272 154.513 39.4854 154.342 39.656C154.171 39.8267 153.945 39.9334 153.662 39.976V39.864C154.009 39.8854 154.275 39.9867 154.462 40.168C154.649 40.3494 154.742 40.584 154.742 40.872C154.742 41.2187 154.609 41.4934 154.342 41.696C154.075 41.8987 153.697 42 153.206 42H150.982ZM151.91 41.384H153.102C153.337 41.384 153.515 41.336 153.638 41.24C153.766 41.144 153.83 41.0027 153.83 40.816C153.83 40.6294 153.766 40.488 153.638 40.392C153.515 40.296 153.337 40.248 153.102 40.248H151.91V41.384ZM151.91 39.632H153.014C153.227 39.632 153.393 39.5867 153.51 39.496C153.627 39.4 153.686 39.2667 153.686 39.096C153.686 38.9254 153.627 38.7947 153.51 38.704C153.393 38.6134 153.227 38.568 153.014 38.568H151.91V39.632Z" fill="#8D82CB"/>
<path d="M147.504 42.08C147.152 42.08 146.842 41.9973 146.576 41.832C146.309 41.6613 146.101 41.4187 145.952 41.104C145.802 40.7893 145.728 40.4133 145.728 39.976C145.728 39.5387 145.802 39.1653 145.952 38.856C146.101 38.5413 146.309 38.3013 146.576 38.136C146.842 37.9653 147.152 37.88 147.504 37.88C147.845 37.88 148.144 37.9653 148.4 38.136C148.661 38.3013 148.834 38.5253 148.92 38.808H148.832L148.92 37.96H149.88C149.864 38.1253 149.848 38.2933 149.832 38.464C149.821 38.6347 149.816 38.8027 149.816 38.968V42H148.824L148.816 41.168H148.912C148.826 41.4453 148.653 41.6667 148.392 41.832C148.13 41.9973 147.834 42.08 147.504 42.08ZM147.784 41.312C148.098 41.312 148.352 41.2027 148.544 40.984C148.736 40.76 148.832 40.424 148.832 39.976C148.832 39.528 148.736 39.1947 148.544 38.976C148.352 38.7573 148.098 38.648 147.784 38.648C147.469 38.648 147.216 38.7573 147.024 38.976C146.832 39.1947 146.736 39.528 146.736 39.976C146.736 40.424 146.829 40.76 147.016 40.984C147.208 41.2027 147.464 41.312 147.784 41.312Z" fill="#8D82CB"/>
<path d="M140.873 43.728V38.968C140.873 38.8027 140.868 38.6347 140.857 38.464C140.847 38.2933 140.831 38.1253 140.809 37.96H141.777L141.865 38.808H141.777C141.857 38.5253 142.025 38.3013 142.281 38.136C142.543 37.9653 142.844 37.88 143.185 37.88C143.543 37.88 143.855 37.9653 144.121 38.136C144.388 38.3013 144.596 38.5413 144.745 38.856C144.895 39.1653 144.969 39.5387 144.969 39.976C144.969 40.4133 144.895 40.7893 144.745 41.104C144.596 41.4187 144.388 41.6613 144.121 41.832C143.855 41.9973 143.543 42.08 143.185 42.08C142.849 42.08 142.553 41.9973 142.297 41.832C142.041 41.6667 141.871 41.4453 141.785 41.168H141.873V43.728H140.873ZM142.905 41.312C143.225 41.312 143.481 41.2027 143.673 40.984C143.865 40.76 143.961 40.424 143.961 39.976C143.961 39.528 143.865 39.1947 143.673 38.976C143.481 38.7573 143.225 38.648 142.905 38.648C142.591 38.648 142.337 38.7573 142.145 38.976C141.953 39.1947 141.857 39.528 141.857 39.976C141.857 40.424 141.953 40.76 142.145 40.984C142.337 41.2027 142.591 41.312 142.905 41.312Z" fill="#8D82CB"/>
<path d="M135.92 42V37.96H139.704V42H138.712V38.728H136.912V42H135.92Z" fill="#8D82CB"/>
<path d="M133.667 42.08C133.251 42.08 132.886 41.9947 132.571 41.824C132.262 41.6533 132.022 41.4107 131.851 41.096C131.68 40.776 131.595 40.3973 131.595 39.96C131.595 39.5227 131.68 39.1493 131.851 38.84C132.027 38.5307 132.27 38.2933 132.579 38.128C132.888 37.9627 133.251 37.88 133.667 37.88C133.934 37.88 134.192 37.9227 134.443 38.008C134.699 38.088 134.907 38.2053 135.067 38.36L134.763 39.056C134.619 38.9227 134.456 38.824 134.275 38.76C134.099 38.6907 133.926 38.656 133.755 38.656C133.398 38.656 133.118 38.768 132.915 38.992C132.718 39.216 132.619 39.5413 132.619 39.968C132.619 40.3947 132.718 40.7227 132.915 40.952C133.118 41.1813 133.398 41.296 133.755 41.296C133.92 41.296 134.091 41.264 134.267 41.2C134.448 41.136 134.614 41.0373 134.763 40.904L135.067 41.592C134.902 41.7467 134.691 41.8667 134.435 41.952C134.184 42.0373 133.928 42.08 133.667 42.08Z" fill="#8D82CB"/>
<path d="M124.662 42V37.96H125.566V41.016H125.326L127.622 37.96H128.446V42H127.542V38.936H127.79L125.486 42H124.662ZM126.55 37.592C126.283 37.592 126.048 37.5493 125.846 37.464C125.643 37.3733 125.475 37.248 125.342 37.088C125.208 36.9227 125.112 36.728 125.054 36.504L125.566 36.328C125.656 36.5733 125.782 36.7547 125.942 36.872C126.102 36.984 126.307 37.04 126.558 37.04C126.808 37.04 127.014 36.984 127.174 36.872C127.334 36.76 127.464 36.5813 127.566 36.336L128.054 36.504C127.942 36.8613 127.755 37.1333 127.494 37.32C127.238 37.5013 126.923 37.592 126.55 37.592Z" fill="#8D82CB"/>
<path d="M118.349 42V37.96H119.341V39.312H120.405C120.944 39.312 121.349 39.4267 121.621 39.656C121.893 39.88 122.029 40.2054 122.029 40.632C122.029 40.9094 121.965 41.152 121.837 41.36C121.709 41.5627 121.523 41.72 121.277 41.832C121.037 41.944 120.747 42 120.405 42H118.349ZM119.341 41.344H120.269C120.541 41.344 120.749 41.288 120.893 41.176C121.037 41.0587 121.109 40.8827 121.109 40.648C121.109 40.4134 121.037 40.2427 120.893 40.136C120.755 40.024 120.547 39.968 120.269 39.968H119.341V41.344ZM122.533 42V37.96H123.525V42H122.533Z" fill="#8D82CB"/>
<path d="M113.404 42V37.96H114.396V39.544H116.22V37.96H117.212V42H116.22V40.312H114.396V42H113.404Z" fill="#8D82CB"/>
<path d="M108.459 42V37.96H109.451V39.544H111.275V37.96H112.267V42H111.275V40.312H109.451V42H108.459Z" fill="#8D82CB"/>
<path d="M103.56 42L104.176 40.936C104.283 40.7547 104.413 40.6107 104.568 40.504C104.728 40.392 104.893 40.336 105.064 40.336H105.24L105.232 40.424C104.757 40.424 104.392 40.32 104.136 40.112C103.88 39.904 103.752 39.6 103.752 39.2C103.752 38.8054 103.883 38.5014 104.144 38.288C104.411 38.0694 104.8 37.96 105.312 37.96H107.32V42H106.408V40.576H105.952C105.787 40.576 105.64 40.6214 105.512 40.712C105.389 40.8027 105.285 40.92 105.2 41.064L104.672 42H103.56ZM105.504 39.928H106.408V38.608H105.504C105.232 38.608 105.027 38.6667 104.888 38.784C104.755 38.9014 104.688 39.0614 104.688 39.264C104.688 39.4774 104.755 39.6427 104.888 39.76C105.027 39.872 105.232 39.928 105.504 39.928Z" fill="#8D82CB"/>
<path d="M99.3024 42V37.96H100.294V39.312H101.358C101.897 39.312 102.302 39.4267 102.574 39.656C102.846 39.88 102.982 40.2054 102.982 40.632C102.982 40.9094 102.918 41.152 102.79 41.36C102.662 41.5627 102.476 41.72 102.23 41.832C101.99 41.944 101.7 42 101.358 42H99.3024ZM100.294 41.344H101.222C101.494 41.344 101.702 41.288 101.846 41.176C101.99 41.0587 102.062 40.8827 102.062 40.648C102.062 40.4134 101.99 40.2427 101.846 40.136C101.708 40.024 101.5 39.968 101.222 39.968H100.294V41.344Z" fill="#8D82CB"/>
<path d="M94.3234 42.112L94.0114 41.328C94.1874 41.264 94.334 41.1814 94.4514 41.08C94.574 40.9734 94.67 40.84 94.7394 40.68C94.814 40.5147 94.8674 40.312 94.8994 40.072C94.9314 39.8267 94.9474 39.536 94.9474 39.2V37.96H98.1634V42H97.1714V38.728H95.8594V39.232C95.8594 39.8134 95.806 40.3014 95.6994 40.696C95.5927 41.0854 95.4274 41.3947 95.2034 41.624C94.9794 41.8534 94.686 42.016 94.3234 42.112Z" fill="#8D82CB"/>
<path d="M90.9491 42.08C90.5971 42.08 90.2877 41.9973 90.0211 41.832C89.7544 41.6613 89.5464 41.4187 89.3971 41.104C89.2477 40.7893 89.1731 40.4133 89.1731 39.976C89.1731 39.5387 89.2477 39.1653 89.3971 38.856C89.5464 38.5413 89.7544 38.3013 90.0211 38.136C90.2877 37.9653 90.5971 37.88 90.9491 37.88C91.2904 37.88 91.5891 37.9653 91.8451 38.136C92.1064 38.3013 92.2797 38.5253 92.3651 38.808H92.2771L92.3651 37.96H93.3251C93.3091 38.1253 93.2931 38.2933 93.2771 38.464C93.2664 38.6347 93.2611 38.8027 93.2611 38.968V42H92.2691L92.2611 41.168H92.3571C92.2717 41.4453 92.0984 41.6667 91.8371 41.832C91.5757 41.9973 91.2797 42.08 90.9491 42.08ZM91.2291 41.312C91.5437 41.312 91.7971 41.2027 91.9891 40.984C92.1811 40.76 92.2771 40.424 92.2771 39.976C92.2771 39.528 92.1811 39.1947 91.9891 38.976C91.7971 38.7573 91.5437 38.648 91.2291 38.648C90.9144 38.648 90.6611 38.7573 90.4691 38.976C90.2771 39.1947 90.1811 39.528 90.1811 39.976C90.1811 40.424 90.2744 40.76 90.4611 40.984C90.6531 41.2027 90.9091 41.312 91.2291 41.312Z" fill="#8D82CB"/>
<path d="M84.7946 42V37.96H85.7866V39.544H86.3946L87.5786 37.96H88.6506L87.1626 39.976L86.9466 39.664C87.0959 39.68 87.2266 39.72 87.3386 39.784C87.4559 39.848 87.5652 39.9387 87.6666 40.056C87.7732 40.168 87.8772 40.312 87.9786 40.488L88.8266 42H87.7626L87.0746 40.784C87.0052 40.6614 86.9359 40.5654 86.8666 40.496C86.7972 40.4267 86.7199 40.3787 86.6346 40.352C86.5492 40.3254 86.4452 40.312 86.3226 40.312H85.7866V42H84.7946Z" fill="#8D82CB"/>
<path d="M77.6774 42V37.96H78.5814V41.016H78.3414L80.6374 37.96H81.4614V42H80.5574V38.936H80.8054L78.5014 42H77.6774ZM79.5654 37.592C79.2987 37.592 79.064 37.5493 78.8614 37.464C78.6587 37.3733 78.4907 37.248 78.3574 37.088C78.224 36.9227 78.128 36.728 78.0694 36.504L78.5814 36.328C78.672 36.5733 78.7974 36.7547 78.9574 36.872C79.1174 36.984 79.3227 37.04 79.5734 37.04C79.824 37.04 80.0294 36.984 80.1894 36.872C80.3494 36.76 80.48 36.5813 80.5814 36.336L81.0694 36.504C80.9574 36.8613 80.7707 37.1333 80.5094 37.32C80.2534 37.5013 79.9387 37.592 79.5654 37.592Z" fill="#8D82CB"/>
<path d="M71.3649 42V37.96H72.3569V39.312H73.4209C73.9595 39.312 74.3649 39.4267 74.6369 39.656C74.9089 39.88 75.0449 40.2054 75.0449 40.632C75.0449 40.9094 74.9809 41.152 74.8529 41.36C74.7249 41.5627 74.5382 41.72 74.2929 41.832C74.0529 41.944 73.7622 42 73.4209 42H71.3649ZM72.3569 41.344H73.2849C73.5569 41.344 73.7649 41.288 73.9089 41.176C74.0529 41.0587 74.1249 40.8827 74.1249 40.648C74.1249 40.4134 74.0529 40.2427 73.9089 40.136C73.7702 40.024 73.5622 39.968 73.2849 39.968H72.3569V41.344ZM75.5489 42V37.96H76.5409V42H75.5489Z" fill="#8D82CB"/>
<path d="M66.7321 42V37.96H68.8841C69.3907 37.96 69.7614 38.0534 69.9961 38.24C70.2307 38.4214 70.3481 38.68 70.3481 39.016C70.3481 39.272 70.2627 39.4854 70.0921 39.656C69.9214 39.8267 69.6947 39.9334 69.4121 39.976V39.864C69.7587 39.8854 70.0254 39.9867 70.2121 40.168C70.3987 40.3494 70.4921 40.584 70.4921 40.872C70.4921 41.2187 70.3587 41.4934 70.0921 41.696C69.8254 41.8987 69.4467 42 68.9561 42H66.7321ZM67.6601 41.384H68.8521C69.0867 41.384 69.2654 41.336 69.3881 41.24C69.5161 41.144 69.5801 41.0027 69.5801 40.816C69.5801 40.6294 69.5161 40.488 69.3881 40.392C69.2654 40.296 69.0867 40.248 68.8521 40.248H67.6601V41.384ZM67.6601 39.632H68.7641C68.9774 39.632 69.1427 39.5867 69.2601 39.496C69.3774 39.4 69.4361 39.2667 69.4361 39.096C69.4361 38.9254 69.3774 38.7947 69.2601 38.704C69.1427 38.6134 68.9774 38.568 68.7641 38.568H67.6601V39.632Z" fill="#8D82CB"/>
<path d="M61.6937 43.728V38.968C61.6937 38.8027 61.6884 38.6347 61.6777 38.464C61.6671 38.2933 61.6511 38.1253 61.6297 37.96H62.5977L62.6857 38.808H62.5977C62.6777 38.5253 62.8457 38.3013 63.1017 38.136C63.3631 37.9653 63.6644 37.88 64.0057 37.88C64.3631 37.88 64.6751 37.9653 64.9417 38.136C65.2084 38.3013 65.4164 38.5413 65.5657 38.856C65.7151 39.1653 65.7897 39.5387 65.7897 39.976C65.7897 40.4133 65.7151 40.7893 65.5657 41.104C65.4164 41.4187 65.2084 41.6613 64.9417 41.832C64.6751 41.9973 64.3631 42.08 64.0057 42.08C63.6697 42.08 63.3737 41.9973 63.1177 41.832C62.8617 41.6667 62.6911 41.4453 62.6057 41.168H62.6937V43.728H61.6937ZM63.7257 41.312C64.0457 41.312 64.3017 41.2027 64.4937 40.984C64.6857 40.76 64.7817 40.424 64.7817 39.976C64.7817 39.528 64.6857 39.1947 64.4937 38.976C64.3017 38.7573 64.0457 38.648 63.7257 38.648C63.4111 38.648 63.1577 38.7573 62.9657 38.976C62.7737 39.1947 62.6777 39.528 62.6777 39.976C62.6777 40.424 62.7737 40.76 62.9657 40.984C63.1577 41.2027 63.4111 41.312 63.7257 41.312Z" fill="#8D82CB"/>
<path d="M59.1536 42.08C58.4762 42.08 57.9456 41.8933 57.5616 41.52C57.1776 41.1467 56.9856 40.6347 56.9856 39.984C56.9856 39.5627 57.0682 39.1947 57.2336 38.88C57.3989 38.5653 57.6282 38.32 57.9216 38.144C58.2202 37.968 58.5669 37.88 58.9616 37.88C59.3509 37.88 59.6762 37.9627 59.9376 38.128C60.1989 38.2933 60.3962 38.5253 60.5296 38.824C60.6682 39.1227 60.7376 39.472 60.7376 39.872V40.136H57.7936V39.608H60.0256L59.8896 39.72C59.8896 39.3467 59.8096 39.0613 59.6496 38.864C59.4949 38.6667 59.2682 38.568 58.9696 38.568C58.6389 38.568 58.3829 38.6853 58.2016 38.92C58.0256 39.1547 57.9376 39.4827 57.9376 39.904V40.008C57.9376 40.4453 58.0442 40.7733 58.2576 40.992C58.4762 41.2053 58.7829 41.312 59.1776 41.312C59.4069 41.312 59.6202 41.2827 59.8176 41.224C60.0202 41.16 60.2122 41.0587 60.3936 40.92L60.6896 41.592C60.4976 41.7467 60.2682 41.8667 60.0016 41.952C59.7349 42.0373 59.4522 42.08 59.1536 42.08Z" fill="#8D82CB"/>
<path d="M52.2477 42V37.96H56.0317V42H55.0397V38.728H53.2397V42H52.2477Z" fill="#8D82CB"/>
<path d="M45.5755 42V41.144H46.8715V37.224H47.3675L45.7035 38.216V37.24L47.1675 36.36H47.9035V41.144H49.1195V42H45.5755Z" fill="#8D82CB"/>
<path d="M40.5146 42L40.7866 40.624H40.1866V39.984H40.9066L41.2506 38.312H40.3626V37.664H41.3786L41.6426 36.36H42.3386L42.0746 37.664H43.1066L43.3706 36.36H44.0666L43.8026 37.664H44.3946V38.312H43.6666L43.3306 39.984H44.2266V40.624H43.2026L42.9306 42H42.2266L42.5066 40.624H41.4826L41.2186 42H40.5146ZM41.6106 39.984H42.6346L42.9706 38.312H41.9466L41.6106 39.984Z" fill="#8D82CB"/>
<mask id="path-28-outside-1_22_5" maskUnits="userSpaceOnUse" x="39.6005" y="7.95795" width="141" height="20" fill="black">
<rect fill="white" x="39.6005" y="7.95795" width="141" height="20"/>
<path d="M40.6005 9.95795H40.874V15.4061C41.105 14.9788 41.4089 14.5871 41.7858 14.231C42.1626 13.8749 42.5942 13.5722 43.0805 13.323C43.5667 13.0619 44.1016 12.8601 44.6851 12.7176C45.2808 12.5752 45.9069 12.504 46.5634 12.504C47.5602 12.504 48.4112 12.6227 49.1163 12.8601C49.8335 13.0856 50.417 13.3705 50.8668 13.7147C51.3166 14.047 51.6449 14.4031 51.8515 14.7829C52.0582 15.1509 52.1615 15.4714 52.1615 15.7444V23.5605H51.9062V15.7444C51.9062 15.5189 51.8029 15.2399 51.5962 14.9076C51.4017 14.5634 51.0856 14.231 50.648 13.9105C50.2225 13.5901 49.6694 13.3171 48.9886 13.0915C48.32 12.866 47.5116 12.7532 46.5634 12.7532C45.8826 12.7532 45.2747 12.8245 44.7399 12.9669C44.205 13.1093 43.7308 13.2874 43.3175 13.501C42.9042 13.7147 42.5516 13.9521 42.2599 14.2132C41.9681 14.4743 41.725 14.7295 41.5305 14.9788C41.3603 15.2162 41.2083 15.4476 41.0746 15.6732C40.9409 15.8987 40.874 16.1658 40.874 16.4744V23.5605H40.6005V9.95795Z"/>
<path d="M56.6755 14.2666V23.5605H56.4019V14.2666H56.6755ZM55.9096 10.9728L55.9278 10.955C55.9521 10.9313 55.9947 10.8897 56.0555 10.8304C56.1163 10.7591 56.177 10.6879 56.2378 10.6167C56.2743 10.5692 56.3108 10.5277 56.3472 10.4921C56.3959 10.4446 56.4445 10.3971 56.4931 10.3496L57.1131 10.9728L56.4931 11.596L55.9096 10.9728Z"/>
<path d="M61.6518 21.602C61.3358 21.0323 61.1657 20.6037 61.097 19.8996H61.3889C61.4576 20.4193 61.5607 20.789 61.8889 21.4418C62.2171 22.0946 62.7277 22.5754 63.4206 22.884C63.7124 23.0383 64.1683 23.1629 64.7883 23.2579C65.4204 23.3528 66.1073 23.4003 66.8488 23.4003C67.2986 23.4003 67.7484 23.3825 68.1982 23.3469C68.6602 23.2994 69.0917 23.2282 69.4929 23.1332C69.9062 23.0383 70.2831 22.9196 70.6235 22.7771C70.9639 22.6228 71.2374 22.4389 71.444 22.2252C71.7115 21.9522 71.8938 21.6614 71.9911 21.3528C72.1005 21.0442 72.1552 20.7712 72.1552 20.5338C72.1552 20.4032 72.1248 20.2133 72.064 19.964C72.0154 19.7148 71.8331 19.4536 71.517 19.1806C71.1888 18.8958 70.7207 18.7296 70.1129 18.6821C69.7847 18.6584 69.4868 18.6346 69.2194 18.6109C68.9641 18.5872 68.7331 18.5634 68.5264 18.5397L67.5235 18.4507C67.2561 18.4269 67.0251 18.4091 66.8306 18.3972C66.6482 18.3854 66.4416 18.3735 66.2106 18.3616C65.9796 18.3379 65.6939 18.3082 65.3535 18.2726C65.0132 18.237 64.5573 18.1836 63.9859 18.1124C63.5483 18.0649 63.1653 17.9581 62.8371 17.7919C62.521 17.6257 62.2597 17.4299 62.053 17.2044C61.8463 16.967 61.6944 16.7118 61.5971 16.4388C61.4999 16.1539 61.4512 15.875 61.4512 15.602C61.4512 15.5426 61.4573 15.3942 61.4695 15.1568C61.4816 14.9076 61.6275 14.5871 61.9071 14.1954C62.1503 13.8512 62.4542 13.5663 62.8189 13.3408C63.1836 13.1034 63.5787 12.9194 64.0041 12.7889C64.4418 12.6464 64.8855 12.5455 65.3353 12.4862C65.7851 12.4268 66.2106 12.3972 66.6118 12.3972C66.9765 12.3972 67.3655 12.4209 67.7788 12.4684C68.2043 12.5159 68.648 12.5989 69.11 12.7176C69.1221 12.7176 69.1343 12.7236 69.1464 12.7354C69.1586 12.7354 69.1707 12.7354 69.1829 12.7354C70.2405 13.0559 71.0307 13.5901 71.5535 14.3378C71.754 14.6248 72.2464 15.3121 72.4604 16.4522H72.2029C71.9453 15.6642 71.9668 15.6672 71.6629 15.0856C71.3589 14.504 70.9639 14.0352 70.4776 13.6791C69.9913 13.3111 69.42 13.05 68.7635 12.8957C68.107 12.7295 67.3776 12.6464 66.5753 12.6464C65.8459 12.6464 65.1834 12.7176 64.5877 12.8601C64.0042 13.0025 63.5361 13.1805 63.1836 13.3942C62.7824 13.6316 62.4359 13.958 62.1442 14.3734C61.8646 14.7889 61.7248 15.2221 61.7248 15.6732C61.7248 16.2192 61.9314 16.6999 62.3448 17.1153C62.7702 17.5308 63.3295 17.78 64.0224 17.8631C64.6059 17.9225 65.0618 17.9699 65.39 18.0056C65.7304 18.0412 66.01 18.0708 66.2288 18.0946C66.4476 18.1064 66.6422 18.1242 66.8123 18.148C66.9947 18.1599 67.2135 18.1777 67.4688 18.2014C67.7363 18.2133 68.0706 18.237 68.4717 18.2726C68.8851 18.3082 69.4382 18.3557 70.1311 18.4151C70.4472 18.4507 70.745 18.5159 71.0246 18.6109C71.3042 18.7059 71.5474 18.8424 71.754 19.0204C71.9607 19.1866 72.1248 19.3884 72.2464 19.6258C72.368 19.8631 72.4287 20.1421 72.4287 20.4626C72.4287 21.1035 72.2585 21.6317 71.9182 22.0472C71.5899 22.4507 71.1584 22.7712 70.6235 23.0086C70.1007 23.246 69.5051 23.4122 68.8364 23.5071C68.18 23.6021 67.5235 23.6496 66.8671 23.6496C66.2471 23.6496 65.6696 23.6258 65.1347 23.5783C64.612 23.5309 64.1318 23.4359 63.6942 23.2935C63.2565 23.1392 62.8675 22.9314 62.5271 22.6703C62.1867 22.3973 61.895 22.0412 61.6518 21.602Z"/>
<path d="M76.0477 9.95795H76.3213V15.4061C76.5522 14.9788 76.8562 14.5871 77.233 14.231C77.6099 13.8749 78.0414 13.5722 78.5277 13.323C79.014 13.0619 79.5489 12.8601 80.1324 12.7176C80.7281 12.5752 81.3541 12.504 82.0106 12.504C83.0074 12.504 83.8584 12.6227 84.5635 12.8601C85.2807 13.0856 85.8643 13.3705 86.3141 13.7147C86.7639 14.047 87.0921 14.4031 87.2988 14.7829C87.5054 15.1509 87.6087 15.4714 87.6087 15.7444V23.5605H87.3535V15.7444C87.3535 15.5189 87.2501 15.2399 87.0435 14.9076C86.849 14.5634 86.5329 14.231 86.0952 13.9105C85.6698 13.5901 85.1166 13.3171 84.4359 13.0915C83.7672 12.866 82.9588 12.7532 82.0106 12.7532C81.3298 12.7532 80.722 12.8245 80.1871 12.9669C79.6522 13.1093 79.1781 13.2874 78.7648 13.501C78.3514 13.7147 77.9989 13.9521 77.7071 14.2132C77.4154 14.4743 77.1722 14.7295 76.9777 14.9788C76.8075 15.2162 76.6556 15.4476 76.5218 15.6732C76.3881 15.8987 76.3213 16.1658 76.3213 16.4744V23.5605H76.0477V9.95795Z"/>
<path d="M95.0373 17.7563C94.7212 17.78 94.3747 17.8275 93.9979 17.8987C93.6332 17.9699 93.2806 18.0768 92.9403 18.2192C92.5999 18.3616 92.2899 18.5516 92.0103 18.7889C91.7428 19.0145 91.5544 19.2934 91.445 19.6258C91.3356 19.8988 91.2869 20.1955 91.2991 20.516C91.2991 20.8958 91.3781 21.2578 91.5362 21.602C91.6942 21.9344 91.9434 22.2074 92.2838 22.4211C92.5756 22.6347 92.9099 22.8009 93.2867 22.9196C93.6757 23.0383 94.0708 23.1273 94.472 23.1866C94.8853 23.246 95.2926 23.2816 95.6937 23.2935C96.1071 23.3053 96.4839 23.3113 96.8243 23.3113H101.839V16.3675C101.705 16.5337 101.499 16.6821 101.219 16.8127C100.952 16.9314 100.648 17.0382 100.307 17.1331C99.9668 17.2281 99.6021 17.3112 99.2131 17.3824C98.8241 17.4417 98.4472 17.4952 98.0825 17.5426C97.7178 17.5782 97.3775 17.6079 97.0614 17.6317C96.7453 17.6554 96.4839 17.6732 96.2773 17.6851C95.9004 17.7088 95.5965 17.7266 95.3655 17.7385C95.3047 17.7504 95.2379 17.7563 95.1649 17.7563H95.0373ZM91.0256 20.5338C91.0256 19.9878 91.1411 19.5308 91.372 19.1628C91.6152 18.7949 91.9252 18.4981 92.302 18.2726C92.691 18.0352 93.1226 17.8572 93.5967 17.7385C94.0708 17.6198 94.5449 17.5426 95.0191 17.507C95.1285 17.4833 95.3716 17.4655 95.7485 17.4536C95.9794 17.4417 96.2834 17.4239 96.6602 17.4002C97.0492 17.3765 97.4686 17.3409 97.9184 17.2934C98.3682 17.234 98.818 17.1687 99.2678 17.0975C99.7298 17.0144 100.144 16.9195 100.52 16.8127C100.897 16.694 101.213 16.5515 101.456 16.3853C101.699 16.2192 101.827 16.0293 101.839 15.8156V12.6642H91.682V15.6413H91.4267V12.4328V12.4328C91.4267 12.4229 91.4347 12.415 91.4446 12.415H102.079C102.098 12.415 102.112 12.4299 102.112 12.4483V23.5605H96.8243C96.4596 23.5605 96.0645 23.5546 95.639 23.5427C95.2136 23.519 94.782 23.4774 94.3444 23.4181C93.9189 23.3469 93.5055 23.246 93.1044 23.1154C92.7032 22.9849 92.3446 22.8068 92.0285 22.5813C91.7246 22.3558 91.4815 22.0768 91.2991 21.7445C91.1168 21.4121 91.0256 21.0086 91.0256 20.5338Z"/>
<path d="M105.761 22.2074L105.779 22.1896C105.816 22.154 105.876 22.0887 105.961 21.9937C106.059 21.8988 106.156 21.7979 106.253 21.6911L106.618 21.2994L107.511 22.2074L106.618 23.0976L105.761 22.2074Z"/>
<path d="M113.008 14.0409V11.3645H113.281V14.0409H118.387V14.2901H113.281V21.513C113.281 21.8098 113.342 22.0709 113.464 22.2964C113.597 22.5219 113.768 22.7119 113.974 22.8662C114.193 23.0086 114.43 23.1214 114.685 23.2044C114.953 23.2757 115.226 23.3113 115.506 23.3113H120.138V23.5605H115.506C115.153 23.5605 114.825 23.5131 114.521 23.4181C114.23 23.3113 113.968 23.1688 113.737 22.9908C113.506 22.8127 113.324 22.5991 113.19 22.3498C113.069 22.1006 113.008 21.8216 113.008 21.513V14.2901H111.987V14.0409H113.008Z"/>
<path d="M122.549 18.1124C122.549 17.2103 122.683 16.4032 122.95 15.691C123.217 14.9788 123.6 14.3794 124.099 13.8927C124.609 13.4061 125.217 13.0381 125.922 12.7889C126.64 12.5277 127.436 12.3972 128.311 12.3972C129.186 12.3972 129.977 12.5337 130.682 12.8067C131.399 13.0797 132.007 13.4714 132.505 13.9817C133.004 14.4803 133.387 15.0797 133.654 15.78C133.921 16.4803 134.055 17.2578 134.055 18.1124C134.055 19.0263 133.921 19.8335 133.654 20.5338C133.387 21.2341 133.004 21.8276 132.505 22.3142C132.007 22.8009 131.399 23.1688 130.682 23.4181C129.977 23.6674 129.186 23.792 128.311 23.792C127.436 23.792 126.64 23.6555 125.922 23.3825C125.217 23.1095 124.609 22.7237 124.099 22.2252C123.6 21.7267 123.217 21.1332 122.95 20.4448C122.683 19.7445 122.549 18.967 122.549 18.1124ZM124.245 14.1064C123.296 15.0678 122.822 16.4032 122.822 18.1124C122.822 18.9314 122.95 19.6732 123.205 20.3379C123.461 21.0026 123.825 21.5724 124.299 22.0472C124.786 22.5219 125.363 22.8899 126.032 23.151C126.713 23.4122 127.472 23.5427 128.311 23.5427C129.186 23.5427 129.958 23.4181 130.627 23.1688C131.308 22.9196 131.879 22.5635 132.341 22.1006C132.815 21.6258 133.174 21.056 133.417 20.3913C133.66 19.7148 133.782 18.9551 133.782 18.1124C133.782 17.2934 133.654 16.5515 133.399 15.8868C133.156 15.2103 132.797 14.6346 132.323 14.1598C131.849 13.685 131.271 13.3171 130.59 13.0559C129.922 12.7948 129.162 12.6642 128.311 12.6642C126.548 12.6642 125.193 13.1449 124.245 14.1064Z"/>
<path d="M137.752 20.0353C137.642 19.7266 137.557 19.418 137.497 19.1094C137.436 18.7889 137.405 18.4685 137.405 18.148C137.405 18.1242 137.399 18.059 137.387 17.9521C137.387 17.8453 137.399 17.6969 137.424 17.507C137.448 17.3171 137.491 17.0975 137.551 16.8483C137.624 16.5871 137.728 16.2904 137.861 15.958C138.141 15.2933 138.53 14.7058 139.028 14.1954C139.539 13.6613 140.153 13.2399 140.87 12.9313C141.587 12.6227 142.42 12.4684 143.368 12.4684C144.061 12.4684 144.699 12.5396 145.283 12.682C145.866 12.8126 146.389 12.9906 146.851 13.2162C147.313 13.4298 147.708 13.685 148.036 13.9817C148.365 14.2666 148.614 14.5634 148.784 14.872V9.95795H149.039V23.5605H143.861C143.01 23.5605 142.244 23.4715 141.563 23.2935C140.894 23.1036 140.305 22.8484 139.794 22.5279C139.284 22.2074 138.858 21.8335 138.518 21.4062C138.19 20.9789 137.934 20.5219 137.752 20.0353ZM137.734 18.1836C137.734 18.8958 137.873 19.5664 138.153 20.1955C138.445 20.8127 138.852 21.3528 139.375 21.8157C139.91 22.2786 140.554 22.6466 141.308 22.9196C142.061 23.1807 142.912 23.3113 143.861 23.3113H148.784V15.7444C148.76 15.507 148.681 15.2637 148.547 15.0144C148.413 14.7533 148.207 14.4981 147.927 14.2488C147.477 13.8334 146.869 13.4773 146.104 13.1806C145.338 12.8838 144.426 12.7354 143.368 12.7354C142.554 12.7354 141.8 12.8838 141.107 13.1806C140.426 13.4773 139.831 13.8749 139.32 14.3734C138.822 14.872 138.433 15.4536 138.153 16.1183C137.873 16.7711 137.734 17.4595 137.734 18.1836Z"/>
<path d="M166.983 12.4663C167.165 12.5138 167.329 12.5909 167.475 12.6978C167.633 12.7927 167.779 12.9055 167.913 13.036C168.132 13.2734 168.314 13.5702 168.46 13.9263C168.618 14.2705 168.752 14.7397 168.861 15.1551C168.983 15.5587 169.039 15.9224 169.124 16.3853C169.221 16.8364 169.313 17.1806 169.398 17.6317C169.52 18.3082 169.694 19.048 169.828 19.6771C169.961 20.2943 170.132 20.8522 170.338 21.3507H176.793L178.726 12.4485H179L178.935 12.7303L178.872 13.0182C178.872 13.0182 178.787 13.404 178.726 13.6414C178.678 13.8788 178.623 14.1458 178.562 14.4426C178.477 14.8224 178.386 15.2379 178.289 15.6889C178.191 16.1399 178.117 16.6815 178.007 17.1563C177.91 17.6192 177.842 17.9941 177.733 18.4807C177.635 18.9555 177.572 19.4163 177.475 19.8555C177.366 20.3777 177.241 20.9426 177.132 21.4649C177.022 21.9872 176.857 22.5058 176.702 23.0243C176.508 23.6772 176.24 24.2172 175.9 24.6445C175.572 25.0837 175.183 25.4339 174.733 25.695C174.295 25.968 173.809 26.1638 173.274 26.2825C172.739 26.4131 172.174 26.4903 171.578 26.514H171.104C170.557 26.514 169.998 26.4784 169.426 26.4072C168.867 26.3359 168.241 26.241 167.548 26.1223L167.585 25.8552C168.278 25.9739 168.904 26.0689 169.463 26.1401C170.022 26.2113 170.569 26.2469 171.104 26.2469H171.56C172.156 26.2232 172.715 26.146 173.238 26.0155C173.76 25.8968 174.228 25.7069 174.642 25.4457C175.055 25.1965 175.414 24.8641 175.718 24.4487C176.021 24.0451 176.259 23.5466 176.429 22.9531L176.72 21.6H170.156L169.725 20.0672L169.261 18.2566L168.861 16.3853C168.764 15.9224 168.684 15.5587 168.574 15.1551C168.465 14.7397 168.381 14.3358 168.223 14.0153C168.077 13.6948 167.901 13.4277 167.694 13.2141C167.487 12.9886 167.25 12.8343 166.983 12.7512V12.4663Z"/>
</mask>
<path d="M40.6005 9.95795H40.874V15.4061C41.105 14.9788 41.4089 14.5871 41.7858 14.231C42.1626 13.8749 42.5942 13.5722 43.0805 13.323C43.5667 13.0619 44.1016 12.8601 44.6851 12.7176C45.2808 12.5752 45.9069 12.504 46.5634 12.504C47.5602 12.504 48.4112 12.6227 49.1163 12.8601C49.8335 13.0856 50.417 13.3705 50.8668 13.7147C51.3166 14.047 51.6449 14.4031 51.8515 14.7829C52.0582 15.1509 52.1615 15.4714 52.1615 15.7444V23.5605H51.9062V15.7444C51.9062 15.5189 51.8029 15.2399 51.5962 14.9076C51.4017 14.5634 51.0856 14.231 50.648 13.9105C50.2225 13.5901 49.6694 13.3171 48.9886 13.0915C48.32 12.866 47.5116 12.7532 46.5634 12.7532C45.8826 12.7532 45.2747 12.8245 44.7399 12.9669C44.205 13.1093 43.7308 13.2874 43.3175 13.501C42.9042 13.7147 42.5516 13.9521 42.2599 14.2132C41.9681 14.4743 41.725 14.7295 41.5305 14.9788C41.3603 15.2162 41.2083 15.4476 41.0746 15.6732C40.9409 15.8987 40.874 16.1658 40.874 16.4744V23.5605H40.6005V9.95795Z" fill="#4D3BBD"/>
<path d="M56.6755 14.2666V23.5605H56.4019V14.2666H56.6755ZM55.9096 10.9728L55.9278 10.955C55.9521 10.9313 55.9947 10.8897 56.0555 10.8304C56.1163 10.7591 56.177 10.6879 56.2378 10.6167C56.2743 10.5692 56.3108 10.5277 56.3472 10.4921C56.3959 10.4446 56.4445 10.3971 56.4931 10.3496L57.1131 10.9728L56.4931 11.596L55.9096 10.9728Z" fill="#4D3BBD"/>
<path d="M61.6518 21.602C61.3358 21.0323 61.1657 20.6037 61.097 19.8996H61.3889C61.4576 20.4193 61.5607 20.789 61.8889 21.4418C62.2171 22.0946 62.7277 22.5754 63.4206 22.884C63.7124 23.0383 64.1683 23.1629 64.7883 23.2579C65.4204 23.3528 66.1073 23.4003 66.8488 23.4003C67.2986 23.4003 67.7484 23.3825 68.1982 23.3469C68.6602 23.2994 69.0917 23.2282 69.4929 23.1332C69.9062 23.0383 70.2831 22.9196 70.6235 22.7771C70.9639 22.6228 71.2374 22.4389 71.444 22.2252C71.7115 21.9522 71.8938 21.6614 71.9911 21.3528C72.1005 21.0442 72.1552 20.7712 72.1552 20.5338C72.1552 20.4032 72.1248 20.2133 72.064 19.964C72.0154 19.7148 71.8331 19.4536 71.517 19.1806C71.1888 18.8958 70.7207 18.7296 70.1129 18.6821C69.7847 18.6584 69.4868 18.6346 69.2194 18.6109C68.9641 18.5872 68.7331 18.5634 68.5264 18.5397L67.5235 18.4507C67.2561 18.4269 67.0251 18.4091 66.8306 18.3972C66.6482 18.3854 66.4416 18.3735 66.2106 18.3616C65.9796 18.3379 65.6939 18.3082 65.3535 18.2726C65.0132 18.237 64.5573 18.1836 63.9859 18.1124C63.5483 18.0649 63.1653 17.9581 62.8371 17.7919C62.521 17.6257 62.2597 17.4299 62.053 17.2044C61.8463 16.967 61.6944 16.7118 61.5971 16.4388C61.4999 16.1539 61.4512 15.875 61.4512 15.602C61.4512 15.5426 61.4573 15.3942 61.4695 15.1568C61.4816 14.9076 61.6275 14.5871 61.9071 14.1954C62.1503 13.8512 62.4542 13.5663 62.8189 13.3408C63.1836 13.1034 63.5787 12.9194 64.0041 12.7889C64.4418 12.6464 64.8855 12.5455 65.3353 12.4862C65.7851 12.4268 66.2106 12.3972 66.6118 12.3972C66.9765 12.3972 67.3655 12.4209 67.7788 12.4684C68.2043 12.5159 68.648 12.5989 69.11 12.7176C69.1221 12.7176 69.1343 12.7236 69.1464 12.7354C69.1586 12.7354 69.1707 12.7354 69.1829 12.7354C70.2405 13.0559 71.0307 13.5901 71.5535 14.3378C71.754 14.6248 72.2464 15.3121 72.4604 16.4522H72.2029C71.9453 15.6642 71.9668 15.6672 71.6629 15.0856C71.3589 14.504 70.9639 14.0352 70.4776 13.6791C69.9913 13.3111 69.42 13.05 68.7635 12.8957C68.107 12.7295 67.3776 12.6464 66.5753 12.6464C65.8459 12.6464 65.1834 12.7176 64.5877 12.8601C64.0042 13.0025 63.5361 13.1805 63.1836 13.3942C62.7824 13.6316 62.4359 13.958 62.1442 14.3734C61.8646 14.7889 61.7248 15.2221 61.7248 15.6732C61.7248 16.2192 61.9314 16.6999 62.3448 17.1153C62.7702 17.5308 63.3295 17.78 64.0224 17.8631C64.6059 17.9225 65.0618 17.9699 65.39 18.0056C65.7304 18.0412 66.01 18.0708 66.2288 18.0946C66.4476 18.1064 66.6422 18.1242 66.8123 18.148C66.9947 18.1599 67.2135 18.1777 67.4688 18.2014C67.7363 18.2133 68.0706 18.237 68.4717 18.2726C68.8851 18.3082 69.4382 18.3557 70.1311 18.4151C70.4472 18.4507 70.745 18.5159 71.0246 18.6109C71.3042 18.7059 71.5474 18.8424 71.754 19.0204C71.9607 19.1866 72.1248 19.3884 72.2464 19.6258C72.368 19.8631 72.4287 20.1421 72.4287 20.4626C72.4287 21.1035 72.2585 21.6317 71.9182 22.0472C71.5899 22.4507 71.1584 22.7712 70.6235 23.0086C70.1007 23.246 69.5051 23.4122 68.8364 23.5071C68.18 23.6021 67.5235 23.6496 66.8671 23.6496C66.2471 23.6496 65.6696 23.6258 65.1347 23.5783C64.612 23.5309 64.1318 23.4359 63.6942 23.2935C63.2565 23.1392 62.8675 22.9314 62.5271 22.6703C62.1867 22.3973 61.895 22.0412 61.6518 21.602Z" fill="#4D3BBD"/>
<path d="M76.0477 9.95795H76.3213V15.4061C76.5522 14.9788 76.8562 14.5871 77.233 14.231C77.6099 13.8749 78.0414 13.5722 78.5277 13.323C79.014 13.0619 79.5489 12.8601 80.1324 12.7176C80.7281 12.5752 81.3541 12.504 82.0106 12.504C83.0074 12.504 83.8584 12.6227 84.5635 12.8601C85.2807 13.0856 85.8643 13.3705 86.3141 13.7147C86.7639 14.047 87.0921 14.4031 87.2988 14.7829C87.5054 15.1509 87.6087 15.4714 87.6087 15.7444V23.5605H87.3535V15.7444C87.3535 15.5189 87.2501 15.2399 87.0435 14.9076C86.849 14.5634 86.5329 14.231 86.0952 13.9105C85.6698 13.5901 85.1166 13.3171 84.4359 13.0915C83.7672 12.866 82.9588 12.7532 82.0106 12.7532C81.3298 12.7532 80.722 12.8245 80.1871 12.9669C79.6522 13.1093 79.1781 13.2874 78.7648 13.501C78.3514 13.7147 77.9989 13.9521 77.7071 14.2132C77.4154 14.4743 77.1722 14.7295 76.9777 14.9788C76.8075 15.2162 76.6556 15.4476 76.5218 15.6732C76.3881 15.8987 76.3213 16.1658 76.3213 16.4744V23.5605H76.0477V9.95795Z" fill="#4D3BBD"/>
<path d="M95.0373 17.7563C94.7212 17.78 94.3747 17.8275 93.9979 17.8987C93.6332 17.9699 93.2806 18.0768 92.9403 18.2192C92.5999 18.3616 92.2899 18.5516 92.0103 18.7889C91.7428 19.0145 91.5544 19.2934 91.445 19.6258C91.3356 19.8988 91.2869 20.1955 91.2991 20.516C91.2991 20.8958 91.3781 21.2578 91.5362 21.602C91.6942 21.9344 91.9434 22.2074 92.2838 22.4211C92.5756 22.6347 92.9099 22.8009 93.2867 22.9196C93.6757 23.0383 94.0708 23.1273 94.472 23.1866C94.8853 23.246 95.2926 23.2816 95.6937 23.2935C96.1071 23.3053 96.4839 23.3113 96.8243 23.3113H101.839V16.3675C101.705 16.5337 101.499 16.6821 101.219 16.8127C100.952 16.9314 100.648 17.0382 100.307 17.1331C99.9668 17.2281 99.6021 17.3112 99.2131 17.3824C98.8241 17.4417 98.4472 17.4952 98.0825 17.5426C97.7178 17.5782 97.3775 17.6079 97.0614 17.6317C96.7453 17.6554 96.4839 17.6732 96.2773 17.6851C95.9004 17.7088 95.5965 17.7266 95.3655 17.7385C95.3047 17.7504 95.2379 17.7563 95.1649 17.7563H95.0373ZM91.0256 20.5338C91.0256 19.9878 91.1411 19.5308 91.372 19.1628C91.6152 18.7949 91.9252 18.4981 92.302 18.2726C92.691 18.0352 93.1226 17.8572 93.5967 17.7385C94.0708 17.6198 94.5449 17.5426 95.0191 17.507C95.1285 17.4833 95.3716 17.4655 95.7485 17.4536C95.9794 17.4417 96.2834 17.4239 96.6602 17.4002C97.0492 17.3765 97.4686 17.3409 97.9184 17.2934C98.3682 17.234 98.818 17.1687 99.2678 17.0975C99.7298 17.0144 100.144 16.9195 100.52 16.8127C100.897 16.694 101.213 16.5515 101.456 16.3853C101.699 16.2192 101.827 16.0293 101.839 15.8156V12.6642H91.682V15.6413H91.4267V12.4328V12.4328C91.4267 12.4229 91.4347 12.415 91.4446 12.415H102.079C102.098 12.415 102.112 12.4299 102.112 12.4483V23.5605H96.8243C96.4596 23.5605 96.0645 23.5546 95.639 23.5427C95.2136 23.519 94.782 23.4774 94.3444 23.4181C93.9189 23.3469 93.5055 23.246 93.1044 23.1154C92.7032 22.9849 92.3446 22.8068 92.0285 22.5813C91.7246 22.3558 91.4815 22.0768 91.2991 21.7445C91.1168 21.4121 91.0256 21.0086 91.0256 20.5338Z" fill="#4D3BBD"/>
<path d="M105.761 22.2074L105.779 22.1896C105.816 22.154 105.876 22.0887 105.961 21.9937C106.059 21.8988 106.156 21.7979 106.253 21.6911L106.618 21.2994L107.511 22.2074L106.618 23.0976L105.761 22.2074Z" fill="#4D3BBD"/>
<path d="M113.008 14.0409V11.3645H113.281V14.0409H118.387V14.2901H113.281V21.513C113.281 21.8098 113.342 22.0709 113.464 22.2964C113.597 22.5219 113.768 22.7119 113.974 22.8662C114.193 23.0086 114.43 23.1214 114.685 23.2044C114.953 23.2757 115.226 23.3113 115.506 23.3113H120.138V23.5605H115.506C115.153 23.5605 114.825 23.5131 114.521 23.4181C114.23 23.3113 113.968 23.1688 113.737 22.9908C113.506 22.8127 113.324 22.5991 113.19 22.3498C113.069 22.1006 113.008 21.8216 113.008 21.513V14.2901H111.987V14.0409H113.008Z" fill="#4D3BBD"/>
<path d="M122.549 18.1124C122.549 17.2103 122.683 16.4032 122.95 15.691C123.217 14.9788 123.6 14.3794 124.099 13.8927C124.609 13.4061 125.217 13.0381 125.922 12.7889C126.64 12.5277 127.436 12.3972 128.311 12.3972C129.186 12.3972 129.977 12.5337 130.682 12.8067C131.399 13.0797 132.007 13.4714 132.505 13.9817C133.004 14.4803 133.387 15.0797 133.654 15.78C133.921 16.4803 134.055 17.2578 134.055 18.1124C134.055 19.0263 133.921 19.8335 133.654 20.5338C133.387 21.2341 133.004 21.8276 132.505 22.3142C132.007 22.8009 131.399 23.1688 130.682 23.4181C129.977 23.6674 129.186 23.792 128.311 23.792C127.436 23.792 126.64 23.6555 125.922 23.3825C125.217 23.1095 124.609 22.7237 124.099 22.2252C123.6 21.7267 123.217 21.1332 122.95 20.4448C122.683 19.7445 122.549 18.967 122.549 18.1124ZM124.245 14.1064C123.296 15.0678 122.822 16.4032 122.822 18.1124C122.822 18.9314 122.95 19.6732 123.205 20.3379C123.461 21.0026 123.825 21.5724 124.299 22.0472C124.786 22.5219 125.363 22.8899 126.032 23.151C126.713 23.4122 127.472 23.5427 128.311 23.5427C129.186 23.5427 129.958 23.4181 130.627 23.1688C131.308 22.9196 131.879 22.5635 132.341 22.1006C132.815 21.6258 133.174 21.056 133.417 20.3913C133.66 19.7148 133.782 18.9551 133.782 18.1124C133.782 17.2934 133.654 16.5515 133.399 15.8868C133.156 15.2103 132.797 14.6346 132.323 14.1598C131.849 13.685 131.271 13.3171 130.59 13.0559C129.922 12.7948 129.162 12.6642 128.311 12.6642C126.548 12.6642 125.193 13.1449 124.245 14.1064Z" fill="#4D3BBD"/>
<path d="M137.752 20.0353C137.642 19.7266 137.557 19.418 137.497 19.1094C137.436 18.7889 137.405 18.4685 137.405 18.148C137.405 18.1242 137.399 18.059 137.387 17.9521C137.387 17.8453 137.399 17.6969 137.424 17.507C137.448 17.3171 137.491 17.0975 137.551 16.8483C137.624 16.5871 137.728 16.2904 137.861 15.958C138.141 15.2933 138.53 14.7058 139.028 14.1954C139.539 13.6613 140.153 13.2399 140.87 12.9313C141.587 12.6227 142.42 12.4684 143.368 12.4684C144.061 12.4684 144.699 12.5396 145.283 12.682C145.866 12.8126 146.389 12.9906 146.851 13.2162C147.313 13.4298 147.708 13.685 148.036 13.9817C148.365 14.2666 148.614 14.5634 148.784 14.872V9.95795H149.039V23.5605H143.861C143.01 23.5605 142.244 23.4715 141.563 23.2935C140.894 23.1036 140.305 22.8484 139.794 22.5279C139.284 22.2074 138.858 21.8335 138.518 21.4062C138.19 20.9789 137.934 20.5219 137.752 20.0353ZM137.734 18.1836C137.734 18.8958 137.873 19.5664 138.153 20.1955C138.445 20.8127 138.852 21.3528 139.375 21.8157C139.91 22.2786 140.554 22.6466 141.308 22.9196C142.061 23.1807 142.912 23.3113 143.861 23.3113H148.784V15.7444C148.76 15.507 148.681 15.2637 148.547 15.0144C148.413 14.7533 148.207 14.4981 147.927 14.2488C147.477 13.8334 146.869 13.4773 146.104 13.1806C145.338 12.8838 144.426 12.7354 143.368 12.7354C142.554 12.7354 141.8 12.8838 141.107 13.1806C140.426 13.4773 139.831 13.8749 139.32 14.3734C138.822 14.872 138.433 15.4536 138.153 16.1183C137.873 16.7711 137.734 17.4595 137.734 18.1836Z" fill="#4D3BBD"/>
<path d="M166.983 12.4663C167.165 12.5138 167.329 12.5909 167.475 12.6978C167.633 12.7927 167.779 12.9055 167.913 13.036C168.132 13.2734 168.314 13.5702 168.46 13.9263C168.618 14.2705 168.752 14.7397 168.861 15.1551C168.983 15.5587 169.039 15.9224 169.124 16.3853C169.221 16.8364 169.313 17.1806 169.398 17.6317C169.52 18.3082 169.694 19.048 169.828 19.6771C169.961 20.2943 170.132 20.8522 170.338 21.3507H176.793L178.726 12.4485H179L178.935 12.7303L178.872 13.0182C178.872 13.0182 178.787 13.404 178.726 13.6414C178.678 13.8788 178.623 14.1458 178.562 14.4426C178.477 14.8224 178.386 15.2379 178.289 15.6889C178.191 16.1399 178.117 16.6815 178.007 17.1563C177.91 17.6192 177.842 17.9941 177.733 18.4807C177.635 18.9555 177.572 19.4163 177.475 19.8555C177.366 20.3777 177.241 20.9426 177.132 21.4649C177.022 21.9872 176.857 22.5058 176.702 23.0243C176.508 23.6772 176.24 24.2172 175.9 24.6445C175.572 25.0837 175.183 25.4339 174.733 25.695C174.295 25.968 173.809 26.1638 173.274 26.2825C172.739 26.4131 172.174 26.4903 171.578 26.514H171.104C170.557 26.514 169.998 26.4784 169.426 26.4072C168.867 26.3359 168.241 26.241 167.548 26.1223L167.585 25.8552C168.278 25.9739 168.904 26.0689 169.463 26.1401C170.022 26.2113 170.569 26.2469 171.104 26.2469H171.56C172.156 26.2232 172.715 26.146 173.238 26.0155C173.76 25.8968 174.228 25.7069 174.642 25.4457C175.055 25.1965 175.414 24.8641 175.718 24.4487C176.021 24.0451 176.259 23.5466 176.429 22.9531L176.72 21.6H170.156L169.725 20.0672L169.261 18.2566L168.861 16.3853C168.764 15.9224 168.684 15.5587 168.574 15.1551C168.465 14.7397 168.381 14.3358 168.223 14.0153C168.077 13.6948 167.901 13.4277 167.694 13.2141C167.487 12.9886 167.25 12.8343 166.983 12.7512V12.4663Z" fill="#4D3BBD"/>
<path d="M40.6005 9.95795H40.874V15.4061C41.105 14.9788 41.4089 14.5871 41.7858 14.231C42.1626 13.8749 42.5942 13.5722 43.0805 13.323C43.5667 13.0619 44.1016 12.8601 44.6851 12.7176C45.2808 12.5752 45.9069 12.504 46.5634 12.504C47.5602 12.504 48.4112 12.6227 49.1163 12.8601C49.8335 13.0856 50.417 13.3705 50.8668 13.7147C51.3166 14.047 51.6449 14.4031 51.8515 14.7829C52.0582 15.1509 52.1615 15.4714 52.1615 15.7444V23.5605H51.9062V15.7444C51.9062 15.5189 51.8029 15.2399 51.5962 14.9076C51.4017 14.5634 51.0856 14.231 50.648 13.9105C50.2225 13.5901 49.6694 13.3171 48.9886 13.0915C48.32 12.866 47.5116 12.7532 46.5634 12.7532C45.8826 12.7532 45.2747 12.8245 44.7399 12.9669C44.205 13.1093 43.7308 13.2874 43.3175 13.501C42.9042 13.7147 42.5516 13.9521 42.2599 14.2132C41.9681 14.4743 41.725 14.7295 41.5305 14.9788C41.3603 15.2162 41.2083 15.4476 41.0746 15.6732C40.9409 15.8987 40.874 16.1658 40.874 16.4744V23.5605H40.6005V9.95795Z" stroke="#4D3BBD" stroke-width="2" mask="url(#path-28-outside-1_22_5)"/>
<path d="M56.6755 14.2666V23.5605H56.4019V14.2666H56.6755ZM55.9096 10.9728L55.9278 10.955C55.9521 10.9313 55.9947 10.8897 56.0555 10.8304C56.1163 10.7591 56.177 10.6879 56.2378 10.6167C56.2743 10.5692 56.3108 10.5277 56.3472 10.4921C56.3959 10.4446 56.4445 10.3971 56.4931 10.3496L57.1131 10.9728L56.4931 11.596L55.9096 10.9728Z" stroke="#4D3BBD" stroke-width="2" mask="url(#path-28-outside-1_22_5)"/>
<path d="M61.6518 21.602C61.3358 21.0323 61.1657 20.6037 61.097 19.8996H61.3889C61.4576 20.4193 61.5607 20.789 61.8889 21.4418C62.2171 22.0946 62.7277 22.5754 63.4206 22.884C63.7124 23.0383 64.1683 23.1629 64.7883 23.2579C65.4204 23.3528 66.1073 23.4003 66.8488 23.4003C67.2986 23.4003 67.7484 23.3825 68.1982 23.3469C68.6602 23.2994 69.0917 23.2282 69.4929 23.1332C69.9062 23.0383 70.2831 22.9196 70.6235 22.7771C70.9639 22.6228 71.2374 22.4389 71.444 22.2252C71.7115 21.9522 71.8938 21.6614 71.9911 21.3528C72.1005 21.0442 72.1552 20.7712 72.1552 20.5338C72.1552 20.4032 72.1248 20.2133 72.064 19.964C72.0154 19.7148 71.8331 19.4536 71.517 19.1806C71.1888 18.8958 70.7207 18.7296 70.1129 18.6821C69.7847 18.6584 69.4868 18.6346 69.2194 18.6109C68.9641 18.5872 68.7331 18.5634 68.5264 18.5397L67.5235 18.4507C67.2561 18.4269 67.0251 18.4091 66.8306 18.3972C66.6482 18.3854 66.4416 18.3735 66.2106 18.3616C65.9796 18.3379 65.6939 18.3082 65.3535 18.2726C65.0132 18.237 64.5573 18.1836 63.9859 18.1124C63.5483 18.0649 63.1653 17.9581 62.8371 17.7919C62.521 17.6257 62.2597 17.4299 62.053 17.2044C61.8463 16.967 61.6944 16.7118 61.5971 16.4388C61.4999 16.1539 61.4512 15.875 61.4512 15.602C61.4512 15.5426 61.4573 15.3942 61.4695 15.1568C61.4816 14.9076 61.6275 14.5871 61.9071 14.1954C62.1503 13.8512 62.4542 13.5663 62.8189 13.3408C63.1836 13.1034 63.5787 12.9194 64.0041 12.7889C64.4418 12.6464 64.8855 12.5455 65.3353 12.4862C65.7851 12.4268 66.2106 12.3972 66.6118 12.3972C66.9765 12.3972 67.3655 12.4209 67.7788 12.4684C68.2043 12.5159 68.648 12.5989 69.11 12.7176C69.1221 12.7176 69.1343 12.7236 69.1464 12.7354C69.1586 12.7354 69.1707 12.7354 69.1829 12.7354C70.2405 13.0559 71.0307 13.5901 71.5535 14.3378C71.754 14.6248 72.2464 15.3121 72.4604 16.4522H72.2029C71.9453 15.6642 71.9668 15.6672 71.6629 15.0856C71.3589 14.504 70.9639 14.0352 70.4776 13.6791C69.9913 13.3111 69.42 13.05 68.7635 12.8957C68.107 12.7295 67.3776 12.6464 66.5753 12.6464C65.8459 12.6464 65.1834 12.7176 64.5877 12.8601C64.0042 13.0025 63.5361 13.1805 63.1836 13.3942C62.7824 13.6316 62.4359 13.958 62.1442 14.3734C61.8646 14.7889 61.7248 15.2221 61.7248 15.6732C61.7248 16.2192 61.9314 16.6999 62.3448 17.1153C62.7702 17.5308 63.3295 17.78 64.0224 17.8631C64.6059 17.9225 65.0618 17.9699 65.39 18.0056C65.7304 18.0412 66.01 18.0708 66.2288 18.0946C66.4476 18.1064 66.6422 18.1242 66.8123 18.148C66.9947 18.1599 67.2135 18.1777 67.4688 18.2014C67.7363 18.2133 68.0706 18.237 68.4717 18.2726C68.8851 18.3082 69.4382 18.3557 70.1311 18.4151C70.4472 18.4507 70.745 18.5159 71.0246 18.6109C71.3042 18.7059 71.5474 18.8424 71.754 19.0204C71.9607 19.1866 72.1248 19.3884 72.2464 19.6258C72.368 19.8631 72.4287 20.1421 72.4287 20.4626C72.4287 21.1035 72.2585 21.6317 71.9182 22.0472C71.5899 22.4507 71.1584 22.7712 70.6235 23.0086C70.1007 23.246 69.5051 23.4122 68.8364 23.5071C68.18 23.6021 67.5235 23.6496 66.8671 23.6496C66.2471 23.6496 65.6696 23.6258 65.1347 23.5783C64.612 23.5309 64.1318 23.4359 63.6942 23.2935C63.2565 23.1392 62.8675 22.9314 62.5271 22.6703C62.1867 22.3973 61.895 22.0412 61.6518 21.602Z" stroke="#4D3BBD" stroke-width="2" mask="url(#path-28-outside-1_22_5)"/>
<path d="M76.0477 9.95795H76.3213V15.4061C76.5522 14.9788 76.8562 14.5871 77.233 14.231C77.6099 13.8749 78.0414 13.5722 78.5277 13.323C79.014 13.0619 79.5489 12.8601 80.1324 12.7176C80.7281 12.5752 81.3541 12.504 82.0106 12.504C83.0074 12.504 83.8584 12.6227 84.5635 12.8601C85.2807 13.0856 85.8643 13.3705 86.3141 13.7147C86.7639 14.047 87.0921 14.4031 87.2988 14.7829C87.5054 15.1509 87.6087 15.4714 87.6087 15.7444V23.5605H87.3535V15.7444C87.3535 15.5189 87.2501 15.2399 87.0435 14.9076C86.849 14.5634 86.5329 14.231 86.0952 13.9105C85.6698 13.5901 85.1166 13.3171 84.4359 13.0915C83.7672 12.866 82.9588 12.7532 82.0106 12.7532C81.3298 12.7532 80.722 12.8245 80.1871 12.9669C79.6522 13.1093 79.1781 13.2874 78.7648 13.501C78.3514 13.7147 77.9989 13.9521 77.7071 14.2132C77.4154 14.4743 77.1722 14.7295 76.9777 14.9788C76.8075 15.2162 76.6556 15.4476 76.5218 15.6732C76.3881 15.8987 76.3213 16.1658 76.3213 16.4744V23.5605H76.0477V9.95795Z" stroke="#4D3BBD" stroke-width="2" mask="url(#path-28-outside-1_22_5)"/>
<path d="M95.0373 17.7563C94.7212 17.78 94.3747 17.8275 93.9979 17.8987C93.6332 17.9699 93.2806 18.0768 92.9403 18.2192C92.5999 18.3616 92.2899 18.5516 92.0103 18.7889C91.7428 19.0145 91.5544 19.2934 91.445 19.6258C91.3356 19.8988 91.2869 20.1955 91.2991 20.516C91.2991 20.8958 91.3781 21.2578 91.5362 21.602C91.6942 21.9344 91.9434 22.2074 92.2838 22.4211C92.5756 22.6347 92.9099 22.8009 93.2867 22.9196C93.6757 23.0383 94.0708 23.1273 94.472 23.1866C94.8853 23.246 95.2926 23.2816 95.6937 23.2935C96.1071 23.3053 96.4839 23.3113 96.8243 23.3113H101.839V16.3675C101.705 16.5337 101.499 16.6821 101.219 16.8127C100.952 16.9314 100.648 17.0382 100.307 17.1331C99.9668 17.2281 99.6021 17.3112 99.2131 17.3824C98.8241 17.4417 98.4472 17.4952 98.0825 17.5426C97.7178 17.5782 97.3775 17.6079 97.0614 17.6317C96.7453 17.6554 96.4839 17.6732 96.2773 17.6851C95.9004 17.7088 95.5965 17.7266 95.3655 17.7385C95.3047 17.7504 95.2379 17.7563 95.1649 17.7563H95.0373ZM91.0256 20.5338C91.0256 19.9878 91.1411 19.5308 91.372 19.1628C91.6152 18.7949 91.9252 18.4981 92.302 18.2726C92.691 18.0352 93.1226 17.8572 93.5967 17.7385C94.0708 17.6198 94.5449 17.5426 95.0191 17.507C95.1285 17.4833 95.3716 17.4655 95.7485 17.4536C95.9794 17.4417 96.2834 17.4239 96.6602 17.4002C97.0492 17.3765 97.4686 17.3409 97.9184 17.2934C98.3682 17.234 98.818 17.1687 99.2678 17.0975C99.7298 17.0144 100.144 16.9195 100.52 16.8127C100.897 16.694 101.213 16.5515 101.456 16.3853C101.699 16.2192 101.827 16.0293 101.839 15.8156V12.6642H91.682V15.6413H91.4267V12.4328V12.4328C91.4267 12.4229 91.4347 12.415 91.4446 12.415H102.079C102.098 12.415 102.112 12.4299 102.112 12.4483V23.5605H96.8243C96.4596 23.5605 96.0645 23.5546 95.639 23.5427C95.2136 23.519 94.782 23.4774 94.3444 23.4181C93.9189 23.3469 93.5055 23.246 93.1044 23.1154C92.7032 22.9849 92.3446 22.8068 92.0285 22.5813C91.7246 22.3558 91.4815 22.0768 91.2991 21.7445C91.1168 21.4121 91.0256 21.0086 91.0256 20.5338Z" stroke="#4D3BBD" stroke-width="2" mask="url(#path-28-outside-1_22_5)"/>
<path d="M105.761 22.2074L105.779 22.1896C105.816 22.154 105.876 22.0887 105.961 21.9937C106.059 21.8988 106.156 21.7979 106.253 21.6911L106.618 21.2994L107.511 22.2074L106.618 23.0976L105.761 22.2074Z" stroke="#4D3BBD" stroke-width="2" mask="url(#path-28-outside-1_22_5)"/>
<path d="M113.008 14.0409V11.3645H113.281V14.0409H118.387V14.2901H113.281V21.513C113.281 21.8098 113.342 22.0709 113.464 22.2964C113.597 22.5219 113.768 22.7119 113.974 22.8662C114.193 23.0086 114.43 23.1214 114.685 23.2044C114.953 23.2757 115.226 23.3113 115.506 23.3113H120.138V23.5605H115.506C115.153 23.5605 114.825 23.5131 114.521 23.4181C114.23 23.3113 113.968 23.1688 113.737 22.9908C113.506 22.8127 113.324 22.5991 113.19 22.3498C113.069 22.1006 113.008 21.8216 113.008 21.513V14.2901H111.987V14.0409H113.008Z" stroke="#4D3BBD" stroke-width="2" mask="url(#path-28-outside-1_22_5)"/>
<path d="M122.549 18.1124C122.549 17.2103 122.683 16.4032 122.95 15.691C123.217 14.9788 123.6 14.3794 124.099 13.8927C124.609 13.4061 125.217 13.0381 125.922 12.7889C126.64 12.5277 127.436 12.3972 128.311 12.3972C129.186 12.3972 129.977 12.5337 130.682 12.8067C131.399 13.0797 132.007 13.4714 132.505 13.9817C133.004 14.4803 133.387 15.0797 133.654 15.78C133.921 16.4803 134.055 17.2578 134.055 18.1124C134.055 19.0263 133.921 19.8335 133.654 20.5338C133.387 21.2341 133.004 21.8276 132.505 22.3142C132.007 22.8009 131.399 23.1688 130.682 23.4181C129.977 23.6674 129.186 23.792 128.311 23.792C127.436 23.792 126.64 23.6555 125.922 23.3825C125.217 23.1095 124.609 22.7237 124.099 22.2252C123.6 21.7267 123.217 21.1332 122.95 20.4448C122.683 19.7445 122.549 18.967 122.549 18.1124ZM124.245 14.1064C123.296 15.0678 122.822 16.4032 122.822 18.1124C122.822 18.9314 122.95 19.6732 123.205 20.3379C123.461 21.0026 123.825 21.5724 124.299 22.0472C124.786 22.5219 125.363 22.8899 126.032 23.151C126.713 23.4122 127.472 23.5427 128.311 23.5427C129.186 23.5427 129.958 23.4181 130.627 23.1688C131.308 22.9196 131.879 22.5635 132.341 22.1006C132.815 21.6258 133.174 21.056 133.417 20.3913C133.66 19.7148 133.782 18.9551 133.782 18.1124C133.782 17.2934 133.654 16.5515 133.399 15.8868C133.156 15.2103 132.797 14.6346 132.323 14.1598C131.849 13.685 131.271 13.3171 130.59 13.0559C129.922 12.7948 129.162 12.6642 128.311 12.6642C126.548 12.6642 125.193 13.1449 124.245 14.1064Z" stroke="#4D3BBD" stroke-width="2" mask="url(#path-28-outside-1_22_5)"/>
<path d="M137.752 20.0353C137.642 19.7266 137.557 19.418 137.497 19.1094C137.436 18.7889 137.405 18.4685 137.405 18.148C137.405 18.1242 137.399 18.059 137.387 17.9521C137.387 17.8453 137.399 17.6969 137.424 17.507C137.448 17.3171 137.491 17.0975 137.551 16.8483C137.624 16.5871 137.728 16.2904 137.861 15.958C138.141 15.2933 138.53 14.7058 139.028 14.1954C139.539 13.6613 140.153 13.2399 140.87 12.9313C141.587 12.6227 142.42 12.4684 143.368 12.4684C144.061 12.4684 144.699 12.5396 145.283 12.682C145.866 12.8126 146.389 12.9906 146.851 13.2162C147.313 13.4298 147.708 13.685 148.036 13.9817C148.365 14.2666 148.614 14.5634 148.784 14.872V9.95795H149.039V23.5605H143.861C143.01 23.5605 142.244 23.4715 141.563 23.2935C140.894 23.1036 140.305 22.8484 139.794 22.5279C139.284 22.2074 138.858 21.8335 138.518 21.4062C138.19 20.9789 137.934 20.5219 137.752 20.0353ZM137.734 18.1836C137.734 18.8958 137.873 19.5664 138.153 20.1955C138.445 20.8127 138.852 21.3528 139.375 21.8157C139.91 22.2786 140.554 22.6466 141.308 22.9196C142.061 23.1807 142.912 23.3113 143.861 23.3113H148.784V15.7444C148.76 15.507 148.681 15.2637 148.547 15.0144C148.413 14.7533 148.207 14.4981 147.927 14.2488C147.477 13.8334 146.869 13.4773 146.104 13.1806C145.338 12.8838 144.426 12.7354 143.368 12.7354C142.554 12.7354 141.8 12.8838 141.107 13.1806C140.426 13.4773 139.831 13.8749 139.32 14.3734C138.822 14.872 138.433 15.4536 138.153 16.1183C137.873 16.7711 137.734 17.4595 137.734 18.1836Z" stroke="#4D3BBD" stroke-width="2" mask="url(#path-28-outside-1_22_5)"/>
<path d="M166.983 12.4663C167.165 12.5138 167.329 12.5909 167.475 12.6978C167.633 12.7927 167.779 12.9055 167.913 13.036C168.132 13.2734 168.314 13.5702 168.46 13.9263C168.618 14.2705 168.752 14.7397 168.861 15.1551C168.983 15.5587 169.039 15.9224 169.124 16.3853C169.221 16.8364 169.313 17.1806 169.398 17.6317C169.52 18.3082 169.694 19.048 169.828 19.6771C169.961 20.2943 170.132 20.8522 170.338 21.3507H176.793L178.726 12.4485H179L178.935 12.7303L178.872 13.0182C178.872 13.0182 178.787 13.404 178.726 13.6414C178.678 13.8788 178.623 14.1458 178.562 14.4426C178.477 14.8224 178.386 15.2379 178.289 15.6889C178.191 16.1399 178.117 16.6815 178.007 17.1563C177.91 17.6192 177.842 17.9941 177.733 18.4807C177.635 18.9555 177.572 19.4163 177.475 19.8555C177.366 20.3777 177.241 20.9426 177.132 21.4649C177.022 21.9872 176.857 22.5058 176.702 23.0243C176.508 23.6772 176.24 24.2172 175.9 24.6445C175.572 25.0837 175.183 25.4339 174.733 25.695C174.295 25.968 173.809 26.1638 173.274 26.2825C172.739 26.4131 172.174 26.4903 171.578 26.514H171.104C170.557 26.514 169.998 26.4784 169.426 26.4072C168.867 26.3359 168.241 26.241 167.548 26.1223L167.585 25.8552C168.278 25.9739 168.904 26.0689 169.463 26.1401C170.022 26.2113 170.569 26.2469 171.104 26.2469H171.56C172.156 26.2232 172.715 26.146 173.238 26.0155C173.76 25.8968 174.228 25.7069 174.642 25.4457C175.055 25.1965 175.414 24.8641 175.718 24.4487C176.021 24.0451 176.259 23.5466 176.429 22.9531L176.72 21.6H170.156L169.725 20.0672L169.261 18.2566L168.861 16.3853C168.764 15.9224 168.684 15.5587 168.574 15.1551C168.465 14.7397 168.381 14.3358 168.223 14.0153C168.077 13.6948 167.901 13.4277 167.694 13.2141C167.487 12.9886 167.25 12.8343 166.983 12.7512V12.4663Z" stroke="#4D3BBD" stroke-width="2" mask="url(#path-28-outside-1_22_5)"/>
<path d="M156.379 17.8484C156.063 17.8721 155.716 17.9196 155.339 17.9908C154.975 18.062 154.622 18.1688 154.282 18.3113C153.941 18.4537 153.631 18.6436 153.352 18.881C153.084 19.1065 152.896 19.3855 152.786 19.7178C152.677 19.9908 152.628 20.2876 152.641 20.608C152.641 20.9879 152.72 21.3499 152.878 21.6941C153.036 22.0265 153.285 22.2995 153.625 22.5131C153.917 22.7268 154.251 22.8929 154.628 23.0116C155.017 23.1303 155.412 23.2194 155.813 23.2787C156.227 23.338 156.634 23.3737 157.035 23.3855C157.449 23.3974 157.825 23.4033 158.166 23.4033H163.18V16.4596C163.047 16.6258 162.84 16.7741 162.56 16.9047C162.293 17.0234 161.989 17.1302 161.649 17.2252C161.308 17.3202 160.944 17.4032 160.555 17.4745C160.166 17.5338 159.789 17.5872 159.424 17.6347C159.059 17.6703 158.719 17.7 158.403 17.7237C158.087 17.7475 157.825 17.7653 157.619 17.7771C157.242 17.8009 156.938 17.8187 156.707 17.8305C156.646 17.8424 156.579 17.8484 156.506 17.8484H156.379ZM152.367 20.6258C152.367 20.0798 152.483 19.6229 152.714 19.2549C152.957 18.8869 153.267 18.5902 153.644 18.3647C154.033 18.1273 154.464 17.9492 154.938 17.8305C155.412 17.7118 155.886 17.6347 156.361 17.5991C156.47 17.5753 156.713 17.5575 157.09 17.5457C157.321 17.5338 157.625 17.516 158.002 17.4923C158.391 17.4685 158.81 17.4329 159.26 17.3854C159.71 17.3261 160.16 17.2608 160.609 17.1896C161.071 17.1065 161.491 17.0115 161.868 16.9047C162.244 16.786 162.554 16.6436 162.798 16.4774C163.041 16.3112 163.168 16.1213 163.18 15.9077V12.7563H153.024V15.7333H152.768V12.5248V12.5248C152.768 12.515 152.776 12.507 152.786 12.507H163.421C163.439 12.507 163.454 12.5219 163.454 12.5403V23.6526H158.166C157.801 23.6526 157.406 23.6467 156.981 23.6348C156.555 23.6111 156.123 23.5695 155.686 23.5102C155.26 23.4389 154.847 23.3381 154.446 23.2075C154.045 23.0769 153.686 22.8989 153.37 22.6734C153.066 22.4478 152.823 22.1689 152.641 21.8365C152.458 21.5042 152.367 21.1006 152.367 20.6258Z" fill="#4D3BBD"/>
<path d="M162.764 17.2687C162.755 17.2731 162.746 17.2775 162.737 17.2818L162.729 17.2852L162.729 17.2851C162.44 17.4135 162.117 17.5268 161.761 17.6261C161.407 17.7248 161.03 17.8106 160.63 17.8839L160.617 17.8861L160.617 17.8859C160.226 17.9457 159.846 17.9995 159.478 18.0474L159.464 18.0491L159.464 18.0489C159.097 18.0848 158.754 18.1147 158.434 18.1388C158.117 18.1625 157.854 18.1805 157.644 18.1926M162.764 17.2687L157.643 18.1926C157.643 18.1926 157.643 18.1926 157.644 18.1926M162.764 17.2687V22.9871H158.166C157.83 22.9871 157.457 22.9813 157.047 22.9695C156.663 22.9581 156.272 22.924 155.874 22.8669C155.494 22.8106 155.12 22.7264 154.752 22.6141C154.415 22.5079 154.123 22.3614 153.871 22.1773L153.859 22.1685L153.847 22.1606C153.568 21.9856 153.376 21.7711 153.255 21.5178C153.123 21.2291 153.057 20.9271 153.057 20.608V20.6001L153.056 20.5923C153.046 20.3248 153.087 20.0867 153.173 19.8726L153.178 19.8604L153.182 19.848C153.267 19.5888 153.412 19.375 153.62 19.1992L153.621 19.1983C153.868 18.9887 154.141 18.8212 154.442 18.6952C154.756 18.5639 155.081 18.4653 155.418 18.3995C155.776 18.3319 156.101 18.2873 156.395 18.2646H156.506C156.591 18.2646 156.674 18.2585 156.755 18.2448M157.644 18.1926C157.281 18.2154 156.984 18.2329 156.755 18.2448M157.644 18.1926C157.644 18.1926 157.645 18.1925 157.645 18.1925L156.755 18.2448M157.073 17.1298C156.732 17.1406 156.463 17.1568 156.304 17.186C155.814 17.2242 155.325 17.3046 154.837 17.4268C154.326 17.5548 153.855 17.7481 153.428 18.0085C152.998 18.2661 152.643 18.6062 152.366 19.0255L152.366 19.0254L152.361 19.0336C152.079 19.483 151.951 20.0215 151.951 20.6258C151.951 21.1532 152.052 21.6294 152.276 22.0367C152.487 22.4216 152.77 22.7463 153.122 23.0076L153.122 23.0076L153.128 23.0122C153.482 23.2643 153.879 23.4607 154.317 23.6033C154.738 23.7404 155.172 23.8461 155.617 23.9207L155.617 23.9208L155.63 23.9226C156.078 23.9834 156.521 24.026 156.957 24.0503L156.957 24.0505L156.969 24.0508C157.398 24.0628 157.797 24.0688 158.166 24.0688H163.454H163.87V23.6526V12.5403C163.87 12.2921 163.669 12.0908 163.421 12.0908H152.786C152.546 12.0908 152.352 12.2851 152.352 12.5248V15.7333V16.1495H152.768H153.024H153.44V15.7333V13.1725H162.764V15.8921C162.759 15.9355 162.731 16.0188 162.563 16.1338C162.364 16.2698 162.096 16.396 161.748 16.5059C161.389 16.6074 160.987 16.6987 160.54 16.7792C160.097 16.8493 159.654 16.9136 159.211 16.9721C158.768 17.0187 158.357 17.0536 157.976 17.0768L157.976 17.0769C157.602 17.1004 157.301 17.1181 157.073 17.1298Z" stroke="#4D3BBD" stroke-width="0.832404"/>
<rect x="0.149833" y="0.149833" width="33.6635" height="29.7432" rx="3.67922" fill="#4D3BBD" stroke="#4D3BBD" stroke-width="0.299665"/>
<path d="M20.7763 25.374L5.86651 25.374C5.86651 18.389 11.5556 19.2023 15.8776 22.5358C21.9071 26.9757 25.0547 23.3281 21.9071 20.0076L16.9286 14.9664C29.8686 9.77 31.9971 25.7805 20.7763 25.374Z" fill="white" stroke="white" stroke-width="0.0332962"/>
<path d="M13.1394 4.63409H28.0493C28.0493 11.619 22.3602 10.8057 18.0382 7.47228C12.0086 3.03234 8.8611 6.67998 12.0086 10.0005L16.9872 15.0416C4.04719 20.2381 1.9187 4.22754 13.1394 4.63409Z" fill="white" stroke="white" stroke-width="0.0332962"/>
<circle cx="193" cy="7" r="6.65" fill="#8D82CB" stroke="#8D82CB" stroke-width="0.7"/>
<path d="M191.595 10.68V5.29702C191.595 4.89569 191.665 4.57602 191.805 4.33802C191.95 4.09535 192.143 3.92035 192.386 3.81302C192.629 3.70102 192.899 3.64502 193.198 3.64502C193.515 3.64502 193.784 3.69635 194.003 3.79902C194.227 3.90169 194.395 4.05335 194.507 4.25402C194.624 4.45002 194.682 4.69269 194.682 4.98202C194.682 5.20602 194.635 5.39969 194.542 5.56302C194.453 5.72169 194.334 5.85235 194.185 5.95502C194.036 6.05302 193.87 6.12069 193.688 6.15802V6.18602C193.926 6.21869 194.136 6.29102 194.318 6.40302C194.5 6.51502 194.642 6.66902 194.745 6.86502C194.852 7.05635 194.906 7.29435 194.906 7.57902C194.906 7.89635 194.834 8.16702 194.689 8.39102C194.549 8.61502 194.355 8.78535 194.108 8.90202C193.865 9.01402 193.59 9.07002 193.282 9.07002C193.114 9.07002 192.967 9.06069 192.841 9.04202C192.72 9.02335 192.61 8.99535 192.512 8.95802C192.414 8.92069 192.314 8.87869 192.211 8.83202V10.68H191.595ZM193.226 8.56602C193.553 8.56602 193.812 8.47735 194.003 8.30002C194.194 8.11802 194.29 7.86369 194.29 7.53702C194.29 7.28969 194.241 7.08669 194.143 6.92802C194.05 6.76469 193.924 6.64335 193.765 6.56402C193.611 6.48002 193.445 6.43802 193.268 6.43802H192.687V5.96202H193.198C193.375 5.96202 193.527 5.92235 193.653 5.84302C193.784 5.76369 193.882 5.65169 193.947 5.50702C194.017 5.36235 194.052 5.19669 194.052 5.01002C194.052 4.72069 193.966 4.50602 193.793 4.36602C193.625 4.22602 193.422 4.15602 193.184 4.15602C193.021 4.15602 192.864 4.18869 192.715 4.25402C192.566 4.31469 192.444 4.42902 192.351 4.59702C192.258 4.76502 192.211 5.00769 192.211 5.32502V8.27902C192.374 8.36302 192.531 8.43302 192.68 8.48902C192.829 8.54035 193.011 8.56602 193.226 8.56602Z" fill="white"/>
<path fill-rule="evenodd" clip-rule="evenodd" d="M191.395 10.88V5.29701C191.395 4.87519 191.468 4.51621 191.633 4.2366L191.633 4.23559C191.797 3.96024 192.021 3.75602 192.304 3.63075C192.575 3.50572 192.874 3.44501 193.198 3.44501C193.536 3.44501 193.834 3.49945 194.087 3.61753C194.345 3.73614 194.546 3.91504 194.68 4.15411C194.819 4.38784 194.882 4.66727 194.882 4.98201C194.882 5.23381 194.829 5.46275 194.716 5.66141C194.613 5.84644 194.473 5.99987 194.298 6.11982L194.295 6.12226C194.283 6.12989 194.271 6.13732 194.26 6.14462C194.316 6.17097 194.37 6.2003 194.423 6.23268C194.636 6.36374 194.802 6.54416 194.921 6.76968C195.048 6.998 195.106 7.27114 195.106 7.57901C195.106 7.92686 195.026 8.23648 194.858 8.49827C194.697 8.75536 194.474 8.95069 194.193 9.08289L194.192 9.08361C193.919 9.20945 193.615 9.27001 193.282 9.27001C193.107 9.27001 192.95 9.26032 192.812 9.23985L192.811 9.23969C192.678 9.21922 192.554 9.18802 192.441 9.14491C192.431 9.14113 192.421 9.13731 192.411 9.13344V10.88H191.395ZM192.211 8.83201C192.279 8.86277 192.345 8.89151 192.411 8.91822C192.445 8.93202 192.479 8.94529 192.512 8.95801C192.61 8.99534 192.72 9.02334 192.841 9.04201C192.967 9.06067 193.114 9.07001 193.282 9.07001C193.59 9.07001 193.865 9.01401 194.108 8.90201C194.355 8.78534 194.549 8.61501 194.689 8.39101C194.834 8.16701 194.906 7.89634 194.906 7.57901C194.906 7.29434 194.852 7.05634 194.745 6.86501C194.642 6.66901 194.5 6.51501 194.318 6.40301C194.227 6.34696 194.129 6.30085 194.024 6.26467C193.921 6.22915 193.811 6.2032 193.694 6.18683C193.692 6.18655 193.69 6.18628 193.688 6.18601V6.15801C193.689 6.15774 193.691 6.15746 193.692 6.15719C193.805 6.13365 193.912 6.09833 194.013 6.05123C194.072 6.0233 194.13 5.99122 194.185 5.95501C194.334 5.85234 194.453 5.72167 194.542 5.56301C194.635 5.39967 194.682 5.20601 194.682 4.98201C194.682 4.69267 194.624 4.45001 194.507 4.25401C194.395 4.05334 194.227 3.90167 194.003 3.79901C193.784 3.69634 193.515 3.64501 193.198 3.64501C192.899 3.64501 192.629 3.70101 192.386 3.81301C192.143 3.92034 191.95 4.09534 191.805 4.33801C191.665 4.57601 191.595 4.89567 191.595 5.29701V10.68H192.211V8.83201ZM193.653 5.84301C193.784 5.76367 193.882 5.65167 193.947 5.50701C194.017 5.36234 194.052 5.19667 194.052 5.01001C194.052 4.72067 193.966 4.50601 193.793 4.36601C193.625 4.22601 193.422 4.15601 193.184 4.15601C193.021 4.15601 192.864 4.18867 192.715 4.25401C192.566 4.31467 192.444 4.42901 192.351 4.59701C192.258 4.76501 192.211 5.00767 192.211 5.32501V8.27901C192.374 8.36301 192.531 8.43301 192.68 8.48901C192.829 8.54034 193.011 8.56601 193.226 8.56601C193.553 8.56601 193.812 8.47734 194.003 8.30001C194.194 8.11801 194.29 7.86367 194.29 7.53701C194.29 7.28967 194.241 7.08667 194.143 6.92801C194.05 6.76467 193.924 6.64334 193.765 6.56401C193.611 6.48001 193.445 6.43801 193.268 6.43801H192.687V5.96201H193.198C193.375 5.96201 193.527 5.92234 193.653 5.84301ZM192.748 8.30074C192.87 8.34228 193.027 8.36601 193.226 8.36601C193.515 8.36601 193.72 8.28866 193.866 8.15421C194.008 8.01859 194.09 7.82215 194.09 7.53701C194.09 7.31499 194.046 7.15146 193.973 7.03311L193.969 7.02729C193.894 6.89606 193.797 6.80348 193.676 6.74289L193.669 6.7397C193.545 6.6719 193.412 6.63801 193.268 6.63801H192.487V5.76201H193.198C193.345 5.76201 193.458 5.72944 193.546 5.67376L193.549 5.67203C193.644 5.61448 193.715 5.53407 193.765 5.42469L193.767 5.41986C193.822 5.30642 193.852 5.17136 193.852 5.01001C193.852 4.76135 193.779 4.61255 193.667 4.52136L193.665 4.51967C193.536 4.41234 193.38 4.35601 193.184 4.35601C193.048 4.35601 192.919 4.38299 192.795 4.43724L192.79 4.43937C192.691 4.47972 192.601 4.55805 192.526 4.69414C192.456 4.81901 192.411 5.02202 192.411 5.32501V8.15534C192.528 8.21194 192.64 8.26034 192.748 8.30074Z" fill="white"/>
</svg>
