<svg width="182" height="31" viewBox="0 0 182 31" fill="none" xmlns="http://www.w3.org/2000/svg">
<mask id="path-1-outside-1_2412_10420" maskUnits="userSpaceOnUse" x="38.144" y="8.27539" width="144" height="21" fill="black">
<rect fill="white" x="38.144" y="8.27539" width="144" height="21"/>
<path d="M39.144 10.2754H39.4259V15.8971C39.664 15.4562 39.9772 15.052 40.3656 14.6846C40.754 14.3172 41.1988 14.0048 41.7 13.7476C42.2011 13.4782 42.7524 13.27 43.3538 13.123C43.9677 12.976 44.613 12.9025 45.2895 12.9025C46.3169 12.9025 47.1939 13.025 47.9206 13.27C48.6598 13.5027 49.2612 13.7966 49.7248 14.1518C50.1884 14.4947 50.5267 14.8622 50.7396 15.2541C50.9526 15.6338 51.0591 15.9645 51.0591 16.2462V24.3113H50.796V16.2462C50.796 16.0135 50.6895 15.7256 50.4765 15.3827C50.2761 15.0275 49.9503 14.6846 49.4993 14.3539C49.0608 14.0232 48.4907 13.7415 47.7891 13.5088C47.1 13.2761 46.2668 13.1597 45.2895 13.1597C44.5879 13.1597 43.9614 13.2332 43.4102 13.3802C42.8589 13.5272 42.3703 13.7109 41.9443 13.9314C41.5183 14.1518 41.1549 14.3968 40.8543 14.6662C40.5536 14.9357 40.303 15.199 40.1025 15.4562C39.9271 15.7012 39.7705 15.94 39.6327 16.1727C39.4949 16.4054 39.4259 16.681 39.4259 16.9994V24.3113H39.144V10.2754Z"/>
<path d="M54.8202 14.7213V24.3113H54.5383V14.7213H54.8202ZM54.0309 11.3226L54.0497 11.3042C54.0748 11.2797 54.1186 11.2368 54.1813 11.1756C54.2439 11.1021 54.3066 11.0286 54.3692 10.9551C54.4068 10.9062 54.4444 10.8633 54.482 10.8265C54.5321 10.7775 54.5822 10.7286 54.6323 10.6796L55.2713 11.3226L54.6323 11.9656L54.0309 11.3226Z"/>
<path d="M59.0579 22.2905C58.7322 21.7026 58.5569 21.2603 58.4862 20.5338H58.787C58.8578 21.07 58.964 21.4515 59.3022 22.1251C59.6405 22.7987 60.1667 23.2948 60.8809 23.6132C61.1816 23.7724 61.6514 23.901 62.2904 23.999C62.9419 24.097 63.6498 24.146 64.4141 24.146C64.8777 24.146 65.3412 24.1276 65.8048 24.0909C66.2809 24.0419 66.7257 23.9684 67.1391 23.8704C67.5651 23.7724 67.9535 23.65 68.3043 23.503C68.6552 23.3438 68.9371 23.1539 69.15 22.9335C69.4257 22.6518 69.6136 22.3517 69.7139 22.0332C69.8266 21.7148 69.883 21.4331 69.883 21.1882C69.883 21.0534 69.8517 20.8575 69.789 20.6003C69.7389 20.3431 69.551 20.0736 69.2252 19.7919C68.8869 19.498 68.4046 19.3265 67.7781 19.2775C67.4398 19.253 67.1329 19.2285 66.8572 19.204C66.5941 19.1795 66.3561 19.155 66.1431 19.1305L65.1094 19.0387C64.8338 19.0142 64.5958 18.9958 64.3953 18.9836C64.2074 18.9713 63.9944 18.9591 63.7563 18.9468C63.5183 18.9223 63.2238 18.8917 62.873 18.855C62.5222 18.8182 62.0524 18.7631 61.4635 18.6896C61.0125 18.6406 60.6178 18.5304 60.2795 18.3589C59.9537 18.1874 59.6844 17.9854 59.4714 17.7527C59.2584 17.5077 59.1018 17.2444 59.0015 16.9627C58.9013 16.6687 58.8512 16.3809 58.8512 16.0992C58.8512 16.038 58.8575 15.8849 58.87 15.6399C58.8825 15.3827 59.0329 15.052 59.321 14.6478C59.5716 14.2927 59.8848 13.9987 60.2607 13.766C60.6366 13.521 61.0438 13.3312 61.4823 13.1965C61.9333 13.0495 62.3906 12.9454 62.8542 12.8842C63.3178 12.8229 63.7563 12.7923 64.1698 12.7923C64.5456 12.7923 64.9466 12.8168 65.3725 12.8658C65.8111 12.9148 66.2684 13.0005 66.7445 13.123C66.757 13.123 66.7695 13.1291 66.7821 13.1414C66.7946 13.1414 66.8071 13.1414 66.8197 13.1414C67.9097 13.4721 68.7241 14.0232 69.2628 14.7948C69.4695 15.0909 69.977 15.8002 70.1976 16.9765H69.9321C69.6667 16.1634 69.6888 16.1666 69.3756 15.5664C69.0623 14.9663 68.6551 14.4825 68.154 14.1151C67.6528 13.7354 67.064 13.4659 66.3874 13.3067C65.7108 13.1352 64.9591 13.0495 64.1322 13.0495C63.3804 13.0495 62.6976 13.123 62.0837 13.27C61.4823 13.4169 60.9999 13.6007 60.6366 13.8211C60.2231 14.0661 59.866 14.4029 59.5654 14.8316C59.2772 15.2602 59.1331 15.7073 59.1331 16.1727C59.1331 16.7361 59.3461 17.2321 59.7721 17.6608C60.2106 18.0895 60.7869 18.3467 61.5011 18.4324C62.1025 18.4936 62.5723 18.5426 62.9106 18.5794C63.2614 18.6161 63.5496 18.6467 63.7751 18.6712C64.0006 18.6835 64.2011 18.7019 64.3765 18.7264C64.5644 18.7386 64.7899 18.757 65.0531 18.7815C65.3287 18.7937 65.6732 18.8182 66.0867 18.855C66.5127 18.8917 67.0828 18.9407 67.7969 19.0019C68.1227 19.0387 68.4296 19.106 68.7178 19.204C69.006 19.302 69.2565 19.4428 69.4695 19.6266C69.6825 19.798 69.8517 20.0062 69.977 20.2512C70.1023 20.4962 70.1649 20.784 70.1649 21.1147C70.1649 21.776 69.9895 22.3211 69.6387 22.7497C69.3004 23.1662 68.8556 23.4969 68.3043 23.7418C67.7656 23.9868 67.1517 24.1582 66.4626 24.2562C65.786 24.3542 65.1094 24.4032 64.4329 24.4032C63.7939 24.4032 63.1988 24.3787 62.6475 24.3297C62.1087 24.2807 61.6138 24.1827 61.1628 24.0358C60.7118 23.8765 60.3108 23.6622 59.96 23.3928C59.6092 23.1111 59.3085 22.7436 59.0579 22.2905Z"/>
<path d="M73.8947 10.2754H74.1766V15.8971C74.4147 15.4562 74.7279 15.052 75.1163 14.6846C75.5047 14.3172 75.9495 14.0048 76.4506 13.7476C76.9518 13.4782 77.5031 13.27 78.1045 13.123C78.7184 12.976 79.3636 12.9025 80.0402 12.9025C81.0676 12.9025 81.9446 13.025 82.6713 13.27C83.4105 13.5027 84.0119 13.7966 84.4755 14.1518C84.9391 14.4947 85.2773 14.8622 85.4903 15.2541C85.7033 15.6338 85.8098 15.9645 85.8098 16.2462V24.3113H85.5467V16.2462C85.5467 16.0135 85.4402 15.7256 85.2272 15.3827C85.0268 15.0275 84.701 14.6846 84.25 14.3539C83.8114 14.0232 83.2414 13.7415 82.5397 13.5088C81.8507 13.2761 81.0175 13.1597 80.0402 13.1597C79.3386 13.1597 78.7121 13.2332 78.1609 13.3802C77.6096 13.5272 77.1209 13.7109 76.695 13.9314C76.269 14.1518 75.9056 14.3968 75.6049 14.6662C75.3042 14.9357 75.0537 15.199 74.8532 15.4562C74.6778 15.7012 74.5212 15.94 74.3834 16.1727C74.2455 16.4054 74.1766 16.681 74.1766 16.9994V24.3113H73.8947V10.2754Z"/>
<path d="M93.4659 18.3222C93.1401 18.3467 92.783 18.3957 92.3946 18.4691C92.0188 18.5426 91.6554 18.6529 91.3046 18.7998C90.9538 18.9468 90.6343 19.1428 90.3461 19.3877C90.0705 19.6204 89.8763 19.9083 89.7635 20.2512C89.6508 20.5329 89.6007 20.8391 89.6132 21.1698C89.6132 21.5617 89.6946 21.9353 89.8575 22.2905C90.0204 22.6334 90.2772 22.9151 90.628 23.1355C90.9287 23.356 91.2733 23.5275 91.6617 23.65C92.0626 23.7724 92.4698 23.8643 92.8833 23.9255C93.3092 23.9868 93.729 24.0235 94.1424 24.0358C94.5684 24.048 94.9568 24.0541 95.3076 24.0541H100.476V16.8892C100.338 17.0607 100.125 17.2138 99.8369 17.3485C99.5612 17.471 99.248 17.5812 98.8972 17.6792C98.5464 17.7771 98.1705 17.8629 97.7696 17.9364C97.3687 17.9976 96.9803 18.0527 96.6044 18.1017C96.2285 18.1385 95.8777 18.1691 95.5519 18.1936C95.2262 18.2181 94.9568 18.2364 94.7438 18.2487C94.3554 18.2732 94.0422 18.2916 93.8041 18.3038C93.7415 18.3161 93.6726 18.3222 93.5974 18.3222H93.4659ZM89.3313 21.1882C89.3313 20.6248 89.4503 20.1532 89.6884 19.7735C89.9389 19.3939 90.2584 19.0877 90.6468 18.855C91.0478 18.61 91.4925 18.4263 91.9812 18.3038C92.4698 18.1813 92.9584 18.1017 93.4471 18.065C93.5598 18.0405 93.8104 18.0221 94.1988 18.0099C94.4369 17.9976 94.7501 17.9792 95.1385 17.9547C95.5394 17.9302 95.9717 17.8935 96.4352 17.8445C96.8988 17.7833 97.3624 17.7159 97.826 17.6424C98.3021 17.5567 98.7109 17.4587 99.0993 17.3485C99.4877 17.226 99.8306 17.079 100.081 16.9076C100.332 16.7361 100.463 16.5401 100.476 16.3197V13.0679H90.0079V16.1398H89.7447V12.8291C89.7447 12.8189 89.753 12.8107 89.7631 12.8107H100.711C100.737 12.8107 100.758 12.8317 100.758 12.8577V24.3113H95.3076C94.9318 24.3113 94.5246 24.3052 94.0861 24.293C93.6475 24.2685 93.2028 24.2256 92.7517 24.1644C92.3132 24.0909 91.8872 23.9868 91.4737 23.852C91.0603 23.7173 90.6907 23.5336 90.3649 23.3009C90.0517 23.0682 89.8011 22.7804 89.6132 22.4374C89.4253 22.0945 89.3313 21.6781 89.3313 21.1882Z"/>
<path d="M104.518 22.9151L104.537 22.8967C104.574 22.86 104.637 22.7926 104.725 22.6946C104.825 22.5966 104.925 22.4925 105.025 22.3823L105.401 21.9781L106.322 22.9151L105.401 23.8337L104.518 22.9151Z"/>
<path d="M111.987 14.4884V11.7268H112.269V14.4884H117.531V14.7456H112.269V22.1986C112.269 22.5048 112.331 22.7742 112.457 23.0069C112.594 23.2397 112.77 23.4356 112.983 23.5948C113.208 23.7418 113.453 23.8582 113.716 23.9439C113.991 24.0174 114.273 24.0541 114.561 24.0541H119.335V24.3113H114.561C114.198 24.3113 113.86 24.2623 113.547 24.1644C113.246 24.0541 112.977 23.9072 112.738 23.7234C112.5 23.5397 112.312 23.3193 112.175 23.0621C112.049 22.8049 111.987 22.517 111.987 22.1986V14.7456H110.934V14.4884H111.987Z"/>
<path d="M121.82 18.6896C121.82 17.7588 121.958 16.9259 122.233 16.1911C122.509 15.4562 122.904 14.8377 123.417 14.3355C123.944 13.8334 124.57 13.4537 125.297 13.1965C126.036 12.927 126.857 12.7923 127.759 12.7923C128.661 12.7923 129.475 12.9332 130.202 13.2149C130.941 13.4966 131.568 13.9007 132.081 14.4274C132.595 14.9418 132.99 15.5603 133.265 16.2829C133.541 17.0055 133.679 17.8078 133.679 18.6896C133.679 19.6327 133.541 20.4655 133.265 21.1882C132.99 21.9108 132.595 22.5232 132.081 23.0253C131.568 23.5275 130.941 23.9072 130.202 24.1644C129.475 24.4216 128.661 24.5502 127.759 24.5502C126.857 24.5502 126.036 24.4093 125.297 24.1276C124.57 23.8459 123.944 23.4479 123.417 22.9335C122.904 22.4191 122.509 21.8067 122.233 21.0963C121.958 20.3737 121.82 19.5714 121.82 18.6896ZM123.568 14.556C122.591 15.5481 122.102 16.9259 122.102 18.6896C122.102 19.5347 122.233 20.3002 122.497 20.9861C122.76 21.6719 123.136 22.2598 123.624 22.7497C124.125 23.2397 124.72 23.6193 125.41 23.8888C126.111 24.1582 126.894 24.293 127.759 24.293C128.661 24.293 129.456 24.1644 130.146 23.9072C130.847 23.65 131.436 23.2825 131.912 22.8049C132.401 22.3149 132.77 21.7271 133.021 21.0412C133.272 20.3431 133.397 19.5592 133.397 18.6896C133.397 17.8445 133.265 17.079 133.002 16.3932C132.752 15.695 132.382 15.101 131.893 14.6111C131.405 14.1212 130.81 13.7415 130.108 13.4721C129.419 13.2026 128.636 13.0679 127.759 13.0679C125.942 13.0679 124.545 13.5639 123.568 14.556Z"/>
<path d="M137.489 20.6737C137.376 20.3553 137.288 20.0369 137.226 19.7184C137.163 19.3877 137.132 19.057 137.132 18.7264C137.132 18.7019 137.125 18.6345 137.113 18.5243C137.113 18.414 137.125 18.2609 137.15 18.065C137.175 17.869 137.219 17.6424 137.282 17.3852C137.357 17.1158 137.464 16.8096 137.601 16.4666C137.89 15.7808 138.291 15.1745 138.804 14.6478C139.33 14.0967 139.963 13.6619 140.702 13.3435C141.442 13.025 142.3 12.8658 143.277 12.8658C143.991 12.8658 144.649 12.9393 145.25 13.0863C145.852 13.221 146.391 13.4047 146.867 13.6374C147.343 13.8579 147.75 14.1212 148.088 14.4274C148.426 14.7213 148.683 15.0275 148.859 15.346V10.2754H149.122V24.3113H143.784C142.907 24.3113 142.118 24.2195 141.417 24.0358C140.727 23.8398 140.12 23.5765 139.594 23.2458C139.067 22.9151 138.629 22.5293 138.278 22.0884C137.94 21.6474 137.677 21.1759 137.489 20.6737ZM137.47 18.7631C137.47 19.498 137.614 20.19 137.902 20.8391C138.203 21.476 138.623 22.0332 139.161 22.5109C139.713 22.9886 140.377 23.3683 141.153 23.65C141.93 23.9194 142.807 24.0541 143.784 24.0541H148.859V16.2462C148.834 16.0012 148.752 15.7501 148.614 15.4929C148.477 15.2235 148.264 14.9602 147.975 14.703C147.512 14.2743 146.885 13.9069 146.096 13.6007C145.307 13.2945 144.367 13.1414 143.277 13.1414C142.438 13.1414 141.661 13.2945 140.947 13.6007C140.245 13.9069 139.631 14.3172 139.105 14.8316C138.591 15.346 138.19 15.9461 137.902 16.632C137.614 17.3056 137.47 18.016 137.47 18.7631Z"/>
<path d="M167.615 12.8636C167.803 12.9126 167.972 12.9922 168.122 13.1025C168.285 13.2005 168.436 13.3168 168.573 13.4515C168.799 13.6965 168.987 14.0027 169.137 14.3701C169.3 14.7253 169.438 15.2094 169.551 15.6381C169.676 16.0545 169.734 16.4299 169.821 16.9076C169.922 17.373 170.017 17.7282 170.104 18.1936C170.23 18.8917 170.409 19.655 170.547 20.3042C170.685 20.9411 170.86 21.5167 171.073 22.0311H177.726L179.718 12.8453H180L179.933 13.1361L179.868 13.4332C179.868 13.4332 179.781 13.8312 179.718 14.0762C179.668 14.3211 179.612 14.5967 179.549 14.9029C179.461 15.2948 179.367 15.7235 179.267 16.1889C179.167 16.6543 179.09 17.2131 178.977 17.7031C178.877 18.1807 178.807 18.5675 178.694 19.0697C178.594 19.5596 178.529 20.035 178.428 20.4882C178.316 21.0271 178.187 21.61 178.075 22.1489C177.962 22.6878 177.791 23.223 177.632 23.758C177.431 24.4317 177.156 24.9889 176.805 25.4299C176.467 25.883 176.066 26.2443 175.602 26.5138C175.151 26.7955 174.65 26.9976 174.099 27.1201C173.548 27.2548 172.965 27.3344 172.351 27.3589H171.862C171.299 27.3589 170.722 27.3221 170.133 27.2487C169.557 27.1752 168.912 27.0772 168.198 26.9547L168.235 26.6791C168.949 26.8016 169.595 26.8996 170.171 26.9731C170.747 27.0466 171.311 27.0833 171.862 27.0833H172.332C172.946 27.0588 173.522 26.9792 174.061 26.8445C174.6 26.722 175.082 26.526 175.508 26.2566C175.934 25.9994 176.304 25.6564 176.617 25.2278C176.93 24.8113 177.175 24.2969 177.35 23.6846L177.651 22.2883H170.885L170.441 20.7068L169.963 18.8384L169.551 16.9076C169.451 16.4299 169.368 16.0545 169.255 15.6381C169.142 15.2094 169.056 14.7927 168.893 14.462C168.743 14.1313 168.561 13.8557 168.348 13.6353C168.135 13.4026 167.891 13.2433 167.615 13.1576V12.8636Z"/>
</mask>
<path d="M39.144 10.2754H39.4259V15.8971C39.664 15.4562 39.9772 15.052 40.3656 14.6846C40.754 14.3172 41.1988 14.0048 41.7 13.7476C42.2011 13.4782 42.7524 13.27 43.3538 13.123C43.9677 12.976 44.613 12.9025 45.2895 12.9025C46.3169 12.9025 47.1939 13.025 47.9206 13.27C48.6598 13.5027 49.2612 13.7966 49.7248 14.1518C50.1884 14.4947 50.5267 14.8622 50.7396 15.2541C50.9526 15.6338 51.0591 15.9645 51.0591 16.2462V24.3113H50.796V16.2462C50.796 16.0135 50.6895 15.7256 50.4765 15.3827C50.2761 15.0275 49.9503 14.6846 49.4993 14.3539C49.0608 14.0232 48.4907 13.7415 47.7891 13.5088C47.1 13.2761 46.2668 13.1597 45.2895 13.1597C44.5879 13.1597 43.9614 13.2332 43.4102 13.3802C42.8589 13.5272 42.3703 13.7109 41.9443 13.9314C41.5183 14.1518 41.1549 14.3968 40.8543 14.6662C40.5536 14.9357 40.303 15.199 40.1025 15.4562C39.9271 15.7012 39.7705 15.94 39.6327 16.1727C39.4949 16.4054 39.4259 16.681 39.4259 16.9994V24.3113H39.144V10.2754Z" fill="#4D3BBD"/>
<path d="M54.8202 14.7213V24.3113H54.5383V14.7213H54.8202ZM54.0309 11.3226L54.0497 11.3042C54.0748 11.2797 54.1186 11.2368 54.1813 11.1756C54.2439 11.1021 54.3066 11.0286 54.3692 10.9551C54.4068 10.9062 54.4444 10.8633 54.482 10.8265C54.5321 10.7775 54.5822 10.7286 54.6323 10.6796L55.2713 11.3226L54.6323 11.9656L54.0309 11.3226Z" fill="#4D3BBD"/>
<path d="M59.0579 22.2905C58.7322 21.7026 58.5569 21.2603 58.4862 20.5338H58.787C58.8578 21.07 58.964 21.4515 59.3022 22.1251C59.6405 22.7987 60.1667 23.2948 60.8809 23.6132C61.1816 23.7724 61.6514 23.901 62.2904 23.999C62.9419 24.097 63.6498 24.146 64.4141 24.146C64.8777 24.146 65.3412 24.1276 65.8048 24.0909C66.2809 24.0419 66.7257 23.9684 67.1391 23.8704C67.5651 23.7724 67.9535 23.65 68.3043 23.503C68.6552 23.3438 68.9371 23.1539 69.15 22.9335C69.4257 22.6518 69.6136 22.3517 69.7139 22.0332C69.8266 21.7148 69.883 21.4331 69.883 21.1882C69.883 21.0534 69.8517 20.8575 69.789 20.6003C69.7389 20.3431 69.551 20.0736 69.2252 19.7919C68.8869 19.498 68.4046 19.3265 67.7781 19.2775C67.4398 19.253 67.1329 19.2285 66.8572 19.204C66.5941 19.1795 66.3561 19.155 66.1431 19.1305L65.1094 19.0387C64.8338 19.0142 64.5958 18.9958 64.3953 18.9836C64.2074 18.9713 63.9944 18.9591 63.7563 18.9468C63.5183 18.9223 63.2238 18.8917 62.873 18.855C62.5222 18.8182 62.0524 18.7631 61.4635 18.6896C61.0125 18.6406 60.6178 18.5304 60.2795 18.3589C59.9537 18.1874 59.6844 17.9854 59.4714 17.7527C59.2584 17.5077 59.1018 17.2444 59.0015 16.9627C58.9013 16.6687 58.8512 16.3809 58.8512 16.0992C58.8512 16.038 58.8575 15.8849 58.87 15.6399C58.8825 15.3827 59.0329 15.052 59.321 14.6478C59.5716 14.2927 59.8848 13.9987 60.2607 13.766C60.6366 13.521 61.0438 13.3312 61.4823 13.1965C61.9333 13.0495 62.3906 12.9454 62.8542 12.8842C63.3178 12.8229 63.7563 12.7923 64.1698 12.7923C64.5456 12.7923 64.9466 12.8168 65.3725 12.8658C65.8111 12.9148 66.2684 13.0005 66.7445 13.123C66.757 13.123 66.7695 13.1291 66.7821 13.1414C66.7946 13.1414 66.8071 13.1414 66.8197 13.1414C67.9097 13.4721 68.7241 14.0232 69.2628 14.7948C69.4695 15.0909 69.977 15.8002 70.1976 16.9765H69.9321C69.6667 16.1634 69.6888 16.1666 69.3756 15.5664C69.0623 14.9663 68.6551 14.4825 68.154 14.1151C67.6528 13.7354 67.064 13.4659 66.3874 13.3067C65.7108 13.1352 64.9591 13.0495 64.1322 13.0495C63.3804 13.0495 62.6976 13.123 62.0837 13.27C61.4823 13.4169 60.9999 13.6007 60.6366 13.8211C60.2231 14.0661 59.866 14.4029 59.5654 14.8316C59.2772 15.2602 59.1331 15.7073 59.1331 16.1727C59.1331 16.7361 59.3461 17.2321 59.7721 17.6608C60.2106 18.0895 60.7869 18.3467 61.5011 18.4324C62.1025 18.4936 62.5723 18.5426 62.9106 18.5794C63.2614 18.6161 63.5496 18.6467 63.7751 18.6712C64.0006 18.6835 64.2011 18.7019 64.3765 18.7264C64.5644 18.7386 64.7899 18.757 65.0531 18.7815C65.3287 18.7937 65.6732 18.8182 66.0867 18.855C66.5127 18.8917 67.0828 18.9407 67.7969 19.0019C68.1227 19.0387 68.4296 19.106 68.7178 19.204C69.006 19.302 69.2565 19.4428 69.4695 19.6266C69.6825 19.798 69.8517 20.0062 69.977 20.2512C70.1023 20.4962 70.1649 20.784 70.1649 21.1147C70.1649 21.776 69.9895 22.3211 69.6387 22.7497C69.3004 23.1662 68.8556 23.4969 68.3043 23.7418C67.7656 23.9868 67.1517 24.1582 66.4626 24.2562C65.786 24.3542 65.1094 24.4032 64.4329 24.4032C63.7939 24.4032 63.1988 24.3787 62.6475 24.3297C62.1087 24.2807 61.6138 24.1827 61.1628 24.0358C60.7118 23.8765 60.3108 23.6622 59.96 23.3928C59.6092 23.1111 59.3085 22.7436 59.0579 22.2905Z" fill="#4D3BBD"/>
<path d="M73.8947 10.2754H74.1766V15.8971C74.4147 15.4562 74.7279 15.052 75.1163 14.6846C75.5047 14.3172 75.9495 14.0048 76.4506 13.7476C76.9518 13.4782 77.5031 13.27 78.1045 13.123C78.7184 12.976 79.3636 12.9025 80.0402 12.9025C81.0676 12.9025 81.9446 13.025 82.6713 13.27C83.4105 13.5027 84.0119 13.7966 84.4755 14.1518C84.9391 14.4947 85.2773 14.8622 85.4903 15.2541C85.7033 15.6338 85.8098 15.9645 85.8098 16.2462V24.3113H85.5467V16.2462C85.5467 16.0135 85.4402 15.7256 85.2272 15.3827C85.0268 15.0275 84.701 14.6846 84.25 14.3539C83.8114 14.0232 83.2414 13.7415 82.5397 13.5088C81.8507 13.2761 81.0175 13.1597 80.0402 13.1597C79.3386 13.1597 78.7121 13.2332 78.1609 13.3802C77.6096 13.5272 77.1209 13.7109 76.695 13.9314C76.269 14.1518 75.9056 14.3968 75.6049 14.6662C75.3042 14.9357 75.0537 15.199 74.8532 15.4562C74.6778 15.7012 74.5212 15.94 74.3834 16.1727C74.2455 16.4054 74.1766 16.681 74.1766 16.9994V24.3113H73.8947V10.2754Z" fill="#4D3BBD"/>
<path d="M93.4659 18.3222C93.1401 18.3467 92.783 18.3957 92.3946 18.4691C92.0188 18.5426 91.6554 18.6529 91.3046 18.7998C90.9538 18.9468 90.6343 19.1428 90.3461 19.3877C90.0705 19.6204 89.8763 19.9083 89.7635 20.2512C89.6508 20.5329 89.6007 20.8391 89.6132 21.1698C89.6132 21.5617 89.6946 21.9353 89.8575 22.2905C90.0204 22.6334 90.2772 22.9151 90.628 23.1355C90.9287 23.356 91.2733 23.5275 91.6617 23.65C92.0626 23.7724 92.4698 23.8643 92.8833 23.9255C93.3092 23.9868 93.729 24.0235 94.1424 24.0358C94.5684 24.048 94.9568 24.0541 95.3076 24.0541H100.476V16.8892C100.338 17.0607 100.125 17.2138 99.8369 17.3485C99.5612 17.471 99.248 17.5812 98.8972 17.6792C98.5464 17.7771 98.1705 17.8629 97.7696 17.9364C97.3687 17.9976 96.9803 18.0527 96.6044 18.1017C96.2285 18.1385 95.8777 18.1691 95.5519 18.1936C95.2262 18.2181 94.9568 18.2364 94.7438 18.2487C94.3554 18.2732 94.0422 18.2916 93.8041 18.3038C93.7415 18.3161 93.6726 18.3222 93.5974 18.3222H93.4659ZM89.3313 21.1882C89.3313 20.6248 89.4503 20.1532 89.6884 19.7735C89.9389 19.3939 90.2584 19.0877 90.6468 18.855C91.0478 18.61 91.4925 18.4263 91.9812 18.3038C92.4698 18.1813 92.9584 18.1017 93.4471 18.065C93.5598 18.0405 93.8104 18.0221 94.1988 18.0099C94.4369 17.9976 94.7501 17.9792 95.1385 17.9547C95.5394 17.9302 95.9717 17.8935 96.4352 17.8445C96.8988 17.7833 97.3624 17.7159 97.826 17.6424C98.3021 17.5567 98.7109 17.4587 99.0993 17.3485C99.4877 17.226 99.8306 17.079 100.081 16.9076C100.332 16.7361 100.463 16.5401 100.476 16.3197V13.0679H90.0079V16.1398H89.7447V12.8291C89.7447 12.8189 89.753 12.8107 89.7631 12.8107H100.711C100.737 12.8107 100.758 12.8317 100.758 12.8577V24.3113H95.3076C94.9318 24.3113 94.5246 24.3052 94.0861 24.293C93.6475 24.2685 93.2028 24.2256 92.7517 24.1644C92.3132 24.0909 91.8872 23.9868 91.4737 23.852C91.0603 23.7173 90.6907 23.5336 90.3649 23.3009C90.0517 23.0682 89.8011 22.7804 89.6132 22.4374C89.4253 22.0945 89.3313 21.6781 89.3313 21.1882Z" fill="#4D3BBD"/>
<path d="M104.518 22.9151L104.537 22.8967C104.574 22.86 104.637 22.7926 104.725 22.6946C104.825 22.5966 104.925 22.4925 105.025 22.3823L105.401 21.9781L106.322 22.9151L105.401 23.8337L104.518 22.9151Z" fill="#4D3BBD"/>
<path d="M111.987 14.4884V11.7268H112.269V14.4884H117.531V14.7456H112.269V22.1986C112.269 22.5048 112.331 22.7742 112.457 23.0069C112.594 23.2397 112.77 23.4356 112.983 23.5948C113.208 23.7418 113.453 23.8582 113.716 23.9439C113.991 24.0174 114.273 24.0541 114.561 24.0541H119.335V24.3113H114.561C114.198 24.3113 113.86 24.2623 113.547 24.1644C113.246 24.0541 112.977 23.9072 112.738 23.7234C112.5 23.5397 112.312 23.3193 112.175 23.0621C112.049 22.8049 111.987 22.517 111.987 22.1986V14.7456H110.934V14.4884H111.987Z" fill="#4D3BBD"/>
<path d="M121.82 18.6896C121.82 17.7588 121.958 16.9259 122.233 16.1911C122.509 15.4562 122.904 14.8377 123.417 14.3355C123.944 13.8334 124.57 13.4537 125.297 13.1965C126.036 12.927 126.857 12.7923 127.759 12.7923C128.661 12.7923 129.475 12.9332 130.202 13.2149C130.941 13.4966 131.568 13.9007 132.081 14.4274C132.595 14.9418 132.99 15.5603 133.265 16.2829C133.541 17.0055 133.679 17.8078 133.679 18.6896C133.679 19.6327 133.541 20.4655 133.265 21.1882C132.99 21.9108 132.595 22.5232 132.081 23.0253C131.568 23.5275 130.941 23.9072 130.202 24.1644C129.475 24.4216 128.661 24.5502 127.759 24.5502C126.857 24.5502 126.036 24.4093 125.297 24.1276C124.57 23.8459 123.944 23.4479 123.417 22.9335C122.904 22.4191 122.509 21.8067 122.233 21.0963C121.958 20.3737 121.82 19.5714 121.82 18.6896ZM123.568 14.556C122.591 15.5481 122.102 16.9259 122.102 18.6896C122.102 19.5347 122.233 20.3002 122.497 20.9861C122.76 21.6719 123.136 22.2598 123.624 22.7497C124.125 23.2397 124.72 23.6193 125.41 23.8888C126.111 24.1582 126.894 24.293 127.759 24.293C128.661 24.293 129.456 24.1644 130.146 23.9072C130.847 23.65 131.436 23.2825 131.912 22.8049C132.401 22.3149 132.77 21.7271 133.021 21.0412C133.272 20.3431 133.397 19.5592 133.397 18.6896C133.397 17.8445 133.265 17.079 133.002 16.3932C132.752 15.695 132.382 15.101 131.893 14.6111C131.405 14.1212 130.81 13.7415 130.108 13.4721C129.419 13.2026 128.636 13.0679 127.759 13.0679C125.942 13.0679 124.545 13.5639 123.568 14.556Z" fill="#4D3BBD"/>
<path d="M137.489 20.6737C137.376 20.3553 137.288 20.0369 137.226 19.7184C137.163 19.3877 137.132 19.057 137.132 18.7264C137.132 18.7019 137.125 18.6345 137.113 18.5243C137.113 18.414 137.125 18.2609 137.15 18.065C137.175 17.869 137.219 17.6424 137.282 17.3852C137.357 17.1158 137.464 16.8096 137.601 16.4666C137.89 15.7808 138.291 15.1745 138.804 14.6478C139.33 14.0967 139.963 13.6619 140.702 13.3435C141.442 13.025 142.3 12.8658 143.277 12.8658C143.991 12.8658 144.649 12.9393 145.25 13.0863C145.852 13.221 146.391 13.4047 146.867 13.6374C147.343 13.8579 147.75 14.1212 148.088 14.4274C148.426 14.7213 148.683 15.0275 148.859 15.346V10.2754H149.122V24.3113H143.784C142.907 24.3113 142.118 24.2195 141.417 24.0358C140.727 23.8398 140.12 23.5765 139.594 23.2458C139.067 22.9151 138.629 22.5293 138.278 22.0884C137.94 21.6474 137.677 21.1759 137.489 20.6737ZM137.47 18.7631C137.47 19.498 137.614 20.19 137.902 20.8391C138.203 21.476 138.623 22.0332 139.161 22.5109C139.713 22.9886 140.377 23.3683 141.153 23.65C141.93 23.9194 142.807 24.0541 143.784 24.0541H148.859V16.2462C148.834 16.0012 148.752 15.7501 148.614 15.4929C148.477 15.2235 148.264 14.9602 147.975 14.703C147.512 14.2743 146.885 13.9069 146.096 13.6007C145.307 13.2945 144.367 13.1414 143.277 13.1414C142.438 13.1414 141.661 13.2945 140.947 13.6007C140.245 13.9069 139.631 14.3172 139.105 14.8316C138.591 15.346 138.19 15.9461 137.902 16.632C137.614 17.3056 137.47 18.016 137.47 18.7631Z" fill="#4D3BBD"/>
<path d="M167.615 12.8636C167.803 12.9126 167.972 12.9922 168.122 13.1025C168.285 13.2005 168.436 13.3168 168.573 13.4515C168.799 13.6965 168.987 14.0027 169.137 14.3701C169.3 14.7253 169.438 15.2094 169.551 15.6381C169.676 16.0545 169.734 16.4299 169.821 16.9076C169.922 17.373 170.017 17.7282 170.104 18.1936C170.23 18.8917 170.409 19.655 170.547 20.3042C170.685 20.9411 170.86 21.5167 171.073 22.0311H177.726L179.718 12.8453H180L179.933 13.1361L179.868 13.4332C179.868 13.4332 179.781 13.8312 179.718 14.0762C179.668 14.3211 179.612 14.5967 179.549 14.9029C179.461 15.2948 179.367 15.7235 179.267 16.1889C179.167 16.6543 179.09 17.2131 178.977 17.7031C178.877 18.1807 178.807 18.5675 178.694 19.0697C178.594 19.5596 178.529 20.035 178.428 20.4882C178.316 21.0271 178.187 21.61 178.075 22.1489C177.962 22.6878 177.791 23.223 177.632 23.758C177.431 24.4317 177.156 24.9889 176.805 25.4299C176.467 25.883 176.066 26.2443 175.602 26.5138C175.151 26.7955 174.65 26.9976 174.099 27.1201C173.548 27.2548 172.965 27.3344 172.351 27.3589H171.862C171.299 27.3589 170.722 27.3221 170.133 27.2487C169.557 27.1752 168.912 27.0772 168.198 26.9547L168.235 26.6791C168.949 26.8016 169.595 26.8996 170.171 26.9731C170.747 27.0466 171.311 27.0833 171.862 27.0833H172.332C172.946 27.0588 173.522 26.9792 174.061 26.8445C174.6 26.722 175.082 26.526 175.508 26.2566C175.934 25.9994 176.304 25.6564 176.617 25.2278C176.93 24.8113 177.175 24.2969 177.35 23.6846L177.651 22.2883H170.885L170.441 20.7068L169.963 18.8384L169.551 16.9076C169.451 16.4299 169.368 16.0545 169.255 15.6381C169.142 15.2094 169.056 14.7927 168.893 14.462C168.743 14.1313 168.561 13.8557 168.348 13.6353C168.135 13.4026 167.891 13.2433 167.615 13.1576V12.8636Z" fill="#4D3BBD"/>
<path d="M39.144 10.2754H39.4259V15.8971C39.664 15.4562 39.9772 15.052 40.3656 14.6846C40.754 14.3172 41.1988 14.0048 41.7 13.7476C42.2011 13.4782 42.7524 13.27 43.3538 13.123C43.9677 12.976 44.613 12.9025 45.2895 12.9025C46.3169 12.9025 47.1939 13.025 47.9206 13.27C48.6598 13.5027 49.2612 13.7966 49.7248 14.1518C50.1884 14.4947 50.5267 14.8622 50.7396 15.2541C50.9526 15.6338 51.0591 15.9645 51.0591 16.2462V24.3113H50.796V16.2462C50.796 16.0135 50.6895 15.7256 50.4765 15.3827C50.2761 15.0275 49.9503 14.6846 49.4993 14.3539C49.0608 14.0232 48.4907 13.7415 47.7891 13.5088C47.1 13.2761 46.2668 13.1597 45.2895 13.1597C44.5879 13.1597 43.9614 13.2332 43.4102 13.3802C42.8589 13.5272 42.3703 13.7109 41.9443 13.9314C41.5183 14.1518 41.1549 14.3968 40.8543 14.6662C40.5536 14.9357 40.303 15.199 40.1025 15.4562C39.9271 15.7012 39.7705 15.94 39.6327 16.1727C39.4949 16.4054 39.4259 16.681 39.4259 16.9994V24.3113H39.144V10.2754Z" stroke="#4D3BBD" stroke-width="2" mask="url(#path-1-outside-1_2412_10420)"/>
<path d="M54.8202 14.7213V24.3113H54.5383V14.7213H54.8202ZM54.0309 11.3226L54.0497 11.3042C54.0748 11.2797 54.1186 11.2368 54.1813 11.1756C54.2439 11.1021 54.3066 11.0286 54.3692 10.9551C54.4068 10.9062 54.4444 10.8633 54.482 10.8265C54.5321 10.7775 54.5822 10.7286 54.6323 10.6796L55.2713 11.3226L54.6323 11.9656L54.0309 11.3226Z" stroke="#4D3BBD" stroke-width="2" mask="url(#path-1-outside-1_2412_10420)"/>
<path d="M59.0579 22.2905C58.7322 21.7026 58.5569 21.2603 58.4862 20.5338H58.787C58.8578 21.07 58.964 21.4515 59.3022 22.1251C59.6405 22.7987 60.1667 23.2948 60.8809 23.6132C61.1816 23.7724 61.6514 23.901 62.2904 23.999C62.9419 24.097 63.6498 24.146 64.4141 24.146C64.8777 24.146 65.3412 24.1276 65.8048 24.0909C66.2809 24.0419 66.7257 23.9684 67.1391 23.8704C67.5651 23.7724 67.9535 23.65 68.3043 23.503C68.6552 23.3438 68.9371 23.1539 69.15 22.9335C69.4257 22.6518 69.6136 22.3517 69.7139 22.0332C69.8266 21.7148 69.883 21.4331 69.883 21.1882C69.883 21.0534 69.8517 20.8575 69.789 20.6003C69.7389 20.3431 69.551 20.0736 69.2252 19.7919C68.8869 19.498 68.4046 19.3265 67.7781 19.2775C67.4398 19.253 67.1329 19.2285 66.8572 19.204C66.5941 19.1795 66.3561 19.155 66.1431 19.1305L65.1094 19.0387C64.8338 19.0142 64.5958 18.9958 64.3953 18.9836C64.2074 18.9713 63.9944 18.9591 63.7563 18.9468C63.5183 18.9223 63.2238 18.8917 62.873 18.855C62.5222 18.8182 62.0524 18.7631 61.4635 18.6896C61.0125 18.6406 60.6178 18.5304 60.2795 18.3589C59.9537 18.1874 59.6844 17.9854 59.4714 17.7527C59.2584 17.5077 59.1018 17.2444 59.0015 16.9627C58.9013 16.6687 58.8512 16.3809 58.8512 16.0992C58.8512 16.038 58.8575 15.8849 58.87 15.6399C58.8825 15.3827 59.0329 15.052 59.321 14.6478C59.5716 14.2927 59.8848 13.9987 60.2607 13.766C60.6366 13.521 61.0438 13.3312 61.4823 13.1965C61.9333 13.0495 62.3906 12.9454 62.8542 12.8842C63.3178 12.8229 63.7563 12.7923 64.1698 12.7923C64.5456 12.7923 64.9466 12.8168 65.3725 12.8658C65.8111 12.9148 66.2684 13.0005 66.7445 13.123C66.757 13.123 66.7695 13.1291 66.7821 13.1414C66.7946 13.1414 66.8071 13.1414 66.8197 13.1414C67.9097 13.4721 68.7241 14.0232 69.2628 14.7948C69.4695 15.0909 69.977 15.8002 70.1976 16.9765H69.9321C69.6667 16.1634 69.6888 16.1666 69.3756 15.5664C69.0623 14.9663 68.6551 14.4825 68.154 14.1151C67.6528 13.7354 67.064 13.4659 66.3874 13.3067C65.7108 13.1352 64.9591 13.0495 64.1322 13.0495C63.3804 13.0495 62.6976 13.123 62.0837 13.27C61.4823 13.4169 60.9999 13.6007 60.6366 13.8211C60.2231 14.0661 59.866 14.4029 59.5654 14.8316C59.2772 15.2602 59.1331 15.7073 59.1331 16.1727C59.1331 16.7361 59.3461 17.2321 59.7721 17.6608C60.2106 18.0895 60.7869 18.3467 61.5011 18.4324C62.1025 18.4936 62.5723 18.5426 62.9106 18.5794C63.2614 18.6161 63.5496 18.6467 63.7751 18.6712C64.0006 18.6835 64.2011 18.7019 64.3765 18.7264C64.5644 18.7386 64.7899 18.757 65.0531 18.7815C65.3287 18.7937 65.6732 18.8182 66.0867 18.855C66.5127 18.8917 67.0828 18.9407 67.7969 19.0019C68.1227 19.0387 68.4296 19.106 68.7178 19.204C69.006 19.302 69.2565 19.4428 69.4695 19.6266C69.6825 19.798 69.8517 20.0062 69.977 20.2512C70.1023 20.4962 70.1649 20.784 70.1649 21.1147C70.1649 21.776 69.9895 22.3211 69.6387 22.7497C69.3004 23.1662 68.8556 23.4969 68.3043 23.7418C67.7656 23.9868 67.1517 24.1582 66.4626 24.2562C65.786 24.3542 65.1094 24.4032 64.4329 24.4032C63.7939 24.4032 63.1988 24.3787 62.6475 24.3297C62.1087 24.2807 61.6138 24.1827 61.1628 24.0358C60.7118 23.8765 60.3108 23.6622 59.96 23.3928C59.6092 23.1111 59.3085 22.7436 59.0579 22.2905Z" stroke="#4D3BBD" stroke-width="2" mask="url(#path-1-outside-1_2412_10420)"/>
<path d="M73.8947 10.2754H74.1766V15.8971C74.4147 15.4562 74.7279 15.052 75.1163 14.6846C75.5047 14.3172 75.9495 14.0048 76.4506 13.7476C76.9518 13.4782 77.5031 13.27 78.1045 13.123C78.7184 12.976 79.3636 12.9025 80.0402 12.9025C81.0676 12.9025 81.9446 13.025 82.6713 13.27C83.4105 13.5027 84.0119 13.7966 84.4755 14.1518C84.9391 14.4947 85.2773 14.8622 85.4903 15.2541C85.7033 15.6338 85.8098 15.9645 85.8098 16.2462V24.3113H85.5467V16.2462C85.5467 16.0135 85.4402 15.7256 85.2272 15.3827C85.0268 15.0275 84.701 14.6846 84.25 14.3539C83.8114 14.0232 83.2414 13.7415 82.5397 13.5088C81.8507 13.2761 81.0175 13.1597 80.0402 13.1597C79.3386 13.1597 78.7121 13.2332 78.1609 13.3802C77.6096 13.5272 77.1209 13.7109 76.695 13.9314C76.269 14.1518 75.9056 14.3968 75.6049 14.6662C75.3042 14.9357 75.0537 15.199 74.8532 15.4562C74.6778 15.7012 74.5212 15.94 74.3834 16.1727C74.2455 16.4054 74.1766 16.681 74.1766 16.9994V24.3113H73.8947V10.2754Z" stroke="#4D3BBD" stroke-width="2" mask="url(#path-1-outside-1_2412_10420)"/>
<path d="M93.4659 18.3222C93.1401 18.3467 92.783 18.3957 92.3946 18.4691C92.0188 18.5426 91.6554 18.6529 91.3046 18.7998C90.9538 18.9468 90.6343 19.1428 90.3461 19.3877C90.0705 19.6204 89.8763 19.9083 89.7635 20.2512C89.6508 20.5329 89.6007 20.8391 89.6132 21.1698C89.6132 21.5617 89.6946 21.9353 89.8575 22.2905C90.0204 22.6334 90.2772 22.9151 90.628 23.1355C90.9287 23.356 91.2733 23.5275 91.6617 23.65C92.0626 23.7724 92.4698 23.8643 92.8833 23.9255C93.3092 23.9868 93.729 24.0235 94.1424 24.0358C94.5684 24.048 94.9568 24.0541 95.3076 24.0541H100.476V16.8892C100.338 17.0607 100.125 17.2138 99.8369 17.3485C99.5612 17.471 99.248 17.5812 98.8972 17.6792C98.5464 17.7771 98.1705 17.8629 97.7696 17.9364C97.3687 17.9976 96.9803 18.0527 96.6044 18.1017C96.2285 18.1385 95.8777 18.1691 95.5519 18.1936C95.2262 18.2181 94.9568 18.2364 94.7438 18.2487C94.3554 18.2732 94.0422 18.2916 93.8041 18.3038C93.7415 18.3161 93.6726 18.3222 93.5974 18.3222H93.4659ZM89.3313 21.1882C89.3313 20.6248 89.4503 20.1532 89.6884 19.7735C89.9389 19.3939 90.2584 19.0877 90.6468 18.855C91.0478 18.61 91.4925 18.4263 91.9812 18.3038C92.4698 18.1813 92.9584 18.1017 93.4471 18.065C93.5598 18.0405 93.8104 18.0221 94.1988 18.0099C94.4369 17.9976 94.7501 17.9792 95.1385 17.9547C95.5394 17.9302 95.9717 17.8935 96.4352 17.8445C96.8988 17.7833 97.3624 17.7159 97.826 17.6424C98.3021 17.5567 98.7109 17.4587 99.0993 17.3485C99.4877 17.226 99.8306 17.079 100.081 16.9076C100.332 16.7361 100.463 16.5401 100.476 16.3197V13.0679H90.0079V16.1398H89.7447V12.8291C89.7447 12.8189 89.753 12.8107 89.7631 12.8107H100.711C100.737 12.8107 100.758 12.8317 100.758 12.8577V24.3113H95.3076C94.9318 24.3113 94.5246 24.3052 94.0861 24.293C93.6475 24.2685 93.2028 24.2256 92.7517 24.1644C92.3132 24.0909 91.8872 23.9868 91.4737 23.852C91.0603 23.7173 90.6907 23.5336 90.3649 23.3009C90.0517 23.0682 89.8011 22.7804 89.6132 22.4374C89.4253 22.0945 89.3313 21.6781 89.3313 21.1882Z" stroke="#4D3BBD" stroke-width="2" mask="url(#path-1-outside-1_2412_10420)"/>
<path d="M104.518 22.9151L104.537 22.8967C104.574 22.86 104.637 22.7926 104.725 22.6946C104.825 22.5966 104.925 22.4925 105.025 22.3823L105.401 21.9781L106.322 22.9151L105.401 23.8337L104.518 22.9151Z" stroke="#4D3BBD" stroke-width="2" mask="url(#path-1-outside-1_2412_10420)"/>
<path d="M111.987 14.4884V11.7268H112.269V14.4884H117.531V14.7456H112.269V22.1986C112.269 22.5048 112.331 22.7742 112.457 23.0069C112.594 23.2397 112.77 23.4356 112.983 23.5948C113.208 23.7418 113.453 23.8582 113.716 23.9439C113.991 24.0174 114.273 24.0541 114.561 24.0541H119.335V24.3113H114.561C114.198 24.3113 113.86 24.2623 113.547 24.1644C113.246 24.0541 112.977 23.9072 112.738 23.7234C112.5 23.5397 112.312 23.3193 112.175 23.0621C112.049 22.8049 111.987 22.517 111.987 22.1986V14.7456H110.934V14.4884H111.987Z" stroke="#4D3BBD" stroke-width="2" mask="url(#path-1-outside-1_2412_10420)"/>
<path d="M121.82 18.6896C121.82 17.7588 121.958 16.9259 122.233 16.1911C122.509 15.4562 122.904 14.8377 123.417 14.3355C123.944 13.8334 124.57 13.4537 125.297 13.1965C126.036 12.927 126.857 12.7923 127.759 12.7923C128.661 12.7923 129.475 12.9332 130.202 13.2149C130.941 13.4966 131.568 13.9007 132.081 14.4274C132.595 14.9418 132.99 15.5603 133.265 16.2829C133.541 17.0055 133.679 17.8078 133.679 18.6896C133.679 19.6327 133.541 20.4655 133.265 21.1882C132.99 21.9108 132.595 22.5232 132.081 23.0253C131.568 23.5275 130.941 23.9072 130.202 24.1644C129.475 24.4216 128.661 24.5502 127.759 24.5502C126.857 24.5502 126.036 24.4093 125.297 24.1276C124.57 23.8459 123.944 23.4479 123.417 22.9335C122.904 22.4191 122.509 21.8067 122.233 21.0963C121.958 20.3737 121.82 19.5714 121.82 18.6896ZM123.568 14.556C122.591 15.5481 122.102 16.9259 122.102 18.6896C122.102 19.5347 122.233 20.3002 122.497 20.9861C122.76 21.6719 123.136 22.2598 123.624 22.7497C124.125 23.2397 124.72 23.6193 125.41 23.8888C126.111 24.1582 126.894 24.293 127.759 24.293C128.661 24.293 129.456 24.1644 130.146 23.9072C130.847 23.65 131.436 23.2825 131.912 22.8049C132.401 22.3149 132.77 21.7271 133.021 21.0412C133.272 20.3431 133.397 19.5592 133.397 18.6896C133.397 17.8445 133.265 17.079 133.002 16.3932C132.752 15.695 132.382 15.101 131.893 14.6111C131.405 14.1212 130.81 13.7415 130.108 13.4721C129.419 13.2026 128.636 13.0679 127.759 13.0679C125.942 13.0679 124.545 13.5639 123.568 14.556Z" stroke="#4D3BBD" stroke-width="2" mask="url(#path-1-outside-1_2412_10420)"/>
<path d="M137.489 20.6737C137.376 20.3553 137.288 20.0369 137.226 19.7184C137.163 19.3877 137.132 19.057 137.132 18.7264C137.132 18.7019 137.125 18.6345 137.113 18.5243C137.113 18.414 137.125 18.2609 137.15 18.065C137.175 17.869 137.219 17.6424 137.282 17.3852C137.357 17.1158 137.464 16.8096 137.601 16.4666C137.89 15.7808 138.291 15.1745 138.804 14.6478C139.33 14.0967 139.963 13.6619 140.702 13.3435C141.442 13.025 142.3 12.8658 143.277 12.8658C143.991 12.8658 144.649 12.9393 145.25 13.0863C145.852 13.221 146.391 13.4047 146.867 13.6374C147.343 13.8579 147.75 14.1212 148.088 14.4274C148.426 14.7213 148.683 15.0275 148.859 15.346V10.2754H149.122V24.3113H143.784C142.907 24.3113 142.118 24.2195 141.417 24.0358C140.727 23.8398 140.12 23.5765 139.594 23.2458C139.067 22.9151 138.629 22.5293 138.278 22.0884C137.94 21.6474 137.677 21.1759 137.489 20.6737ZM137.47 18.7631C137.47 19.498 137.614 20.19 137.902 20.8391C138.203 21.476 138.623 22.0332 139.161 22.5109C139.713 22.9886 140.377 23.3683 141.153 23.65C141.93 23.9194 142.807 24.0541 143.784 24.0541H148.859V16.2462C148.834 16.0012 148.752 15.7501 148.614 15.4929C148.477 15.2235 148.264 14.9602 147.975 14.703C147.512 14.2743 146.885 13.9069 146.096 13.6007C145.307 13.2945 144.367 13.1414 143.277 13.1414C142.438 13.1414 141.661 13.2945 140.947 13.6007C140.245 13.9069 139.631 14.3172 139.105 14.8316C138.591 15.346 138.19 15.9461 137.902 16.632C137.614 17.3056 137.47 18.016 137.47 18.7631Z" stroke="#4D3BBD" stroke-width="2" mask="url(#path-1-outside-1_2412_10420)"/>
<path d="M167.615 12.8636C167.803 12.9126 167.972 12.9922 168.122 13.1025C168.285 13.2005 168.436 13.3168 168.573 13.4515C168.799 13.6965 168.987 14.0027 169.137 14.3701C169.3 14.7253 169.438 15.2094 169.551 15.6381C169.676 16.0545 169.734 16.4299 169.821 16.9076C169.922 17.373 170.017 17.7282 170.104 18.1936C170.23 18.8917 170.409 19.655 170.547 20.3042C170.685 20.9411 170.86 21.5167 171.073 22.0311H177.726L179.718 12.8453H180L179.933 13.1361L179.868 13.4332C179.868 13.4332 179.781 13.8312 179.718 14.0762C179.668 14.3211 179.612 14.5967 179.549 14.9029C179.461 15.2948 179.367 15.7235 179.267 16.1889C179.167 16.6543 179.09 17.2131 178.977 17.7031C178.877 18.1807 178.807 18.5675 178.694 19.0697C178.594 19.5596 178.529 20.035 178.428 20.4882C178.316 21.0271 178.187 21.61 178.075 22.1489C177.962 22.6878 177.791 23.223 177.632 23.758C177.431 24.4317 177.156 24.9889 176.805 25.4299C176.467 25.883 176.066 26.2443 175.602 26.5138C175.151 26.7955 174.65 26.9976 174.099 27.1201C173.548 27.2548 172.965 27.3344 172.351 27.3589H171.862C171.299 27.3589 170.722 27.3221 170.133 27.2487C169.557 27.1752 168.912 27.0772 168.198 26.9547L168.235 26.6791C168.949 26.8016 169.595 26.8996 170.171 26.9731C170.747 27.0466 171.311 27.0833 171.862 27.0833H172.332C172.946 27.0588 173.522 26.9792 174.061 26.8445C174.6 26.722 175.082 26.526 175.508 26.2566C175.934 25.9994 176.304 25.6564 176.617 25.2278C176.93 24.8113 177.175 24.2969 177.35 23.6846L177.651 22.2883H170.885L170.441 20.7068L169.963 18.8384L169.551 16.9076C169.451 16.4299 169.368 16.0545 169.255 15.6381C169.142 15.2094 169.056 14.7927 168.893 14.462C168.743 14.1313 168.561 13.8557 168.348 13.6353C168.135 13.4026 167.891 13.2433 167.615 13.1576V12.8636Z" stroke="#4D3BBD" stroke-width="2" mask="url(#path-1-outside-1_2412_10420)"/>
<path d="M156.684 18.4163C156.359 18.4408 156.002 18.4898 155.613 18.5633C155.237 18.6367 154.874 18.747 154.523 18.8939C154.172 19.0409 153.853 19.2369 153.565 19.4818C153.289 19.7145 153.095 20.0024 152.982 20.3453C152.869 20.627 152.819 20.9332 152.832 21.2639C152.832 21.6558 152.913 22.0294 153.076 22.3846C153.239 22.7275 153.496 23.0092 153.847 23.2297C154.147 23.4501 154.492 23.6216 154.88 23.7441C155.281 23.8665 155.688 23.9584 156.102 24.0196C156.528 24.0809 156.947 24.1176 157.361 24.1299C157.787 24.1421 158.175 24.1482 158.526 24.1482H163.694V16.9833C163.557 17.1548 163.344 17.3079 163.055 17.4426C162.78 17.5651 162.467 17.6753 162.116 17.7733C161.765 17.8713 161.389 17.957 160.988 18.0305C160.587 18.0917 160.199 18.1468 159.823 18.1958C159.447 18.2326 159.096 18.2632 158.77 18.2877C158.445 18.3122 158.175 18.3305 157.962 18.3428C157.574 18.3673 157.261 18.3857 157.023 18.3979C156.96 18.4102 156.891 18.4163 156.816 18.4163H156.684ZM152.55 21.2823C152.55 20.7189 152.669 20.2473 152.907 19.8676C153.157 19.488 153.477 19.1818 153.865 18.9491C154.266 18.7041 154.711 18.5204 155.2 18.3979C155.688 18.2754 156.177 18.1958 156.666 18.1591C156.778 18.1346 157.029 18.1162 157.417 18.104C157.655 18.0917 157.969 18.0733 158.357 18.0488C158.758 18.0244 159.19 17.9876 159.654 17.9386C160.117 17.8774 160.581 17.81 161.044 17.7365C161.521 17.6508 161.953 17.5528 162.341 17.4426C162.73 17.3201 163.049 17.1731 163.3 17.0017C163.55 16.8302 163.682 16.6342 163.694 16.4138V13.162H153.226V16.2339H152.963V12.9232C152.963 12.913 152.971 12.9048 152.982 12.9048H163.929C163.955 12.9048 163.976 12.9258 163.976 12.9518V24.4054H158.526C158.15 24.4054 157.743 24.3993 157.305 24.3871C156.866 24.3626 156.421 24.3197 155.97 24.2585C155.532 24.185 155.106 24.0809 154.692 23.9461C154.279 23.8114 153.909 23.6277 153.583 23.395C153.27 23.1623 153.02 22.8745 152.832 22.5315C152.644 22.1886 152.55 21.7722 152.55 21.2823Z" fill="#4D3BBD"/>
<path d="M163.194 17.9275C162.909 18.0501 162.594 18.1589 162.25 18.2548C161.883 18.3574 161.492 18.4464 161.078 18.5223L161.071 18.5236L161.064 18.5247C160.659 18.5865 160.267 18.6421 159.888 18.6916L159.88 18.6927L159.872 18.6934C159.493 18.7305 159.138 18.7615 158.808 18.7863C158.481 18.8108 158.209 18.8294 157.992 18.8419M163.194 17.9275L157.991 18.842C157.992 18.8419 157.992 18.8419 157.992 18.8419M163.194 17.9275V23.6482H158.526C158.181 23.6482 157.798 23.6422 157.376 23.6301C156.982 23.6184 156.582 23.5834 156.174 23.5249C155.786 23.4674 155.405 23.3813 155.028 23.2665C154.688 23.159 154.394 23.0113 154.142 22.8264L154.128 22.8158L154.113 22.8063C153.836 22.6323 153.648 22.421 153.529 22.173C153.397 21.8844 153.332 21.583 153.332 21.2639V21.2544L153.331 21.245C153.321 20.9778 153.362 20.7421 153.446 20.5311L153.452 20.5165L153.457 20.5015C153.541 20.2464 153.682 20.0368 153.887 19.8639L153.888 19.8628C154.137 19.6513 154.413 19.4823 154.716 19.3551C155.035 19.2215 155.365 19.1213 155.708 19.0543C156.073 18.9851 156.405 18.9396 156.703 18.9163H156.816C156.905 18.9163 156.993 18.91 157.08 18.8956M163.194 17.9275L157.08 18.8956M157.992 18.8419C157.621 18.8653 157.316 18.8833 157.08 18.8956M157.992 18.8419C157.993 18.8419 157.993 18.8418 157.994 18.8418L157.08 18.8956M157.397 17.6044C157.05 17.6154 156.769 17.6319 156.598 17.6628C156.091 17.7027 155.584 17.7862 155.078 17.9129C154.545 18.0466 154.053 18.2487 153.607 18.5213C153.154 18.7925 152.781 19.1509 152.49 19.5922L152.489 19.5922L152.483 19.602C152.184 20.0795 152.05 20.6489 152.05 21.2823C152.05 21.8353 152.156 22.3389 152.393 22.7718L152.642 22.6355L152.393 22.7718C152.616 23.1778 152.914 23.5206 153.285 23.7964L153.285 23.7964L153.293 23.8018C153.663 24.0666 154.08 24.2724 154.537 24.4215C154.975 24.5641 155.425 24.6741 155.888 24.7516L155.895 24.7529L155.903 24.7539C156.367 24.8169 156.825 24.861 157.277 24.8863L157.277 24.8865L157.291 24.8869C157.733 24.8992 158.145 24.9054 158.526 24.9054H163.976H164.476V24.4054V12.9518C164.476 12.6497 164.231 12.4048 163.929 12.4048H152.982C152.695 12.4048 152.463 12.6369 152.463 12.9232V16.2339V16.7339H152.963H153.226H153.726V16.2339V13.662H163.194V16.3935C163.191 16.418 163.168 16.4858 163.017 16.589C162.82 16.7242 162.551 16.8517 162.198 16.9636C161.831 17.0674 161.419 17.1609 160.961 17.2435C160.506 17.3157 160.05 17.3819 159.595 17.4421C159.14 17.4901 158.717 17.5259 158.327 17.5498L158.326 17.5498C157.941 17.5741 157.631 17.5923 157.397 17.6044Z" stroke="#4D3BBD"/>
<rect width="35.0034" height="31" rx="5.40426" fill="#4D3BBD"/>
<path d="M21.411 26.1831L6.04457 26.1831C6.04457 18.9756 11.9079 19.8148 16.3622 23.2544C22.5765 27.8358 25.8204 24.072 22.5765 20.6457L17.4454 15.4439C30.7817 10.082 32.9754 26.6025 21.411 26.1831Z" fill="#FAFBFF"/>
<path d="M13.5426 4.78228H28.909C28.909 11.9898 23.0457 11.1506 18.5914 7.71089C12.3772 3.1295 9.13322 6.89335 12.3772 10.3196L17.5082 15.5214C4.17187 20.8834 1.9782 4.36278 13.5426 4.78228Z" fill="#FAFBFF"/>
</svg>
