<svg xmlns="http://www.w3.org/2000/svg" xmlns:xlink="http://www.w3.org/1999/xlink"><symbol fill="currentColor" viewBox="0 0 20 20" id="arrow1"><path fill-rule="evenodd" clip-rule="evenodd" d="M6.366 3.366a1.25 1.25 0 0 1 1.768 0l5.134 5.135a2.814 2.814 0 0 1 0 3.972l-5.134 5.135a1.25 1.25 0 0 1-1.768-1.768l5.135-5.134a.314.314 0 0 0 0-.438L6.366 5.134a1.25 1.25 0 0 1 0-1.768Z"/></symbol><symbol fill="currentColor" viewBox="0 0 20 20" id="comment"><g clip-path="url(#ba)"><path d="M14.166 15.358h-3.333l-3.708 2.467a.83.83 0 0 1-1.292-.692v-1.775c-2.5 0-4.167-1.666-4.167-4.166v-5c0-2.5 1.667-4.167 4.167-4.167h8.333c2.5 0 4.167 1.667 4.167 4.167v5c0 2.5-1.667 4.166-4.167 4.166Z" stroke="#fff" stroke-width="1.5" stroke-miterlimit="10" stroke-linecap="round" stroke-linejoin="round"/></g><defs><clipPath id="ba"><path d="M0 0h20v20H0z"/></clipPath></defs></symbol><symbol fill="currentColor" viewBox="0 0 20 20" id="eye"><path fill-rule="evenodd" clip-rule="evenodd" d="M9.754 8.117A2.38 2.38 0 0 0 7.371 10.5a2.38 2.38 0 0 0 2.383 2.383 2.38 2.38 0 0 0 2.383-2.383 2.38 2.38 0 0 0-2.383-2.383ZM6.171 10.5a3.58 3.58 0 0 1 3.583-3.583 3.58 3.58 0 0 1 3.584 3.583 3.58 3.58 0 0 1-3.584 3.583A3.58 3.58 0 0 1 6.171 10.5Z"/><path fill-rule="evenodd" clip-rule="evenodd" d="M1.657 8.01C3.646 4.885 6.558 3 9.753 3c3.196 0 6.109 1.884 8.098 5.011.451.707.656 1.614.656 2.485 0 .87-.205 1.778-.656 2.485-1.99 3.127-4.902 5.01-8.098 5.01-3.196 0-6.109-1.884-8.098-5.01-.45-.708-.656-1.615-.656-2.485 0-.87.205-1.778.657-2.485ZM9.753 4.2c-2.687 0-5.258 1.582-7.085 4.455v.001c-.3.468-.469 1.136-.469 1.84 0 .704.17 1.372.468 1.84 1.828 2.873 4.399 4.456 7.086 4.456 2.687 0 5.258-1.583 7.086-4.456.299-.468.468-1.136.468-1.84 0-.704-.17-1.372-.468-1.84C15.012 5.781 12.44 4.2 9.754 4.2Z"/></symbol><symbol fill="currentColor" viewBox="0 0 20 20" id="heart"><path d="M10.35 17.258c-.283.1-.75.1-1.033 0C6.9 16.433 1.5 12.992 1.5 7.158 1.5 4.583 3.575 2.5 6.133 2.5c1.517 0 2.859.733 3.7 1.867a4.608 4.608 0 0 1 3.7-1.867c2.559 0 4.634 2.083 4.634 4.658 0 5.834-5.4 9.275-7.817 10.1Z"/><path fill-rule="evenodd" clip-rule="evenodd" d="M6.133 3C3.853 3 2 4.857 2 7.158c0 2.75 1.27 4.95 2.86 6.58 1.595 1.634 3.482 2.66 4.618 3.047l.005.002c.072.025.199.046.35.046.152 0 .28-.02.35-.046l.005-.002c1.137-.388 3.023-1.413 4.619-3.048 1.59-1.628 2.86-3.828 2.86-6.579 0-2.3-1.854-4.158-4.134-4.158a4.108 4.108 0 0 0-3.298 1.665.5.5 0 0 1-.803 0A4.096 4.096 0 0 0 6.133 3ZM1 7.158C1 4.31 3.297 2 6.133 2c1.458 0 2.77.612 3.7 1.591A5.099 5.099 0 0 1 13.534 2c2.837 0 5.134 2.31 5.134 5.158 0 3.083-1.43 5.52-3.145 7.278-1.707 1.75-3.728 2.857-5.008 3.295a2.124 2.124 0 0 1-.68.102c-.223 0-.47-.028-.681-.102-1.28-.438-3.301-1.546-5.009-3.295C2.43 12.679 1 10.24 1 7.158Z"/></symbol><symbol fill="currentColor" viewBox="0 0 20 20" id="like"><g clip-path="url(#ea)"><path d="M10.517 17.342c-.284.1-.75.1-1.034 0-2.416-.825-7.816-4.267-7.816-10.1 0-2.575 2.075-4.659 4.633-4.659 1.517 0 2.858.734 3.7 1.867a4.608 4.608 0 0 1 3.7-1.867c2.558 0 4.633 2.084 4.633 4.659 0 5.833-5.4 9.275-7.816 10.1Z" stroke="#fff" stroke-width="1.5" stroke-linecap="round" stroke-linejoin="round"/></g><defs><clipPath id="ea"><path d="M0 0h20v20H0z"/></clipPath></defs></symbol><symbol fill="currentColor" viewBox="0 0 20 20" id="menu-icon1"><path fill-rule="evenodd" clip-rule="evenodd" d="M1.837 1.837C2.438 1.236 3.28 1 4.22 1h1.652c.94 0 1.781.236 2.383.837.601.601.837 1.443.837 2.383v1.652c0 .94-.236 1.781-.837 2.383-.602.601-1.443.837-2.383.837H4.22c-.94 0-1.782-.236-2.383-.837C1.236 7.653 1 6.812 1 5.872V4.22c0-.94.236-1.782.837-2.383Zm1.05 1.05c-.223.225-.4.622-.4 1.333v1.652c0 .71.177 1.108.4 1.332.225.224.622.402 1.333.402h1.652c.71 0 1.108-.178 1.332-.402.224-.224.402-.621.402-1.332V4.22c0-.711-.178-1.108-.402-1.332-.224-.224-.621-.402-1.332-.402H4.22c-.711 0-1.108.178-1.332.402ZM11.745 1.837C12.347 1.236 13.188 1 14.128 1h1.652c.94 0 1.782.236 2.383.837S19 3.28 19 4.22v1.652c0 .94-.236 1.781-.837 2.383-.601.601-1.443.837-2.383.837h-1.652c-.94 0-1.781-.236-2.383-.837-.601-.602-.837-1.443-.837-2.383V4.22c0-.94.236-1.782.837-2.383Zm1.051 1.05c-.224.225-.401.622-.401 1.333v1.652c0 .71.177 1.108.401 1.332.224.224.621.402 1.332.402h1.652c.711 0 1.108-.178 1.332-.402.225-.224.402-.621.402-1.332V4.22c0-.711-.177-1.108-.402-1.332-.224-.224-.621-.402-1.332-.402h-1.652c-.71 0-1.108.178-1.332.402ZM11.745 11.745c.602-.601 1.443-.837 2.383-.837h1.652c.94 0 1.782.236 2.383.837.601.602.837 1.443.837 2.383v1.652c0 .94-.236 1.782-.837 2.383S16.72 19 15.78 19h-1.652c-.94 0-1.781-.236-2.383-.837-.601-.601-.837-1.443-.837-2.383v-1.652c0-.94.236-1.781.837-2.383Zm1.051 1.051c-.224.224-.401.621-.401 1.332v1.652c0 .711.177 1.108.401 1.332.224.225.621.402 1.332.402h1.652c.711 0 1.108-.177 1.332-.402.225-.224.402-.621.402-1.332v-1.652c0-.71-.177-1.108-.402-1.332-.224-.224-.621-.401-1.332-.401h-1.652c-.71 0-1.108.177-1.332.401ZM1.837 11.745c.601-.601 1.443-.837 2.383-.837h1.652c.94 0 1.781.236 2.383.837.601.602.837 1.443.837 2.383v1.652c0 .94-.236 1.782-.837 2.383-.602.601-1.443.837-2.383.837H4.22c-.94 0-1.782-.236-2.383-.837S1 16.72 1 15.78v-1.652c0-.94.236-1.781.837-2.383Zm1.05 1.051c-.223.224-.4.621-.4 1.332v1.652c0 .711.177 1.108.4 1.332.225.225.622.402 1.333.402h1.652c.71 0 1.108-.177 1.332-.402.224-.224.402-.621.402-1.332v-1.652c0-.71-.178-1.108-.402-1.332-.224-.224-.621-.401-1.332-.401H4.22c-.711 0-1.108.177-1.332.401Z"/></symbol><symbol fill="currentColor" viewBox="0 0 20 20" id="menu-icon10"><path fill-rule="evenodd" clip-rule="evenodd" d="M2.323 8.683a.75.75 0 0 1 .75.75v3.742c0 1.796.365 2.86.999 3.494.633.633 1.697.998 3.493.998h4.492c1.796 0 2.86-.365 3.493-.998.634-.634.998-1.697.998-3.494V9.433a.75.75 0 0 1 1.5 0v3.742c0 1.945-.385 3.502-1.437 4.554-1.052 1.052-2.609 1.438-4.554 1.438H7.565c-1.945 0-3.502-.386-4.554-1.438-1.052-1.052-1.438-2.609-1.438-4.554V9.433a.75.75 0 0 1 .75-.75Z"/><path fill-rule="evenodd" clip-rule="evenodd" d="M7.127 1.675A.75.75 0 0 1 7.873 1h3.892a.75.75 0 0 1 .746.676l.55 5.567c.194 1.964-1.276 3.59-3.246 3.59s-3.44-1.625-3.246-3.59l.558-5.568Zm1.425.825-.49 4.89c-.107 1.085.673 1.943 1.753 1.943 1.08 0 1.86-.857 1.754-1.943l-.483-4.89H8.552Z"/><path fill-rule="evenodd" clip-rule="evenodd" d="M11.176 1.247A.75.75 0 0 1 11.732 1h2.542c1.168 0 2.151.22 2.873.887.712.657 1.028 1.622 1.186 2.76a.808.808 0 0 1 .003.027l.234 2.293c.21 2.115-1.368 3.866-3.497 3.866-1.759 0-3.323-1.407-3.504-3.164v-.003l-.584-5.841a.75.75 0 0 1 .19-.578ZM12.56 2.5l.501 5.015c.103.993 1.022 1.818 2.012 1.818 1.238 0 2.127-.982 2.004-2.216l-.232-2.277c-.142-1.02-.392-1.552-.716-1.852-.315-.291-.84-.488-1.856-.488H12.56ZM2.433 1.887C3.155 1.22 4.138 1 5.307 1h2.541a.75.75 0 0 1 .747.825l-.583 5.839c-.172 1.762-1.739 3.17-3.497 3.17-2.128 0-3.706-1.751-3.496-3.866l.225-2.291a.75.75 0 0 1 .003-.03c.158-1.138.474-2.103 1.186-2.76Zm.302 2.951-.223 2.277c-.123 1.235.765 2.218 2.003 2.218.992 0 1.908-.826 2.004-1.814v-.002l.5-5.017H5.308c-1.015 0-1.54.197-1.856.488-.324.3-.573.832-.716 1.85ZM7.721 14.24c.538-.538 1.284-.74 2.094-.74.81 0 1.556.202 2.094.74.538.537.74 1.283.74 2.093v2.084a.75.75 0 0 1-.75.75H7.732a.75.75 0 0 1-.75-.75v-2.084c0-.81.202-1.556.74-2.093Zm1.06 1.06c-.155.156-.3.452-.3 1.033v1.334h2.668v-1.334c0-.581-.145-.877-.3-1.033-.157-.156-.453-.3-1.034-.3s-.877.144-1.033.3Z"/></symbol><symbol fill="currentColor" viewBox="0 0 20 20" id="menu-icon2"><g clip-path="url(#ha)" fill-rule="evenodd" clip-rule="evenodd"><path d="M.917 10C.917 5.002 5.002.917 10 .917S19.083 5.002 19.083 10 14.998 19.083 10 19.083.917 14.998.917 10ZM10 2.417C5.83 2.417 2.417 5.83 2.417 10c0 4.17 3.414 7.583 7.583 7.583 4.17 0 7.583-3.414 7.583-7.583 0-4.17-3.414-7.583-7.583-7.583Z"/><path d="M10 5.917a.75.75 0 0 1 .75.75v4.166a.75.75 0 0 1-1.5 0V6.667a.75.75 0 0 1 .75-.75ZM8.995 13.333a1 1 0 0 1 1-1h.008a1 1 0 1 1 0 2h-.008a1 1 0 0 1-1-1Z"/></g><defs><clipPath id="ha"><path d="M0 0h20v20H0z"/></clipPath></defs></symbol><symbol fill="currentColor" viewBox="0 0 20 20" id="menu-icon3"><path fill-rule="evenodd" clip-rule="evenodd" d="M7.296 2.5a2.947 2.947 0 0 0-2.95 2.95A2.933 2.933 0 0 0 7.14 8.39c.1-.006.205-.006.305 0a2.946 2.946 0 0 0-.15-5.89Zm-4.45 2.95A4.447 4.447 0 0 1 7.296 1a4.452 4.452 0 0 1 4.45 4.45v.003a4.446 4.446 0 0 1-4.292 4.438.75.75 0 0 1-.1-.003.772.772 0 0 0-.132 0 .75.75 0 0 1-.093.003A4.433 4.433 0 0 1 2.846 5.45ZM12.72 3.417a.75.75 0 0 1 .75-.75 3.665 3.665 0 0 1 3.667 3.666A3.67 3.67 0 0 1 13.607 10c-.04.002-.08 0-.12-.005h-.013l-.029.001a.75.75 0 1 1-.165-1.49c.102-.012.21-.015.317-.007a2.17 2.17 0 0 0 2.04-2.165 2.165 2.165 0 0 0-2.166-2.166.75.75 0 0 1-.75-.75ZM7.44 10.323c1.625 0 3.29.408 4.58 1.27 1.165.775 1.847 1.872 1.847 3.066 0 1.194-.682 2.294-1.846 3.073-1.295.866-2.961 1.276-4.588 1.276-1.626 0-3.292-.41-4.587-1.276C1.682 16.957 1 15.86 1 14.666c0-1.194.682-2.294 1.845-3.073l.003-.001c1.298-.861 2.966-1.27 4.592-1.27ZM3.678 12.84c-.852.57-1.178 1.246-1.178 1.825 0 .578.326 1.251 1.178 1.818l.002.001c.996.667 2.355 1.023 3.753 1.023 1.399 0 2.758-.356 3.754-1.023.853-.571 1.18-1.247 1.18-1.826 0-.578-.327-1.251-1.178-1.818h-.001c-.993-.663-2.35-1.018-3.748-1.018-1.399 0-2.76.354-3.762 1.018ZM14.373 11.585a.75.75 0 0 1 .896-.567c.671.152 1.334.422 1.896.85.811.61 1.273 1.466 1.273 2.378 0 .911-.461 1.767-1.272 2.376a4.78 4.78 0 0 1-1.934.862.75.75 0 1 1-.306-1.468 3.282 3.282 0 0 0 1.33-.586l.006-.005c.488-.366.675-.8.675-1.18 0-.378-.187-.813-.675-1.178l-.005-.004c-.354-.27-.807-.466-1.318-.581a.75.75 0 0 1-.566-.897Z"/></symbol><symbol fill="currentColor" viewBox="0 0 20 20" id="menu-icon4"><g clip-path="url(#ja)" fill-rule="evenodd" clip-rule="evenodd"><path d="M8.125 1.875c.345 0 .625.28.625.625v4.832c-.001.22-.06.435-.168.626l-.007.012-4.968 8.28h12.786l-4.968-8.28-.007-.012a1.281 1.281 0 0 1-.168-.626V2.5a.625.625 0 1 1 1.25 0v4.825a.03.03 0 0 0 .003.012l4.963 8.272a1.25 1.25 0 0 1-1.062 1.891H3.596a1.25 1.25 0 0 1-1.062-1.89v-.002l4.963-8.271a.031.031 0 0 0 .003-.012V2.5c0-.345.28-.625.625-.625Z"/><path d="M6.25 2.5c0-.345.28-.625.625-.625h6.25a.625.625 0 1 1 0 1.25h-6.25A.625.625 0 0 1 6.25 2.5ZM9.72 13.684c-2.45-1.221-3.773-.795-4.458-.29a.625.625 0 0 1-.742-1.006c1.158-.855 3.006-1.194 5.759.178h.001c1.324.664 2.315.836 3.042.787.719-.049 1.223-.316 1.578-.618a.625.625 0 1 1 .81.952c-.537.456-1.29.845-2.304.913-1.005.068-2.22-.181-3.685-.916Z"/></g><defs><clipPath id="ja"><path d="M0 0h20v20H0z"/></clipPath></defs></symbol><symbol fill="currentColor" viewBox="0 0 20 20" id="menu-icon5"><g clip-path="url(#ka)"><path fill-rule="evenodd" clip-rule="evenodd" d="M12.902 1.81c.136.328.19.715.19 1.123v5.25h1.825c.676 0 1.458.207 1.777.914.32.706-.043 1.428-.49 1.933l-6.308 7.166c-.27.306-.566.56-.884.717-.322.16-.725.244-1.13.091-.407-.152-.655-.481-.792-.814-.136-.328-.19-.715-.19-1.123v-5.25H5.075c-.672 0-1.451-.204-1.77-.91-.32-.703.038-1.424.479-1.932l.003-.004 6.308-7.167c.27-.306.566-.56.885-.718.322-.158.725-.242 1.13-.09.406.152.655.481.792.814Zm-1.68.986c-.001 0 0 0 0 0L4.914 9.96c-.119.137-.18.242-.208.31.07.024.188.047.368.047H7.65a.75.75 0 0 1 .75.75v6c0 .2.02.345.043.444.083-.059.194-.155.327-.306l6.309-7.167.001-.002c.12-.134.18-.238.21-.306a1.22 1.22 0 0 0-.373-.047h-2.575a.75.75 0 0 1-.75-.75v-6c0-.2-.02-.345-.043-.444a1.956 1.956 0 0 0-.328.307ZM8.495 17.658v-.001Z"/></g><defs><clipPath id="ka"><path d="M0 0h20v20H0z"/></clipPath></defs></symbol><symbol fill="currentColor" viewBox="0 0 20 20" id="menu-icon6"><g clip-path="url(#la)" fill-rule="evenodd" clip-rule="evenodd"><path d="M7.82 3.12a5.008 5.008 0 0 0-4.618 7.553c.087.148.11.325.063.49l-.477 1.674 1.673-.477a.625.625 0 0 1 .49.064 5.008 5.008 0 1 0 2.87-9.305Zm-4.152.056a6.258 6.258 0 1 1 .885 10.457l-1.694.484h-.002a1.094 1.094 0 0 1-1.35-1.349l.001-.002.483-1.694a6.258 6.258 0 0 1 1.677-7.896Z"/><path d="M12.18 6.225a.625.625 0 0 1 .657-.591 6.242 6.242 0 0 1 5.172 9.188l.483 1.696a1.094 1.094 0 0 1-1.349 1.35l-.002-.001-1.694-.483a6.242 6.242 0 0 1-8.841-3.435.625.625 0 0 1 1.18-.414 4.992 4.992 0 0 0 7.262 2.639l.32.537.17-.601 1.674.477-.477-1.673a.625.625 0 0 1 .064-.492 4.992 4.992 0 0 0-4.027-7.54.625.625 0 0 1-.591-.657Z"/></g><defs><clipPath id="la"><path d="M0 0h20v20H0z"/></clipPath></defs></symbol><symbol fill="currentColor" viewBox="0 0 20 20" id="menu-icon7"><path fill-rule="evenodd" clip-rule="evenodd" d="M4.29 3.406c-.506.544-.79 1.376-.79 2.51v8.334c0 1.135.284 1.966.79 2.51.495.535 1.311.907 2.627.907h6.666c1.316 0 2.132-.372 2.628-.907.505-.544.789-1.375.789-2.51V5.917c0-1.135-.284-1.967-.79-2.51-.495-.535-1.311-.907-2.627-.907H6.917c-1.316 0-2.132.372-2.628.906Zm-1.1-1.02C4.048 1.46 5.315 1 6.917 1h6.666c1.602 0 2.869.461 3.727 1.385.849.915 1.19 2.167 1.19 3.532v8.333c0 1.365-.341 2.617-1.19 3.531-.858.924-2.125 1.386-3.727 1.386H6.917c-1.602 0-2.869-.462-3.727-1.386C2.341 16.867 2 15.615 2 14.25V5.917c0-1.365.341-2.617 1.19-3.532Z"/><path fill-rule="evenodd" clip-rule="evenodd" d="M12.333 3.083a.75.75 0 0 1 .75.75V5.5c0 .502.415.917.917.917h1.667a.75.75 0 0 1 0 1.5H14A2.422 2.422 0 0 1 11.583 5.5V3.833a.75.75 0 0 1 .75-.75ZM6.167 10.917a.75.75 0 0 1 .75-.75h3.333a.75.75 0 0 1 0 1.5H6.917a.75.75 0 0 1-.75-.75ZM6.167 14.25a.75.75 0 0 1 .75-.75h6.666a.75.75 0 1 1 0 1.5H6.917a.75.75 0 0 1-.75-.75Z"/></symbol><symbol fill="currentColor" viewBox="0 0 20 20" id="menu-icon8"><g clip-path="url(#na)" fill-rule="evenodd" clip-rule="evenodd"><path d="M3.03 5.53c-.386.387-.613 1.131-.613 2.803v3.334c0 1.672.227 2.416.613 2.803.387.386 1.131.613 2.803.613h5c1.672 0 2.417-.227 2.803-.613.387-.387.614-1.131.614-2.803V8.333c0-1.672-.227-2.416-.614-2.803-.386-.386-1.13-.613-2.803-.613h-5c-1.672 0-2.416.227-2.803.613ZM1.97 4.47c.863-.864 2.202-1.053 3.863-1.053h5c1.662 0 3 .19 3.864 1.053.864.863 1.053 2.202 1.053 3.863v3.334c0 1.661-.19 3-1.053 3.863-.863.864-2.202 1.053-3.864 1.053h-5c-1.661 0-3-.19-3.863-1.053-.864-.863-1.053-2.202-1.053-3.863V8.333c0-1.661.19-3 1.053-3.863ZM16.333 7.917a.75.75 0 0 1 .75-.75c.632 0 1.3.086 1.694.612.189.252.254.529.281.748.026.203.025.426.025.615V10.858c0 .189 0 .412-.025.615a1.54 1.54 0 0 1-.28.748c-.395.526-1.063.612-1.695.612a.75.75 0 0 1 0-1.5c.254 0 .403-.02.486-.04v-.006c.013-.1.014-.23.014-.454V9.167c0-.223 0-.354-.013-.454l-.001-.006a2.127 2.127 0 0 0-.486-.04.75.75 0 0 1-.75-.75Z"/></g><defs><clipPath id="na"><path d="M0 0h20v20H0z"/></clipPath></defs></symbol><symbol fill="currentColor" viewBox="0 0 20 20" id="menu-icon9"><path fill-rule="evenodd" clip-rule="evenodd" d="M1 1.75A.75.75 0 0 1 1.75 1H3.2c1.015 0 1.865.66 2.17 1.558h10.322c1.824 0 3.221 1.493 3.09 3.313l-.45 6.25v.003c-.122 1.579-1.495 2.868-3.09 2.868H6.367a3.08 3.08 0 0 1-3.073-3.339l.692-8.299A.792.792 0 0 0 3.2 2.5H1.75A.75.75 0 0 1 1 1.75Zm4.432 2.308-.643 7.72v.003a1.58 1.58 0 0 0 1.578 1.71h8.875c.803 0 1.53-.676 1.593-1.48v-.002l.45-6.246c.069-.947-.635-1.705-1.593-1.705H5.432ZM13.625 17.083a.292.292 0 1 0 0 .584.292.292 0 0 0 0-.584Zm-1.792.292a1.792 1.792 0 1 1 3.584 0 1.792 1.792 0 0 1-3.584 0ZM6.958 17.083a.292.292 0 1 0 0 .584.292.292 0 0 0 0-.584Zm-1.791.292a1.792 1.792 0 1 1 3.583 0 1.792 1.792 0 0 1-3.583 0Z"/><path fill-rule="evenodd" clip-rule="evenodd" d="M6.833 6.75a.75.75 0 0 1 .75-.75h10a.75.75 0 0 1 0 1.5h-10a.75.75 0 0 1-.75-.75Z"/></symbol><symbol fill="currentColor" viewBox="0 0 19 19" id="tg"><path fill-rule="evenodd" clip-rule="evenodd" d="M1.1 8.422c4.295-2.105 7.159-3.493 8.592-4.164C13.783 2.344 14.633 2.011 15.188 2c.121-.002.394.032.57.193.15.136.19.32.21.449.02.129.044.423.025.652-.222 2.621-1.181 8.981-1.67 11.916-.206 1.242-.613 1.659-1.006 1.7-.856.088-1.505-.636-2.334-1.248-1.297-.956-2.03-1.551-3.288-2.484-1.455-1.079-.512-1.671.317-2.64.217-.253 3.987-4.11 4.06-4.46.01-.044.018-.208-.069-.294-.086-.086-.213-.056-.305-.033-.13.033-2.201 1.574-6.214 4.621-.588.454-1.12.676-1.598.664-.526-.013-1.538-.335-2.29-.61C.673 10.09-.06 9.91.004 9.337c.033-.298.398-.603 1.096-.915Z"/></symbol></svg>