<svg width="158" height="28" viewBox="0 0 158 28" fill="none" xmlns="http://www.w3.org/2000/svg">
<mask id="path-1-outside-1_2095_21366" maskUnits="userSpaceOnUse" x="35.1572" y="8.62305" width="122" height="17" fill="black">
<rect fill="white" x="35.1572" y="8.62305" width="122" height="17"/>
<path d="M36.1572 9.62305H36.3941V14.3407C36.5941 13.9707 36.8573 13.6315 37.1836 13.3232C37.5099 13.0148 37.8836 12.7528 38.3047 12.5369C38.7258 12.3108 39.1889 12.1361 39.6942 12.0127C40.21 11.8894 40.7522 11.8277 41.3206 11.8277C42.1838 11.8277 42.9207 11.9305 43.5312 12.1361C44.1523 12.3313 44.6576 12.578 45.0471 12.8761C45.4366 13.1639 45.7208 13.4722 45.8997 13.8011C46.0787 14.1197 46.1682 14.3973 46.1682 14.6337V21.4018H45.9471V14.6337C45.9471 14.4384 45.8576 14.1968 45.6787 13.909C45.5103 13.611 45.2366 13.3232 44.8576 13.0457C44.4892 12.7682 44.0102 12.5318 43.4207 12.3365C42.8417 12.1412 42.1417 12.0436 41.3206 12.0436C40.7311 12.0436 40.2048 12.1052 39.7416 12.2286C39.2784 12.3519 38.8679 12.5061 38.51 12.6911C38.152 12.8761 37.8468 13.0817 37.5941 13.3078C37.3415 13.5339 37.131 13.7549 36.9625 13.9707C36.8151 14.1763 36.6836 14.3767 36.5678 14.572C36.452 14.7673 36.3941 14.9985 36.3941 15.2658V21.4018H36.1572V9.62305Z"/>
<path d="M50.0769 13.354V21.4018H49.8401V13.354H50.0769ZM49.4137 10.5018L49.4295 10.4864C49.4506 10.4659 49.4874 10.4299 49.54 10.3785C49.5927 10.3168 49.6453 10.2552 49.6979 10.1935C49.7295 10.1524 49.7611 10.1164 49.7927 10.0856C49.8348 10.0445 49.8769 10.0033 49.919 9.96223L50.4559 10.5018L49.919 11.0414L49.4137 10.5018Z"/>
<path d="M54.3861 19.7059C54.1124 19.2126 53.9651 18.8415 53.9056 18.2317H54.1584C54.2179 18.6818 54.3071 19.0019 54.5913 19.5672C54.8755 20.1325 55.3177 20.5487 55.9177 20.816C56.1703 20.9496 56.5651 21.0575 57.102 21.1397C57.6493 21.222 58.2441 21.2631 58.8862 21.2631C59.2757 21.2631 59.6652 21.2477 60.0547 21.2168C60.4547 21.1757 60.8284 21.114 61.1758 21.0318C61.5337 20.9496 61.8601 20.8468 62.1548 20.7235C62.4495 20.5899 62.6864 20.4305 62.8654 20.2455C63.0969 20.0091 63.2548 19.7573 63.3391 19.4901C63.4338 19.2229 63.4812 18.9865 63.4812 18.7809C63.4812 18.6678 63.4549 18.5034 63.4022 18.2875C63.3601 18.0717 63.2022 17.8456 62.9285 17.6092C62.6443 17.3625 62.239 17.2186 61.7127 17.1775C61.4284 17.1569 61.1705 17.1364 60.939 17.1158C60.7179 17.0953 60.5179 17.0747 60.3389 17.0542L59.4705 16.9771C59.2389 16.9565 59.0389 16.9411 58.8704 16.9308C58.7125 16.9206 58.5336 16.9103 58.3336 16.9C58.1336 16.8794 57.8862 16.8537 57.5914 16.8229C57.2967 16.7921 56.9019 16.7458 56.4072 16.6842C56.0282 16.643 55.6966 16.5505 55.4124 16.4066C55.1387 16.2627 54.9124 16.0932 54.7334 15.8979C54.5545 15.6923 54.4229 15.4713 54.3387 15.2349C54.2545 14.9883 54.2124 14.7467 54.2124 14.5103C54.2124 14.4589 54.2176 14.3305 54.2281 14.1249C54.2387 13.909 54.365 13.6315 54.6071 13.2924C54.8176 12.9943 55.0808 12.7476 55.3966 12.5523C55.7124 12.3468 56.0545 12.1875 56.423 12.0744C56.8019 11.9511 57.1862 11.8637 57.5757 11.8123C57.9651 11.7609 58.3336 11.7352 58.681 11.7352C58.9968 11.7352 59.3336 11.7558 59.6915 11.7969C60.06 11.838 60.4442 11.9099 60.8442 12.0127C60.8547 12.0127 60.8653 12.0179 60.8758 12.0281C60.8863 12.0281 60.8969 12.0281 60.9074 12.0281C61.8232 12.3057 62.5074 12.7682 62.9601 13.4157C63.1338 13.6642 63.5601 14.2594 63.7455 15.2465H63.5224C63.2994 14.5642 63.318 14.5668 63.0548 14.0632C62.7917 13.5596 62.4495 13.1536 62.0285 12.8453C61.6074 12.5266 61.1126 12.3005 60.5442 12.1669C59.9758 12.023 59.3442 11.9511 58.6494 11.9511C58.0178 11.9511 57.4441 12.0127 56.9283 12.1361C56.423 12.2594 56.0177 12.4136 55.7124 12.5986C55.365 12.8041 55.065 13.0868 54.8124 13.4465C54.5703 13.8063 54.4492 14.1814 54.4492 14.572C54.4492 15.0448 54.6282 15.4611 54.9861 15.8208C55.3545 16.1805 55.8387 16.3964 56.4388 16.4683C56.9441 16.5197 57.3388 16.5608 57.623 16.5916C57.9178 16.6225 58.1599 16.6482 58.3494 16.6687C58.5389 16.679 58.7073 16.6944 58.8547 16.715C59.0126 16.7253 59.202 16.7407 59.4231 16.7612C59.6547 16.7715 59.9442 16.7921 60.2916 16.8229C60.6495 16.8537 61.1284 16.8949 61.7285 16.9462C62.0022 16.9771 62.2601 17.0336 62.5022 17.1158C62.7443 17.1981 62.9548 17.3163 63.1338 17.4704C63.3127 17.6143 63.4549 17.7891 63.5601 17.9946C63.6654 18.2002 63.718 18.4417 63.718 18.7192C63.718 19.2743 63.5706 19.7316 63.2759 20.0914C62.9917 20.4408 62.618 20.7183 62.1548 20.9239C61.7021 21.1295 61.1863 21.2734 60.6074 21.3556C60.0389 21.4378 59.4705 21.4789 58.902 21.4789C58.3652 21.4789 57.8651 21.4584 57.402 21.4173C56.9493 21.3761 56.5335 21.2939 56.1545 21.1706C55.7756 21.037 55.4387 20.8571 55.144 20.631C54.8492 20.3946 54.5966 20.0862 54.3861 19.7059Z"/>
<path d="M66.8518 9.62305H67.0886V14.3407C67.2886 13.9707 67.5518 13.6315 67.8781 13.3232C68.2045 13.0148 68.5782 12.7528 68.9992 12.5369C69.4203 12.3108 69.8835 12.1361 70.3888 12.0127C70.9046 11.8894 71.4467 11.8277 72.0152 11.8277C72.8784 11.8277 73.6152 11.9305 74.2258 12.1361C74.8469 12.3313 75.3521 12.578 75.7416 12.8761C76.1311 13.1639 76.4153 13.4722 76.5943 13.8011C76.7733 14.1197 76.8627 14.3973 76.8627 14.6337V21.4018H76.6417V14.6337C76.6417 14.4384 76.5522 14.1968 76.3732 13.909C76.2048 13.611 75.9311 13.3232 75.5521 13.0457C75.1837 12.7682 74.7048 12.5318 74.1152 12.3365C73.5363 12.1412 72.8362 12.0436 72.0152 12.0436C71.4257 12.0436 70.8993 12.1052 70.4361 12.2286C69.973 12.3519 69.5624 12.5061 69.2045 12.6911C68.8466 12.8761 68.5413 13.0817 68.2887 13.3078C68.036 13.5339 67.8255 13.7549 67.6571 13.9707C67.5097 14.1763 67.3781 14.3767 67.2623 14.572C67.1465 14.7673 67.0886 14.9985 67.0886 15.2658V21.4018H66.8518V9.62305Z"/>
<path d="M83.2953 16.3758C83.0216 16.3964 82.7216 16.4375 82.3952 16.4991C82.0794 16.5608 81.7742 16.6533 81.4794 16.7767C81.1847 16.9 80.9162 17.0644 80.6741 17.27C80.4425 17.4653 80.2794 17.7068 80.1846 17.9946C80.0899 18.231 80.0478 18.488 80.0583 18.7655C80.0583 19.0944 80.1267 19.4079 80.2636 19.7059C80.4004 19.9937 80.6162 20.2301 80.911 20.4151C81.1636 20.6001 81.4531 20.744 81.7794 20.8468C82.1163 20.9496 82.4584 21.0267 82.8058 21.0781C83.1637 21.1295 83.5163 21.1603 83.8637 21.1706C84.2216 21.1809 84.5479 21.186 84.8427 21.186H89.185V15.1733C89.0692 15.3172 88.8902 15.4456 88.6481 15.5587C88.4165 15.6615 88.1534 15.754 87.8586 15.8362C87.5639 15.9184 87.2481 15.9904 86.9112 16.052C86.5744 16.1034 86.248 16.1497 85.9322 16.1908C85.6164 16.2216 85.3217 16.2473 85.048 16.2679C84.7743 16.2884 84.548 16.3039 84.369 16.3141C84.0427 16.3347 83.7795 16.3501 83.5795 16.3604C83.5269 16.3707 83.469 16.3758 83.4058 16.3758H83.2953ZM79.8214 18.7809C79.8214 18.3081 79.9214 17.9124 80.1215 17.5938C80.332 17.2751 80.6004 17.0182 80.9267 16.8229C81.2636 16.6173 81.6373 16.4632 82.0478 16.3604C82.4584 16.2576 82.8689 16.1908 83.2795 16.16C83.3742 16.1394 83.5848 16.124 83.9111 16.1137C84.1111 16.1034 84.3743 16.088 84.7006 16.0675C85.0374 16.0469 85.4006 16.0161 85.7901 15.975C86.1796 15.9236 86.5691 15.867 86.9586 15.8054C87.3586 15.7334 87.7169 15.6512 88.0433 15.5587C88.3696 15.4559 88.6429 15.3326 88.8534 15.1887C89.0639 15.0448 89.1745 14.8803 89.185 14.6953V11.9665H80.3899V14.5444H80.1688V11.766C80.1688 11.7575 80.1757 11.7506 80.1842 11.7506H89.393C89.4089 11.7506 89.4218 11.7635 89.4218 11.7795V21.4018H84.8427C84.5269 21.4018 84.1848 21.3967 83.8163 21.3864C83.4479 21.3659 83.0742 21.3299 82.6952 21.2785C82.3268 21.2168 81.9689 21.1295 81.6215 21.0164C81.2741 20.9033 80.9636 20.7492 80.6899 20.5539C80.4267 20.3586 80.2162 20.1171 80.0583 19.8293C79.9004 19.5415 79.8214 19.192 79.8214 18.7809Z"/>
<path d="M92.5811 20.2301L92.5969 20.2147C92.6285 20.1839 92.6811 20.1273 92.7548 20.0451C92.839 19.9629 92.9232 19.8755 93.0074 19.783L93.3232 19.4438L94.0969 20.2301L93.3232 21.001L92.5811 20.2301Z"/>
<path d="M98.8563 13.1585V10.841H99.0932V13.1585H103.514V13.3744H99.0932V19.6288C99.0932 19.8858 99.1458 20.1119 99.2511 20.3072C99.3669 20.5025 99.5143 20.6669 99.6932 20.8006C99.8827 20.9239 100.088 21.0215 100.309 21.0935C100.541 21.1552 100.777 21.186 101.02 21.186H105.03V21.4018H101.02C100.714 21.4018 100.43 21.3607 100.167 21.2785C99.9143 21.186 99.6879 21.0627 99.4879 20.9085C99.2879 20.7543 99.13 20.5693 99.0142 20.3535C98.909 20.1376 98.8563 19.8961 98.8563 19.6288V13.3744H97.9721V13.1585H98.8563Z"/>
<path d="M107.118 16.6842C107.118 15.903 107.234 15.2041 107.466 14.5874C107.697 13.9707 108.029 13.4517 108.46 13.0303C108.902 12.6089 109.429 12.2902 110.039 12.0744C110.66 11.8483 111.35 11.7352 112.108 11.7352C112.866 11.7352 113.55 11.8534 114.161 12.0898C114.782 12.3262 115.308 12.6654 115.74 13.1073C116.171 13.539 116.503 14.0581 116.734 14.6645C116.966 15.2709 117.082 15.9441 117.082 16.6842C117.082 17.4756 116.966 18.1745 116.734 18.7809C116.503 19.3873 116.171 19.9012 115.74 20.3226C115.308 20.744 114.782 21.0627 114.161 21.2785C113.55 21.4943 112.866 21.6023 112.108 21.6023C111.35 21.6023 110.66 21.4841 110.039 21.2477C109.429 21.0113 108.902 20.6772 108.46 20.2455C108.029 19.8139 107.697 19.2999 107.466 18.7038C107.234 18.0974 107.118 17.4242 107.118 16.6842ZM108.587 13.2153C107.766 14.0478 107.355 15.2041 107.355 16.6842C107.355 17.3933 107.466 18.0357 107.687 18.6113C107.908 19.1869 108.223 19.6802 108.634 20.0914C109.055 20.5025 109.555 20.8211 110.134 21.0472C110.724 21.2734 111.381 21.3864 112.108 21.3864C112.866 21.3864 113.534 21.2785 114.113 21.0627C114.703 20.8468 115.197 20.5385 115.597 20.1376C116.008 19.7265 116.319 19.2331 116.529 18.6576C116.74 18.0717 116.845 17.4139 116.845 16.6842C116.845 15.975 116.734 15.3326 116.513 14.757C116.303 14.1711 115.992 13.6726 115.582 13.2615C115.171 12.8504 114.671 12.5318 114.082 12.3057C113.503 12.0795 112.845 11.9665 112.108 11.9665C110.581 11.9665 109.408 12.3827 108.587 13.2153Z"/>
<path d="M120.283 18.3492C120.188 18.082 120.114 17.8148 120.062 17.5475C120.009 17.27 119.983 16.9925 119.983 16.715C119.983 16.6944 119.978 16.6379 119.967 16.5454C119.967 16.4529 119.978 16.3244 119.999 16.16C120.02 15.9955 120.056 15.8054 120.109 15.5895C120.172 15.3634 120.262 15.1065 120.378 14.8187C120.62 14.2431 120.957 13.7343 121.388 13.2924C121.83 12.8298 122.362 12.465 122.983 12.1977C123.604 11.9305 124.325 11.7969 125.146 11.7969C125.746 11.7969 126.299 11.8586 126.804 11.9819C127.309 12.0949 127.762 12.2491 128.162 12.4444C128.562 12.6294 128.904 12.8504 129.188 13.1073C129.473 13.354 129.688 13.611 129.836 13.8782V9.62305H130.057V21.4018H125.572C124.836 21.4018 124.172 21.3247 123.583 21.1706C123.004 21.0061 122.493 20.7851 122.051 20.5076C121.609 20.2301 121.241 19.9064 120.946 19.5363C120.662 19.1663 120.441 18.7706 120.283 18.3492ZM120.267 16.7458C120.267 17.3625 120.388 17.9432 120.63 18.488C120.883 19.0224 121.235 19.4901 121.688 19.8909C122.151 20.2918 122.709 20.6104 123.362 20.8468C124.015 21.0729 124.751 21.186 125.572 21.186H129.836V14.6337C129.815 14.4281 129.746 14.2174 129.631 14.0015C129.515 13.7754 129.336 13.5544 129.094 13.3386C128.704 12.9789 128.178 12.6705 127.515 12.4136C126.852 12.1566 126.062 12.0281 125.146 12.0281C124.441 12.0281 123.788 12.1566 123.188 12.4136C122.599 12.6705 122.083 13.0148 121.641 13.4465C121.209 13.8782 120.872 14.3818 120.63 14.9574C120.388 15.5227 120.267 16.1189 120.267 16.7458Z"/>
<path d="M145.595 11.7951C145.753 11.8362 145.895 11.903 146.021 11.9955C146.158 12.0777 146.284 12.1754 146.4 12.2884C146.589 12.494 146.747 12.751 146.874 13.0593C147.011 13.3574 147.126 13.7636 147.221 14.1234C147.326 14.4728 147.375 14.7878 147.448 15.1887C147.533 15.5792 147.613 15.8773 147.686 16.2679C147.792 16.8537 147.942 17.4943 148.058 18.0391C148.174 18.5735 148.321 19.0566 148.5 19.4883H154.09L155.764 11.7797H156L155.944 12.0237L155.89 12.273C155.89 12.273 155.816 12.6071 155.764 12.8126C155.721 13.0182 155.674 13.2494 155.621 13.5064C155.548 13.8353 155.469 14.195 155.385 14.5856C155.3 14.9762 155.236 15.4451 155.141 15.8563C155.057 16.2571 154.998 16.5817 154.903 17.0031C154.819 17.4142 154.764 17.8132 154.68 18.1935C154.585 18.6458 154.477 19.1349 154.383 19.5872C154.288 20.0394 154.145 20.4885 154.011 20.9375C153.842 21.5028 153.611 21.9705 153.316 22.3405C153.032 22.7208 152.695 23.024 152.305 23.2501C151.926 23.4865 151.505 23.6561 151.042 23.7589C150.579 23.8719 150.09 23.9387 149.574 23.9593H149.163C148.69 23.9593 148.205 23.9285 147.711 23.8668C147.226 23.8051 146.684 23.7229 146.084 23.6201L146.116 23.3889C146.716 23.4916 147.258 23.5739 147.742 23.6355C148.226 23.6972 148.7 23.728 149.163 23.728H149.558C150.074 23.7075 150.558 23.6407 151.011 23.5276C151.463 23.4248 151.869 23.2604 152.227 23.0343C152.584 22.8184 152.895 22.5306 153.158 22.1709C153.421 21.8214 153.627 21.3898 153.774 20.8758L154.027 19.7041H148.342L147.969 18.3769L147.567 16.8091L147.221 15.1887C147.137 14.7878 147.067 14.4728 146.973 14.1234C146.878 13.7636 146.805 13.4139 146.668 13.1364C146.542 12.8589 146.389 12.6276 146.21 12.4426C146.032 12.2473 145.826 12.1137 145.595 12.0418V11.7951Z"/>
</mask>
<path d="M36.1572 9.62305H36.3941V14.3407C36.5941 13.9707 36.8573 13.6315 37.1836 13.3232C37.5099 13.0148 37.8836 12.7528 38.3047 12.5369C38.7258 12.3108 39.1889 12.1361 39.6942 12.0127C40.21 11.8894 40.7522 11.8277 41.3206 11.8277C42.1838 11.8277 42.9207 11.9305 43.5312 12.1361C44.1523 12.3313 44.6576 12.578 45.0471 12.8761C45.4366 13.1639 45.7208 13.4722 45.8997 13.8011C46.0787 14.1197 46.1682 14.3973 46.1682 14.6337V21.4018H45.9471V14.6337C45.9471 14.4384 45.8576 14.1968 45.6787 13.909C45.5103 13.611 45.2366 13.3232 44.8576 13.0457C44.4892 12.7682 44.0102 12.5318 43.4207 12.3365C42.8417 12.1412 42.1417 12.0436 41.3206 12.0436C40.7311 12.0436 40.2048 12.1052 39.7416 12.2286C39.2784 12.3519 38.8679 12.5061 38.51 12.6911C38.152 12.8761 37.8468 13.0817 37.5941 13.3078C37.3415 13.5339 37.131 13.7549 36.9625 13.9707C36.8151 14.1763 36.6836 14.3767 36.5678 14.572C36.452 14.7673 36.3941 14.9985 36.3941 15.2658V21.4018H36.1572V9.62305Z" fill="#F4F5F9"/>
<path d="M50.0769 13.354V21.4018H49.8401V13.354H50.0769ZM49.4137 10.5018L49.4295 10.4864C49.4506 10.4659 49.4874 10.4299 49.54 10.3785C49.5927 10.3168 49.6453 10.2552 49.6979 10.1935C49.7295 10.1524 49.7611 10.1164 49.7927 10.0856C49.8348 10.0445 49.8769 10.0033 49.919 9.96223L50.4559 10.5018L49.919 11.0414L49.4137 10.5018Z" fill="#F4F5F9"/>
<path d="M54.3861 19.7059C54.1124 19.2126 53.9651 18.8415 53.9056 18.2317H54.1584C54.2179 18.6818 54.3071 19.0019 54.5913 19.5672C54.8755 20.1325 55.3177 20.5487 55.9177 20.816C56.1703 20.9496 56.5651 21.0575 57.102 21.1397C57.6493 21.222 58.2441 21.2631 58.8862 21.2631C59.2757 21.2631 59.6652 21.2477 60.0547 21.2168C60.4547 21.1757 60.8284 21.114 61.1758 21.0318C61.5337 20.9496 61.8601 20.8468 62.1548 20.7235C62.4495 20.5899 62.6864 20.4305 62.8654 20.2455C63.0969 20.0091 63.2548 19.7573 63.3391 19.4901C63.4338 19.2229 63.4812 18.9865 63.4812 18.7809C63.4812 18.6678 63.4549 18.5034 63.4022 18.2875C63.3601 18.0717 63.2022 17.8456 62.9285 17.6092C62.6443 17.3625 62.239 17.2186 61.7127 17.1775C61.4284 17.1569 61.1705 17.1364 60.939 17.1158C60.7179 17.0953 60.5179 17.0747 60.3389 17.0542L59.4705 16.9771C59.2389 16.9565 59.0389 16.9411 58.8704 16.9308C58.7125 16.9206 58.5336 16.9103 58.3336 16.9C58.1336 16.8794 57.8862 16.8537 57.5914 16.8229C57.2967 16.7921 56.9019 16.7458 56.4072 16.6842C56.0282 16.643 55.6966 16.5505 55.4124 16.4066C55.1387 16.2627 54.9124 16.0932 54.7334 15.8979C54.5545 15.6923 54.4229 15.4713 54.3387 15.2349C54.2545 14.9883 54.2124 14.7467 54.2124 14.5103C54.2124 14.4589 54.2176 14.3305 54.2281 14.1249C54.2387 13.909 54.365 13.6315 54.6071 13.2924C54.8176 12.9943 55.0808 12.7476 55.3966 12.5523C55.7124 12.3468 56.0545 12.1875 56.423 12.0744C56.8019 11.9511 57.1862 11.8637 57.5757 11.8123C57.9651 11.7609 58.3336 11.7352 58.681 11.7352C58.9968 11.7352 59.3336 11.7558 59.6915 11.7969C60.06 11.838 60.4442 11.9099 60.8442 12.0127C60.8547 12.0127 60.8653 12.0179 60.8758 12.0281C60.8863 12.0281 60.8969 12.0281 60.9074 12.0281C61.8232 12.3057 62.5074 12.7682 62.9601 13.4157C63.1338 13.6642 63.5601 14.2594 63.7455 15.2465H63.5224C63.2994 14.5642 63.318 14.5668 63.0548 14.0632C62.7917 13.5596 62.4495 13.1536 62.0285 12.8453C61.6074 12.5266 61.1126 12.3005 60.5442 12.1669C59.9758 12.023 59.3442 11.9511 58.6494 11.9511C58.0178 11.9511 57.4441 12.0127 56.9283 12.1361C56.423 12.2594 56.0177 12.4136 55.7124 12.5986C55.365 12.8041 55.065 13.0868 54.8124 13.4465C54.5703 13.8063 54.4492 14.1814 54.4492 14.572C54.4492 15.0448 54.6282 15.4611 54.9861 15.8208C55.3545 16.1805 55.8387 16.3964 56.4388 16.4683C56.9441 16.5197 57.3388 16.5608 57.623 16.5916C57.9178 16.6225 58.1599 16.6482 58.3494 16.6687C58.5389 16.679 58.7073 16.6944 58.8547 16.715C59.0126 16.7253 59.202 16.7407 59.4231 16.7612C59.6547 16.7715 59.9442 16.7921 60.2916 16.8229C60.6495 16.8537 61.1284 16.8949 61.7285 16.9462C62.0022 16.9771 62.2601 17.0336 62.5022 17.1158C62.7443 17.1981 62.9548 17.3163 63.1338 17.4704C63.3127 17.6143 63.4549 17.7891 63.5601 17.9946C63.6654 18.2002 63.718 18.4417 63.718 18.7192C63.718 19.2743 63.5706 19.7316 63.2759 20.0914C62.9917 20.4408 62.618 20.7183 62.1548 20.9239C61.7021 21.1295 61.1863 21.2734 60.6074 21.3556C60.0389 21.4378 59.4705 21.4789 58.902 21.4789C58.3652 21.4789 57.8651 21.4584 57.402 21.4173C56.9493 21.3761 56.5335 21.2939 56.1545 21.1706C55.7756 21.037 55.4387 20.8571 55.144 20.631C54.8492 20.3946 54.5966 20.0862 54.3861 19.7059Z" fill="#F4F5F9"/>
<path d="M66.8518 9.62305H67.0886V14.3407C67.2886 13.9707 67.5518 13.6315 67.8781 13.3232C68.2045 13.0148 68.5782 12.7528 68.9992 12.5369C69.4203 12.3108 69.8835 12.1361 70.3888 12.0127C70.9046 11.8894 71.4467 11.8277 72.0152 11.8277C72.8784 11.8277 73.6152 11.9305 74.2258 12.1361C74.8469 12.3313 75.3521 12.578 75.7416 12.8761C76.1311 13.1639 76.4153 13.4722 76.5943 13.8011C76.7733 14.1197 76.8627 14.3973 76.8627 14.6337V21.4018H76.6417V14.6337C76.6417 14.4384 76.5522 14.1968 76.3732 13.909C76.2048 13.611 75.9311 13.3232 75.5521 13.0457C75.1837 12.7682 74.7048 12.5318 74.1152 12.3365C73.5363 12.1412 72.8362 12.0436 72.0152 12.0436C71.4257 12.0436 70.8993 12.1052 70.4361 12.2286C69.973 12.3519 69.5624 12.5061 69.2045 12.6911C68.8466 12.8761 68.5413 13.0817 68.2887 13.3078C68.036 13.5339 67.8255 13.7549 67.6571 13.9707C67.5097 14.1763 67.3781 14.3767 67.2623 14.572C67.1465 14.7673 67.0886 14.9985 67.0886 15.2658V21.4018H66.8518V9.62305Z" fill="#F4F5F9"/>
<path d="M83.2953 16.3758C83.0216 16.3964 82.7216 16.4375 82.3952 16.4991C82.0794 16.5608 81.7742 16.6533 81.4794 16.7767C81.1847 16.9 80.9162 17.0644 80.6741 17.27C80.4425 17.4653 80.2794 17.7068 80.1846 17.9946C80.0899 18.231 80.0478 18.488 80.0583 18.7655C80.0583 19.0944 80.1267 19.4079 80.2636 19.7059C80.4004 19.9937 80.6162 20.2301 80.911 20.4151C81.1636 20.6001 81.4531 20.744 81.7794 20.8468C82.1163 20.9496 82.4584 21.0267 82.8058 21.0781C83.1637 21.1295 83.5163 21.1603 83.8637 21.1706C84.2216 21.1809 84.5479 21.186 84.8427 21.186H89.185V15.1733C89.0692 15.3172 88.8902 15.4456 88.6481 15.5587C88.4165 15.6615 88.1534 15.754 87.8586 15.8362C87.5639 15.9184 87.2481 15.9904 86.9112 16.052C86.5744 16.1034 86.248 16.1497 85.9322 16.1908C85.6164 16.2216 85.3217 16.2473 85.048 16.2679C84.7743 16.2884 84.548 16.3039 84.369 16.3141C84.0427 16.3347 83.7795 16.3501 83.5795 16.3604C83.5269 16.3707 83.469 16.3758 83.4058 16.3758H83.2953ZM79.8214 18.7809C79.8214 18.3081 79.9214 17.9124 80.1215 17.5938C80.332 17.2751 80.6004 17.0182 80.9267 16.8229C81.2636 16.6173 81.6373 16.4632 82.0478 16.3604C82.4584 16.2576 82.8689 16.1908 83.2795 16.16C83.3742 16.1394 83.5848 16.124 83.9111 16.1137C84.1111 16.1034 84.3743 16.088 84.7006 16.0675C85.0374 16.0469 85.4006 16.0161 85.7901 15.975C86.1796 15.9236 86.5691 15.867 86.9586 15.8054C87.3586 15.7334 87.7169 15.6512 88.0433 15.5587C88.3696 15.4559 88.6429 15.3326 88.8534 15.1887C89.0639 15.0448 89.1745 14.8803 89.185 14.6953V11.9665H80.3899V14.5444H80.1688V11.766C80.1688 11.7575 80.1757 11.7506 80.1842 11.7506H89.393C89.4089 11.7506 89.4218 11.7635 89.4218 11.7795V21.4018H84.8427C84.5269 21.4018 84.1848 21.3967 83.8163 21.3864C83.4479 21.3659 83.0742 21.3299 82.6952 21.2785C82.3268 21.2168 81.9689 21.1295 81.6215 21.0164C81.2741 20.9033 80.9636 20.7492 80.6899 20.5539C80.4267 20.3586 80.2162 20.1171 80.0583 19.8293C79.9004 19.5415 79.8214 19.192 79.8214 18.7809Z" fill="#F4F5F9"/>
<path d="M92.5811 20.2301L92.5969 20.2147C92.6285 20.1839 92.6811 20.1273 92.7548 20.0451C92.839 19.9629 92.9232 19.8755 93.0074 19.783L93.3232 19.4438L94.0969 20.2301L93.3232 21.001L92.5811 20.2301Z" fill="#F4F5F9"/>
<path d="M98.8563 13.1585V10.841H99.0932V13.1585H103.514V13.3744H99.0932V19.6288C99.0932 19.8858 99.1458 20.1119 99.2511 20.3072C99.3669 20.5025 99.5143 20.6669 99.6932 20.8006C99.8827 20.9239 100.088 21.0215 100.309 21.0935C100.541 21.1552 100.777 21.186 101.02 21.186H105.03V21.4018H101.02C100.714 21.4018 100.43 21.3607 100.167 21.2785C99.9143 21.186 99.6879 21.0627 99.4879 20.9085C99.2879 20.7543 99.13 20.5693 99.0142 20.3535C98.909 20.1376 98.8563 19.8961 98.8563 19.6288V13.3744H97.9721V13.1585H98.8563Z" fill="#F4F5F9"/>
<path d="M107.118 16.6842C107.118 15.903 107.234 15.2041 107.466 14.5874C107.697 13.9707 108.029 13.4517 108.46 13.0303C108.902 12.6089 109.429 12.2902 110.039 12.0744C110.66 11.8483 111.35 11.7352 112.108 11.7352C112.866 11.7352 113.55 11.8534 114.161 12.0898C114.782 12.3262 115.308 12.6654 115.74 13.1073C116.171 13.539 116.503 14.0581 116.734 14.6645C116.966 15.2709 117.082 15.9441 117.082 16.6842C117.082 17.4756 116.966 18.1745 116.734 18.7809C116.503 19.3873 116.171 19.9012 115.74 20.3226C115.308 20.744 114.782 21.0627 114.161 21.2785C113.55 21.4943 112.866 21.6023 112.108 21.6023C111.35 21.6023 110.66 21.4841 110.039 21.2477C109.429 21.0113 108.902 20.6772 108.46 20.2455C108.029 19.8139 107.697 19.2999 107.466 18.7038C107.234 18.0974 107.118 17.4242 107.118 16.6842ZM108.587 13.2153C107.766 14.0478 107.355 15.2041 107.355 16.6842C107.355 17.3933 107.466 18.0357 107.687 18.6113C107.908 19.1869 108.223 19.6802 108.634 20.0914C109.055 20.5025 109.555 20.8211 110.134 21.0472C110.724 21.2734 111.381 21.3864 112.108 21.3864C112.866 21.3864 113.534 21.2785 114.113 21.0627C114.703 20.8468 115.197 20.5385 115.597 20.1376C116.008 19.7265 116.319 19.2331 116.529 18.6576C116.74 18.0717 116.845 17.4139 116.845 16.6842C116.845 15.975 116.734 15.3326 116.513 14.757C116.303 14.1711 115.992 13.6726 115.582 13.2615C115.171 12.8504 114.671 12.5318 114.082 12.3057C113.503 12.0795 112.845 11.9665 112.108 11.9665C110.581 11.9665 109.408 12.3827 108.587 13.2153Z" fill="#F4F5F9"/>
<path d="M120.283 18.3492C120.188 18.082 120.114 17.8148 120.062 17.5475C120.009 17.27 119.983 16.9925 119.983 16.715C119.983 16.6944 119.978 16.6379 119.967 16.5454C119.967 16.4529 119.978 16.3244 119.999 16.16C120.02 15.9955 120.056 15.8054 120.109 15.5895C120.172 15.3634 120.262 15.1065 120.378 14.8187C120.62 14.2431 120.957 13.7343 121.388 13.2924C121.83 12.8298 122.362 12.465 122.983 12.1977C123.604 11.9305 124.325 11.7969 125.146 11.7969C125.746 11.7969 126.299 11.8586 126.804 11.9819C127.309 12.0949 127.762 12.2491 128.162 12.4444C128.562 12.6294 128.904 12.8504 129.188 13.1073C129.473 13.354 129.688 13.611 129.836 13.8782V9.62305H130.057V21.4018H125.572C124.836 21.4018 124.172 21.3247 123.583 21.1706C123.004 21.0061 122.493 20.7851 122.051 20.5076C121.609 20.2301 121.241 19.9064 120.946 19.5363C120.662 19.1663 120.441 18.7706 120.283 18.3492ZM120.267 16.7458C120.267 17.3625 120.388 17.9432 120.63 18.488C120.883 19.0224 121.235 19.4901 121.688 19.8909C122.151 20.2918 122.709 20.6104 123.362 20.8468C124.015 21.0729 124.751 21.186 125.572 21.186H129.836V14.6337C129.815 14.4281 129.746 14.2174 129.631 14.0015C129.515 13.7754 129.336 13.5544 129.094 13.3386C128.704 12.9789 128.178 12.6705 127.515 12.4136C126.852 12.1566 126.062 12.0281 125.146 12.0281C124.441 12.0281 123.788 12.1566 123.188 12.4136C122.599 12.6705 122.083 13.0148 121.641 13.4465C121.209 13.8782 120.872 14.3818 120.63 14.9574C120.388 15.5227 120.267 16.1189 120.267 16.7458Z" fill="#F4F5F9"/>
<path d="M145.595 11.7951C145.753 11.8362 145.895 11.903 146.021 11.9955C146.158 12.0777 146.284 12.1754 146.4 12.2884C146.589 12.494 146.747 12.751 146.874 13.0593C147.011 13.3574 147.126 13.7636 147.221 14.1234C147.326 14.4728 147.375 14.7878 147.448 15.1887C147.533 15.5792 147.613 15.8773 147.686 16.2679C147.792 16.8537 147.942 17.4943 148.058 18.0391C148.174 18.5735 148.321 19.0566 148.5 19.4883H154.09L155.764 11.7797H156L155.944 12.0237L155.89 12.273C155.89 12.273 155.816 12.6071 155.764 12.8126C155.721 13.0182 155.674 13.2494 155.621 13.5064C155.548 13.8353 155.469 14.195 155.385 14.5856C155.3 14.9762 155.236 15.4451 155.141 15.8563C155.057 16.2571 154.998 16.5817 154.903 17.0031C154.819 17.4142 154.764 17.8132 154.68 18.1935C154.585 18.6458 154.477 19.1349 154.383 19.5872C154.288 20.0394 154.145 20.4885 154.011 20.9375C153.842 21.5028 153.611 21.9705 153.316 22.3405C153.032 22.7208 152.695 23.024 152.305 23.2501C151.926 23.4865 151.505 23.6561 151.042 23.7589C150.579 23.8719 150.09 23.9387 149.574 23.9593H149.163C148.69 23.9593 148.205 23.9285 147.711 23.8668C147.226 23.8051 146.684 23.7229 146.084 23.6201L146.116 23.3889C146.716 23.4916 147.258 23.5739 147.742 23.6355C148.226 23.6972 148.7 23.728 149.163 23.728H149.558C150.074 23.7075 150.558 23.6407 151.011 23.5276C151.463 23.4248 151.869 23.2604 152.227 23.0343C152.584 22.8184 152.895 22.5306 153.158 22.1709C153.421 21.8214 153.627 21.3898 153.774 20.8758L154.027 19.7041H148.342L147.969 18.3769L147.567 16.8091L147.221 15.1887C147.137 14.7878 147.067 14.4728 146.973 14.1234C146.878 13.7636 146.805 13.4139 146.668 13.1364C146.542 12.8589 146.389 12.6276 146.21 12.4426C146.032 12.2473 145.826 12.1137 145.595 12.0418V11.7951Z" fill="#F4F5F9"/>
<path d="M36.1572 9.62305H36.3941V14.3407C36.5941 13.9707 36.8573 13.6315 37.1836 13.3232C37.5099 13.0148 37.8836 12.7528 38.3047 12.5369C38.7258 12.3108 39.1889 12.1361 39.6942 12.0127C40.21 11.8894 40.7522 11.8277 41.3206 11.8277C42.1838 11.8277 42.9207 11.9305 43.5312 12.1361C44.1523 12.3313 44.6576 12.578 45.0471 12.8761C45.4366 13.1639 45.7208 13.4722 45.8997 13.8011C46.0787 14.1197 46.1682 14.3973 46.1682 14.6337V21.4018H45.9471V14.6337C45.9471 14.4384 45.8576 14.1968 45.6787 13.909C45.5103 13.611 45.2366 13.3232 44.8576 13.0457C44.4892 12.7682 44.0102 12.5318 43.4207 12.3365C42.8417 12.1412 42.1417 12.0436 41.3206 12.0436C40.7311 12.0436 40.2048 12.1052 39.7416 12.2286C39.2784 12.3519 38.8679 12.5061 38.51 12.6911C38.152 12.8761 37.8468 13.0817 37.5941 13.3078C37.3415 13.5339 37.131 13.7549 36.9625 13.9707C36.8151 14.1763 36.6836 14.3767 36.5678 14.572C36.452 14.7673 36.3941 14.9985 36.3941 15.2658V21.4018H36.1572V9.62305Z" stroke="#F4F5F9" stroke-width="1.73185" mask="url(#path-1-outside-1_2095_21366)"/>
<path d="M50.0769 13.354V21.4018H49.8401V13.354H50.0769ZM49.4137 10.5018L49.4295 10.4864C49.4506 10.4659 49.4874 10.4299 49.54 10.3785C49.5927 10.3168 49.6453 10.2552 49.6979 10.1935C49.7295 10.1524 49.7611 10.1164 49.7927 10.0856C49.8348 10.0445 49.8769 10.0033 49.919 9.96223L50.4559 10.5018L49.919 11.0414L49.4137 10.5018Z" stroke="#F4F5F9" stroke-width="1.73185" mask="url(#path-1-outside-1_2095_21366)"/>
<path d="M54.3861 19.7059C54.1124 19.2126 53.9651 18.8415 53.9056 18.2317H54.1584C54.2179 18.6818 54.3071 19.0019 54.5913 19.5672C54.8755 20.1325 55.3177 20.5487 55.9177 20.816C56.1703 20.9496 56.5651 21.0575 57.102 21.1397C57.6493 21.222 58.2441 21.2631 58.8862 21.2631C59.2757 21.2631 59.6652 21.2477 60.0547 21.2168C60.4547 21.1757 60.8284 21.114 61.1758 21.0318C61.5337 20.9496 61.8601 20.8468 62.1548 20.7235C62.4495 20.5899 62.6864 20.4305 62.8654 20.2455C63.0969 20.0091 63.2548 19.7573 63.3391 19.4901C63.4338 19.2229 63.4812 18.9865 63.4812 18.7809C63.4812 18.6678 63.4549 18.5034 63.4022 18.2875C63.3601 18.0717 63.2022 17.8456 62.9285 17.6092C62.6443 17.3625 62.239 17.2186 61.7127 17.1775C61.4284 17.1569 61.1705 17.1364 60.939 17.1158C60.7179 17.0953 60.5179 17.0747 60.3389 17.0542L59.4705 16.9771C59.2389 16.9565 59.0389 16.9411 58.8704 16.9308C58.7125 16.9206 58.5336 16.9103 58.3336 16.9C58.1336 16.8794 57.8862 16.8537 57.5914 16.8229C57.2967 16.7921 56.9019 16.7458 56.4072 16.6842C56.0282 16.643 55.6966 16.5505 55.4124 16.4066C55.1387 16.2627 54.9124 16.0932 54.7334 15.8979C54.5545 15.6923 54.4229 15.4713 54.3387 15.2349C54.2545 14.9883 54.2124 14.7467 54.2124 14.5103C54.2124 14.4589 54.2176 14.3305 54.2281 14.1249C54.2387 13.909 54.365 13.6315 54.6071 13.2924C54.8176 12.9943 55.0808 12.7476 55.3966 12.5523C55.7124 12.3468 56.0545 12.1875 56.423 12.0744C56.8019 11.9511 57.1862 11.8637 57.5757 11.8123C57.9651 11.7609 58.3336 11.7352 58.681 11.7352C58.9968 11.7352 59.3336 11.7558 59.6915 11.7969C60.06 11.838 60.4442 11.9099 60.8442 12.0127C60.8547 12.0127 60.8653 12.0179 60.8758 12.0281C60.8863 12.0281 60.8969 12.0281 60.9074 12.0281C61.8232 12.3057 62.5074 12.7682 62.9601 13.4157C63.1338 13.6642 63.5601 14.2594 63.7455 15.2465H63.5224C63.2994 14.5642 63.318 14.5668 63.0548 14.0632C62.7917 13.5596 62.4495 13.1536 62.0285 12.8453C61.6074 12.5266 61.1126 12.3005 60.5442 12.1669C59.9758 12.023 59.3442 11.9511 58.6494 11.9511C58.0178 11.9511 57.4441 12.0127 56.9283 12.1361C56.423 12.2594 56.0177 12.4136 55.7124 12.5986C55.365 12.8041 55.065 13.0868 54.8124 13.4465C54.5703 13.8063 54.4492 14.1814 54.4492 14.572C54.4492 15.0448 54.6282 15.4611 54.9861 15.8208C55.3545 16.1805 55.8387 16.3964 56.4388 16.4683C56.9441 16.5197 57.3388 16.5608 57.623 16.5916C57.9178 16.6225 58.1599 16.6482 58.3494 16.6687C58.5389 16.679 58.7073 16.6944 58.8547 16.715C59.0126 16.7253 59.202 16.7407 59.4231 16.7612C59.6547 16.7715 59.9442 16.7921 60.2916 16.8229C60.6495 16.8537 61.1284 16.8949 61.7285 16.9462C62.0022 16.9771 62.2601 17.0336 62.5022 17.1158C62.7443 17.1981 62.9548 17.3163 63.1338 17.4704C63.3127 17.6143 63.4549 17.7891 63.5601 17.9946C63.6654 18.2002 63.718 18.4417 63.718 18.7192C63.718 19.2743 63.5706 19.7316 63.2759 20.0914C62.9917 20.4408 62.618 20.7183 62.1548 20.9239C61.7021 21.1295 61.1863 21.2734 60.6074 21.3556C60.0389 21.4378 59.4705 21.4789 58.902 21.4789C58.3652 21.4789 57.8651 21.4584 57.402 21.4173C56.9493 21.3761 56.5335 21.2939 56.1545 21.1706C55.7756 21.037 55.4387 20.8571 55.144 20.631C54.8492 20.3946 54.5966 20.0862 54.3861 19.7059Z" stroke="#F4F5F9" stroke-width="1.73185" mask="url(#path-1-outside-1_2095_21366)"/>
<path d="M66.8518 9.62305H67.0886V14.3407C67.2886 13.9707 67.5518 13.6315 67.8781 13.3232C68.2045 13.0148 68.5782 12.7528 68.9992 12.5369C69.4203 12.3108 69.8835 12.1361 70.3888 12.0127C70.9046 11.8894 71.4467 11.8277 72.0152 11.8277C72.8784 11.8277 73.6152 11.9305 74.2258 12.1361C74.8469 12.3313 75.3521 12.578 75.7416 12.8761C76.1311 13.1639 76.4153 13.4722 76.5943 13.8011C76.7733 14.1197 76.8627 14.3973 76.8627 14.6337V21.4018H76.6417V14.6337C76.6417 14.4384 76.5522 14.1968 76.3732 13.909C76.2048 13.611 75.9311 13.3232 75.5521 13.0457C75.1837 12.7682 74.7048 12.5318 74.1152 12.3365C73.5363 12.1412 72.8362 12.0436 72.0152 12.0436C71.4257 12.0436 70.8993 12.1052 70.4361 12.2286C69.973 12.3519 69.5624 12.5061 69.2045 12.6911C68.8466 12.8761 68.5413 13.0817 68.2887 13.3078C68.036 13.5339 67.8255 13.7549 67.6571 13.9707C67.5097 14.1763 67.3781 14.3767 67.2623 14.572C67.1465 14.7673 67.0886 14.9985 67.0886 15.2658V21.4018H66.8518V9.62305Z" stroke="#F4F5F9" stroke-width="1.73185" mask="url(#path-1-outside-1_2095_21366)"/>
<path d="M83.2953 16.3758C83.0216 16.3964 82.7216 16.4375 82.3952 16.4991C82.0794 16.5608 81.7742 16.6533 81.4794 16.7767C81.1847 16.9 80.9162 17.0644 80.6741 17.27C80.4425 17.4653 80.2794 17.7068 80.1846 17.9946C80.0899 18.231 80.0478 18.488 80.0583 18.7655C80.0583 19.0944 80.1267 19.4079 80.2636 19.7059C80.4004 19.9937 80.6162 20.2301 80.911 20.4151C81.1636 20.6001 81.4531 20.744 81.7794 20.8468C82.1163 20.9496 82.4584 21.0267 82.8058 21.0781C83.1637 21.1295 83.5163 21.1603 83.8637 21.1706C84.2216 21.1809 84.5479 21.186 84.8427 21.186H89.185V15.1733C89.0692 15.3172 88.8902 15.4456 88.6481 15.5587C88.4165 15.6615 88.1534 15.754 87.8586 15.8362C87.5639 15.9184 87.2481 15.9904 86.9112 16.052C86.5744 16.1034 86.248 16.1497 85.9322 16.1908C85.6164 16.2216 85.3217 16.2473 85.048 16.2679C84.7743 16.2884 84.548 16.3039 84.369 16.3141C84.0427 16.3347 83.7795 16.3501 83.5795 16.3604C83.5269 16.3707 83.469 16.3758 83.4058 16.3758H83.2953ZM79.8214 18.7809C79.8214 18.3081 79.9214 17.9124 80.1215 17.5938C80.332 17.2751 80.6004 17.0182 80.9267 16.8229C81.2636 16.6173 81.6373 16.4632 82.0478 16.3604C82.4584 16.2576 82.8689 16.1908 83.2795 16.16C83.3742 16.1394 83.5848 16.124 83.9111 16.1137C84.1111 16.1034 84.3743 16.088 84.7006 16.0675C85.0374 16.0469 85.4006 16.0161 85.7901 15.975C86.1796 15.9236 86.5691 15.867 86.9586 15.8054C87.3586 15.7334 87.7169 15.6512 88.0433 15.5587C88.3696 15.4559 88.6429 15.3326 88.8534 15.1887C89.0639 15.0448 89.1745 14.8803 89.185 14.6953V11.9665H80.3899V14.5444H80.1688V11.766C80.1688 11.7575 80.1757 11.7506 80.1842 11.7506H89.393C89.4089 11.7506 89.4218 11.7635 89.4218 11.7795V21.4018H84.8427C84.5269 21.4018 84.1848 21.3967 83.8163 21.3864C83.4479 21.3659 83.0742 21.3299 82.6952 21.2785C82.3268 21.2168 81.9689 21.1295 81.6215 21.0164C81.2741 20.9033 80.9636 20.7492 80.6899 20.5539C80.4267 20.3586 80.2162 20.1171 80.0583 19.8293C79.9004 19.5415 79.8214 19.192 79.8214 18.7809Z" stroke="#F4F5F9" stroke-width="1.73185" mask="url(#path-1-outside-1_2095_21366)"/>
<path d="M92.5811 20.2301L92.5969 20.2147C92.6285 20.1839 92.6811 20.1273 92.7548 20.0451C92.839 19.9629 92.9232 19.8755 93.0074 19.783L93.3232 19.4438L94.0969 20.2301L93.3232 21.001L92.5811 20.2301Z" stroke="#F4F5F9" stroke-width="1.73185" mask="url(#path-1-outside-1_2095_21366)"/>
<path d="M98.8563 13.1585V10.841H99.0932V13.1585H103.514V13.3744H99.0932V19.6288C99.0932 19.8858 99.1458 20.1119 99.2511 20.3072C99.3669 20.5025 99.5143 20.6669 99.6932 20.8006C99.8827 20.9239 100.088 21.0215 100.309 21.0935C100.541 21.1552 100.777 21.186 101.02 21.186H105.03V21.4018H101.02C100.714 21.4018 100.43 21.3607 100.167 21.2785C99.9143 21.186 99.6879 21.0627 99.4879 20.9085C99.2879 20.7543 99.13 20.5693 99.0142 20.3535C98.909 20.1376 98.8563 19.8961 98.8563 19.6288V13.3744H97.9721V13.1585H98.8563Z" stroke="#F4F5F9" stroke-width="1.73185" mask="url(#path-1-outside-1_2095_21366)"/>
<path d="M107.118 16.6842C107.118 15.903 107.234 15.2041 107.466 14.5874C107.697 13.9707 108.029 13.4517 108.46 13.0303C108.902 12.6089 109.429 12.2902 110.039 12.0744C110.66 11.8483 111.35 11.7352 112.108 11.7352C112.866 11.7352 113.55 11.8534 114.161 12.0898C114.782 12.3262 115.308 12.6654 115.74 13.1073C116.171 13.539 116.503 14.0581 116.734 14.6645C116.966 15.2709 117.082 15.9441 117.082 16.6842C117.082 17.4756 116.966 18.1745 116.734 18.7809C116.503 19.3873 116.171 19.9012 115.74 20.3226C115.308 20.744 114.782 21.0627 114.161 21.2785C113.55 21.4943 112.866 21.6023 112.108 21.6023C111.35 21.6023 110.66 21.4841 110.039 21.2477C109.429 21.0113 108.902 20.6772 108.46 20.2455C108.029 19.8139 107.697 19.2999 107.466 18.7038C107.234 18.0974 107.118 17.4242 107.118 16.6842ZM108.587 13.2153C107.766 14.0478 107.355 15.2041 107.355 16.6842C107.355 17.3933 107.466 18.0357 107.687 18.6113C107.908 19.1869 108.223 19.6802 108.634 20.0914C109.055 20.5025 109.555 20.8211 110.134 21.0472C110.724 21.2734 111.381 21.3864 112.108 21.3864C112.866 21.3864 113.534 21.2785 114.113 21.0627C114.703 20.8468 115.197 20.5385 115.597 20.1376C116.008 19.7265 116.319 19.2331 116.529 18.6576C116.74 18.0717 116.845 17.4139 116.845 16.6842C116.845 15.975 116.734 15.3326 116.513 14.757C116.303 14.1711 115.992 13.6726 115.582 13.2615C115.171 12.8504 114.671 12.5318 114.082 12.3057C113.503 12.0795 112.845 11.9665 112.108 11.9665C110.581 11.9665 109.408 12.3827 108.587 13.2153Z" stroke="#F4F5F9" stroke-width="1.73185" mask="url(#path-1-outside-1_2095_21366)"/>
<path d="M120.283 18.3492C120.188 18.082 120.114 17.8148 120.062 17.5475C120.009 17.27 119.983 16.9925 119.983 16.715C119.983 16.6944 119.978 16.6379 119.967 16.5454C119.967 16.4529 119.978 16.3244 119.999 16.16C120.02 15.9955 120.056 15.8054 120.109 15.5895C120.172 15.3634 120.262 15.1065 120.378 14.8187C120.62 14.2431 120.957 13.7343 121.388 13.2924C121.83 12.8298 122.362 12.465 122.983 12.1977C123.604 11.9305 124.325 11.7969 125.146 11.7969C125.746 11.7969 126.299 11.8586 126.804 11.9819C127.309 12.0949 127.762 12.2491 128.162 12.4444C128.562 12.6294 128.904 12.8504 129.188 13.1073C129.473 13.354 129.688 13.611 129.836 13.8782V9.62305H130.057V21.4018H125.572C124.836 21.4018 124.172 21.3247 123.583 21.1706C123.004 21.0061 122.493 20.7851 122.051 20.5076C121.609 20.2301 121.241 19.9064 120.946 19.5363C120.662 19.1663 120.441 18.7706 120.283 18.3492ZM120.267 16.7458C120.267 17.3625 120.388 17.9432 120.63 18.488C120.883 19.0224 121.235 19.4901 121.688 19.8909C122.151 20.2918 122.709 20.6104 123.362 20.8468C124.015 21.0729 124.751 21.186 125.572 21.186H129.836V14.6337C129.815 14.4281 129.746 14.2174 129.631 14.0015C129.515 13.7754 129.336 13.5544 129.094 13.3386C128.704 12.9789 128.178 12.6705 127.515 12.4136C126.852 12.1566 126.062 12.0281 125.146 12.0281C124.441 12.0281 123.788 12.1566 123.188 12.4136C122.599 12.6705 122.083 13.0148 121.641 13.4465C121.209 13.8782 120.872 14.3818 120.63 14.9574C120.388 15.5227 120.267 16.1189 120.267 16.7458Z" stroke="#F4F5F9" stroke-width="1.73185" mask="url(#path-1-outside-1_2095_21366)"/>
<path d="M145.595 11.7951C145.753 11.8362 145.895 11.903 146.021 11.9955C146.158 12.0777 146.284 12.1754 146.4 12.2884C146.589 12.494 146.747 12.751 146.874 13.0593C147.011 13.3574 147.126 13.7636 147.221 14.1234C147.326 14.4728 147.375 14.7878 147.448 15.1887C147.533 15.5792 147.613 15.8773 147.686 16.2679C147.792 16.8537 147.942 17.4943 148.058 18.0391C148.174 18.5735 148.321 19.0566 148.5 19.4883H154.09L155.764 11.7797H156L155.944 12.0237L155.89 12.273C155.89 12.273 155.816 12.6071 155.764 12.8126C155.721 13.0182 155.674 13.2494 155.621 13.5064C155.548 13.8353 155.469 14.195 155.385 14.5856C155.3 14.9762 155.236 15.4451 155.141 15.8563C155.057 16.2571 154.998 16.5817 154.903 17.0031C154.819 17.4142 154.764 17.8132 154.68 18.1935C154.585 18.6458 154.477 19.1349 154.383 19.5872C154.288 20.0394 154.145 20.4885 154.011 20.9375C153.842 21.5028 153.611 21.9705 153.316 22.3405C153.032 22.7208 152.695 23.024 152.305 23.2501C151.926 23.4865 151.505 23.6561 151.042 23.7589C150.579 23.8719 150.09 23.9387 149.574 23.9593H149.163C148.69 23.9593 148.205 23.9285 147.711 23.8668C147.226 23.8051 146.684 23.7229 146.084 23.6201L146.116 23.3889C146.716 23.4916 147.258 23.5739 147.742 23.6355C148.226 23.6972 148.7 23.728 149.163 23.728H149.558C150.074 23.7075 150.558 23.6407 151.011 23.5276C151.463 23.4248 151.869 23.2604 152.227 23.0343C152.584 22.8184 152.895 22.5306 153.158 22.1709C153.421 21.8214 153.627 21.3898 153.774 20.8758L154.027 19.7041H148.342L147.969 18.3769L147.567 16.8091L147.221 15.1887C147.137 14.7878 147.067 14.4728 146.973 14.1234C146.878 13.7636 146.805 13.4139 146.668 13.1364C146.542 12.8589 146.389 12.6276 146.21 12.4426C146.032 12.2473 145.826 12.1137 145.595 12.0418V11.7951Z" stroke="#F4F5F9" stroke-width="1.73185" mask="url(#path-1-outside-1_2095_21366)"/>
<path d="M136.412 16.4553C136.138 16.4758 135.838 16.5169 135.512 16.5786C135.196 16.6403 134.891 16.7328 134.596 16.8561C134.301 16.9794 134.033 17.1439 133.791 17.3495C133.559 17.5447 133.396 17.7863 133.301 18.0741C133.206 18.3105 133.164 18.5674 133.175 18.8449C133.175 19.1738 133.243 19.4873 133.38 19.7854C133.517 20.0732 133.733 20.3096 134.028 20.4946C134.28 20.6796 134.57 20.8235 134.896 20.9263C135.233 21.029 135.575 21.1061 135.922 21.1575C136.28 21.2089 136.633 21.2397 136.98 21.25C137.338 21.2603 137.664 21.2654 137.959 21.2654H142.302V15.2527C142.186 15.3966 142.007 15.5251 141.765 15.6381C141.533 15.7409 141.27 15.8334 140.975 15.9157C140.68 15.9979 140.365 16.0698 140.028 16.1315C139.691 16.1829 139.365 16.2291 139.049 16.2702C138.733 16.3011 138.438 16.3268 138.165 16.3473C137.891 16.3679 137.665 16.3833 137.486 16.3936C137.159 16.4141 136.896 16.4296 136.696 16.4398C136.643 16.4501 136.586 16.4553 136.522 16.4553H136.412ZM132.938 18.8604C132.938 18.3876 133.038 17.9918 133.238 17.6732C133.449 17.3546 133.717 17.0976 134.043 16.9024C134.38 16.6968 134.754 16.5426 135.164 16.4398C135.575 16.3371 135.985 16.2703 136.396 16.2394C136.491 16.2189 136.701 16.2034 137.028 16.1932C137.228 16.1829 137.491 16.1675 137.817 16.1469C138.154 16.1264 138.517 16.0955 138.907 16.0544C139.296 16.003 139.686 15.9465 140.075 15.8848C140.475 15.8129 140.838 15.7306 141.165 15.6381C141.491 15.5354 141.759 15.412 141.97 15.2681C142.18 15.1242 142.291 14.9598 142.302 14.7748V12.0459H133.506V14.6238H133.285V11.8455C133.285 11.837 133.292 11.8301 133.301 11.8301H142.51C142.525 11.8301 142.538 11.843 142.538 11.8589V21.4813H137.959C137.643 21.4813 137.301 21.4761 136.933 21.4659C136.564 21.4453 136.191 21.4093 135.812 21.3579C135.443 21.2963 135.085 21.2089 134.738 21.0959C134.391 20.9828 134.08 20.8286 133.806 20.6333C133.543 20.438 133.333 20.1965 133.175 19.9087C133.017 19.6209 132.938 19.2715 132.938 18.8604Z" fill="#F4F5F9"/>
<path d="M137.507 16.7533C137.508 16.7533 137.508 16.7533 137.508 16.7533L137.494 16.5279C137.6 16.5215 137.715 16.5144 137.84 16.5066C137.84 16.5066 137.84 16.5066 137.84 16.5066L137.831 16.3714L141.941 15.9534M137.507 16.7533C137.507 16.7534 137.507 16.7534 137.506 16.7534L137.493 16.5279C137.32 16.5383 137.171 16.5467 137.046 16.5531L137.039 16.5535L137.039 16.5534C136.91 16.5574 136.805 16.5622 136.721 16.5673L136.765 16.7936C136.756 16.7953 136.747 16.797 136.738 16.7986M137.507 16.7533C137.689 16.7429 137.917 16.7273 138.192 16.7067C138.468 16.6859 138.766 16.66 139.084 16.6289L139.084 16.6291L139.095 16.6276C139.414 16.5862 139.743 16.5395 140.082 16.4878L140.082 16.4879L140.093 16.486C140.439 16.4226 140.766 16.3483 141.072 16.2628C141.38 16.1768 141.66 16.0787 141.911 15.9676L141.911 15.9676L141.917 15.9647C141.925 15.9609 141.933 15.9572 141.941 15.9534M137.507 16.7533C137.193 16.7731 136.936 16.7882 136.738 16.7986M136.738 16.7986C136.73 16.799 136.722 16.7994 136.715 16.7998L136.703 16.5684C136.622 16.5735 136.563 16.5787 136.522 16.5838C136.5 16.5865 136.484 16.5891 136.472 16.5916L136.448 16.5969L136.423 16.5988C136.423 16.5988 136.423 16.5988 136.423 16.5988L136.439 16.8146C136.434 16.815 136.43 16.8153 136.426 16.8157M136.738 16.7986C136.667 16.8104 136.595 16.8157 136.522 16.8157H136.426M136.426 16.8157H136.412V16.5997C136.122 16.6219 135.831 16.6632 135.54 16.7235L135.581 16.9323C135.581 16.9324 135.58 16.9324 135.58 16.9325M136.426 16.8157C136.171 16.8353 135.89 16.874 135.58 16.9325M135.58 16.9325C135.579 16.9326 135.579 16.9327 135.579 16.9327L135.539 16.7237C135.443 16.7435 135.348 16.7655 135.252 16.7894C135.04 16.8424 134.841 16.9099 134.653 16.9916C134.505 17.0557 134.365 17.1285 134.231 17.21L134.228 17.2116L134.228 17.2116C134.105 17.2855 133.991 17.3694 133.888 17.4636C133.887 17.4637 133.887 17.4638 133.887 17.4639C133.757 17.5823 133.642 17.7169 133.541 17.8683C133.495 17.9429 133.454 18.0243 133.42 18.1133C133.419 18.1157 133.418 18.1182 133.417 18.1207C133.342 18.3209 133.3 18.5587 133.298 18.8402C133.298 18.8418 133.298 18.8434 133.298 18.8449C133.298 18.8501 133.298 18.8552 133.298 18.8604C133.298 19.2248 133.368 19.5107 133.49 19.7333L133.706 19.6306C133.706 19.6313 133.706 19.632 133.707 19.6328M135.58 16.9325C135.288 16.9895 135.007 17.0749 134.735 17.1886C134.474 17.2977 134.238 17.4427 134.024 17.6242L134.023 17.625C133.842 17.7772 133.717 17.9624 133.643 18.1868L133.64 18.1976L133.636 18.2081C133.561 18.3935 133.526 18.5996 133.535 18.8313L133.535 18.8449H133.535C133.535 19.1212 133.592 19.3827 133.707 19.6328M133.707 19.6328C133.707 19.6335 133.707 19.6343 133.708 19.635L133.49 19.7347C133.491 19.7349 133.491 19.7352 133.491 19.7354C133.623 19.9767 133.798 20.178 134.019 20.3419C134.043 20.359 134.067 20.3758 134.092 20.3923C134.094 20.3938 134.097 20.3954 134.099 20.397C134.32 20.543 134.57 20.6621 134.85 20.7531C134.88 20.7629 134.91 20.7725 134.94 20.7819L135.001 20.5816C135.002 20.5817 135.002 20.5819 135.003 20.5821M133.707 19.6328C133.811 19.8521 133.978 20.0378 134.219 20.1893L134.23 20.1962L134.24 20.2038C134.458 20.3632 134.711 20.49 135.003 20.5821M135.003 20.5821C135.003 20.5822 135.004 20.5824 135.004 20.5825L134.941 20.7823C135.241 20.8752 135.549 20.9483 135.866 21.0016C135.892 21.0051 135.917 21.0085 135.943 21.0118L135.974 20.8008C135.974 20.8008 135.974 20.8009 135.974 20.8009M135.003 20.5821C135.322 20.6793 135.646 20.7522 135.974 20.8009M135.974 20.8009C135.975 20.8009 135.975 20.801 135.975 20.801L135.944 21.0119C136.283 21.056 136.618 21.0872 136.948 21.1058C136.96 21.1061 136.972 21.1064 136.984 21.1067L136.991 20.8898M135.974 20.8009C136.319 20.8504 136.658 20.8799 136.991 20.8898M136.991 20.8898C136.991 20.8898 136.991 20.8898 136.991 20.8898L136.984 21.1067C137.334 21.1162 137.659 21.1209 137.959 21.1209H141.941V20.905M136.991 20.8898C137.346 20.9 137.669 20.905 137.959 20.905H141.941M141.941 20.905H142.178V15.8248C142.104 15.8709 142.024 15.9136 141.941 15.9534M141.941 20.905V15.9534M137.013 15.8331C136.717 15.8424 136.485 15.8564 136.347 15.8817C135.923 15.9148 135.499 15.9844 135.077 16.0902C134.634 16.2011 134.227 16.3685 133.857 16.5939C133.485 16.817 133.177 17.1115 132.937 17.4745L132.937 17.4745L132.933 17.4816C132.689 17.8707 132.578 18.3371 132.578 18.8604C132.578 19.317 132.665 19.7294 132.859 20.0821L133.068 19.9674L132.859 20.0821C133.042 20.4153 133.287 20.6965 133.592 20.9228L133.592 20.9228L133.597 20.9267C133.903 21.1451 134.247 21.3151 134.627 21.4386C134.991 21.5573 135.367 21.6488 135.752 21.7134L135.752 21.7136L135.763 21.7151C136.151 21.7677 136.535 21.8046 136.913 21.8257L136.913 21.8258L136.923 21.8261C137.294 21.8365 137.64 21.8417 137.959 21.8417H142.538H142.899V21.4813V11.8589C142.899 11.644 142.725 11.4697 142.51 11.4697H133.301C133.093 11.4697 132.925 11.6379 132.925 11.8455V14.6238V14.9842H133.285H133.506H133.867V14.6238V12.4063H141.941V14.7613C141.937 14.7988 141.912 14.871 141.767 14.9706C141.594 15.0883 141.362 15.1977 141.061 15.2928C140.751 15.3807 140.402 15.4597 140.015 15.5294C139.631 15.5902 139.248 15.6458 138.864 15.6965C138.481 15.7369 138.125 15.7671 137.795 15.7872L137.794 15.7872C137.471 15.8076 137.21 15.8229 137.013 15.8331Z" stroke="#F4F5F9" stroke-width="0.720797"/>
<path fill-rule="evenodd" clip-rule="evenodd" d="M1 4.31566C1 2.48447 2.48447 1 4.31567 1H27.0938C28.925 1 30.4095 2.48447 30.4095 4.31567V23.6992C30.4095 25.5303 28.925 27.0148 27.0938 27.0148H4.31567C2.48448 27.0148 1 25.5303 1 23.6991V4.31566ZM18.99 22.9709H6.07926C6.07926 16.9225 11.0056 17.6268 14.748 20.5133C19.9692 24.3579 22.6947 21.1994 19.9692 18.3241L15.6581 13.9588C26.8632 9.45911 28.7063 23.323 18.99 22.9709ZM25.2879 5.01246H12.3772C2.66089 4.66042 4.504 18.5243 15.7091 14.0246L11.398 9.65933C8.67247 6.78404 11.398 3.62547 16.6191 7.47011C20.3616 10.3566 25.2879 11.0609 25.2879 5.01246Z" fill="#F4F5F9"/>
<path d="M6.07926 22.9709H6.06484V22.9854H6.07926V22.9709ZM18.99 22.9709L18.9905 22.9565H18.99V22.9709ZM14.748 20.5133L14.7392 20.5247L14.7395 20.5249L14.748 20.5133ZM19.9692 18.3241L19.9797 18.3141L19.9795 18.3139L19.9692 18.3241ZM15.6581 13.9588L15.6528 13.9454L15.6326 13.9535L15.6479 13.9689L15.6581 13.9588ZM12.3772 5.01246L12.3767 5.02688H12.3772V5.01246ZM25.2879 5.01246H25.3023V4.99804H25.2879V5.01246ZM15.7091 14.0246L15.7144 14.038L15.7346 14.0299L15.7193 14.0145L15.7091 14.0246ZM11.398 9.65933L11.3875 9.66925L11.3877 9.66946L11.398 9.65933ZM16.6191 7.47011L16.6279 7.4587L16.6277 7.45851L16.6191 7.47011ZM4.31567 0.985584C2.47651 0.985584 0.985584 2.47651 0.985584 4.31566H1.01442C1.01442 2.49243 2.49244 1.01442 4.31567 1.01442V0.985584ZM27.0938 0.985584H4.31567V1.01442H27.0938V0.985584ZM30.4239 4.31567C30.4239 2.47651 28.933 0.985584 27.0938 0.985584V1.01442C28.9171 1.01442 30.3951 2.49244 30.3951 4.31567H30.4239ZM30.4239 23.6992V4.31567H30.3951V23.6992H30.4239ZM27.0938 27.0292C28.933 27.0292 30.4239 25.5383 30.4239 23.6992H30.3951C30.3951 25.5224 28.9171 27.0004 27.0938 27.0004V27.0292ZM4.31567 27.0292H27.0938V27.0004H4.31567V27.0292ZM0.985584 23.6991C0.985584 25.5383 2.47652 27.0292 4.31567 27.0292V27.0004C2.49244 27.0004 1.01442 25.5224 1.01442 23.6991H0.985584ZM0.985584 4.31566V23.6991H1.01442V4.31566H0.985584ZM6.07926 22.9854H18.99V22.9565H6.07926V22.9854ZM14.7568 20.5019C12.8844 19.0577 10.7134 18.1573 9.00838 18.3772C8.15515 18.4873 7.41859 18.8779 6.89568 19.621C6.37307 20.3637 6.06484 21.4571 6.06484 22.9709H6.09368C6.09368 21.4606 6.40124 20.3738 6.91926 19.6376C7.43699 18.9019 8.16592 18.5149 9.01207 18.4058C10.7059 18.1873 12.8692 19.0823 14.7392 20.5247L14.7568 20.5019ZM19.9587 18.334C20.6385 19.0511 20.9772 19.7847 21.0231 20.4208C21.0689 21.0566 20.8225 21.5956 20.3306 21.9267C19.8381 22.2581 19.0975 22.3825 18.1528 22.1834C17.2082 21.9843 16.0607 21.462 14.7566 20.5017L14.7395 20.5249C16.0459 21.4869 17.1971 22.0115 18.1468 22.2116C19.0964 22.4117 19.8458 22.2877 20.3467 21.9506C20.848 21.6132 21.0983 21.0638 21.0518 20.4188C21.0053 19.7742 20.6626 19.0347 19.9797 18.3141L19.9587 18.334ZM15.6479 13.9689L19.9589 18.3342L19.9795 18.3139L15.6684 13.9487L15.6479 13.9689ZM18.9895 22.9853C21.4221 23.0735 23.1332 22.2718 24.1551 21.088C25.1767 19.9044 25.508 18.3403 25.1836 16.9063C24.8592 15.4722 23.8789 14.1682 22.2777 13.5048C20.6766 12.8415 18.4564 12.8195 15.6528 13.9454L15.6635 13.9722C18.4623 12.8482 20.6744 12.8718 22.2667 13.5315C23.8589 14.1911 24.8331 15.4873 25.1555 16.9127C25.478 18.3382 25.1486 19.8929 24.1333 21.0691C23.1181 22.2452 21.4161 23.0444 18.9905 22.9565L18.9895 22.9853ZM12.3772 5.02688H25.2879V4.99804H12.3772V5.02688ZM15.7037 14.0112C12.9048 15.1352 10.6927 15.1116 9.10048 14.4519C7.50832 13.7923 6.53413 12.4961 6.21168 11.0707C5.88919 9.64517 6.21861 8.09054 7.23393 6.91428C8.24906 5.73824 9.95114 4.93899 12.3767 5.02687L12.3777 4.99805C9.94508 4.90992 8.23394 5.71163 7.2121 6.89544C6.19046 8.07903 5.85917 9.64313 6.18355 11.0771C6.50798 12.5112 7.48824 13.8152 9.08945 14.4786C10.6906 15.1419 12.9108 15.1639 15.7144 14.038L15.7037 14.0112ZM11.3877 9.66946L15.6988 14.0347L15.7193 14.0145L11.4082 9.6492L11.3877 9.66946ZM16.6277 7.45851C15.3213 6.4965 14.1701 5.97193 13.2204 5.77178C12.2708 5.57165 11.5214 5.6957 11.0205 6.03279C10.5192 6.37019 10.2689 6.91962 10.3154 7.56464C10.3618 8.20922 10.7045 8.94874 11.3875 9.66925L11.4085 9.64942C10.7287 8.93228 10.39 8.19874 10.3441 7.56256C10.2983 6.92682 10.5446 6.38778 11.0366 6.05671C11.529 5.72532 12.2697 5.60089 13.2144 5.79999C14.159 5.99906 15.3065 6.5214 16.6106 7.48172L16.6277 7.45851ZM25.2735 5.01246C25.2735 6.52282 24.9659 7.6096 24.4479 8.34577C23.9302 9.08153 23.2013 9.46846 22.3551 9.5776C20.6613 9.79605 18.498 8.90106 16.6279 7.4587L16.6103 7.48153C18.4827 8.9257 20.6538 9.82609 22.3588 9.60619C23.212 9.49615 23.9486 9.10547 24.4715 8.36236C24.9941 7.61966 25.3023 6.52632 25.3023 5.01246H25.2735Z" fill="#F4F5F9"/>
</svg>
